{"glyphs":{"0":{"ha":1060,"x_min":90,"x_max":1053,"o":"m 486 -26 q 285 26 375 -26 q 143 190 196 79 q 90 472 90 301 q 108 669 90 574 q 159 851 125 765 q 242 1006 193 936 q 355 1128 292 1076 q 496 1208 418 1181 q 663 1236 574 1236 q 860 1183 772 1236 q 1001 1021 949 1131 q 1053 739 1053 911 q 1035 542 1053 638 q 985 360 1018 446 q 903 204 951 275 q 791 82 854 133 q 651 2 728 31 q 486 -26 575 -26 m 500 92 q 618 115 563 92 q 721 182 674 139 q 806 284 768 225 q 869 413 843 343 q 909 561 896 483 q 922 719 922 639 q 887 950 922 863 q 789 1078 851 1038 q 644 1118 726 1118 q 525 1095 581 1118 q 422 1029 469 1072 q 338 928 375 986 q 274 799 300 869 q 235 651 249 729 q 221 493 221 574 q 257 262 221 350 q 356 133 293 174 q 500 92 419 92 z "},"1":{"ha":625,"x_min":192,"x_max":519,"o":"m 256 -19 q 199 21 192 -19 l 389 1199 q 409 1227 393 1218 q 456 1236 425 1236 q 513 1197 519 1236 l 322 19 q 256 -19 315 -19 z "},"2":{"ha":921,"x_min":1,"x_max":914,"o":"m 46 0 q 14 15 26 0 q 2 51 1 31 q 21 90 3 72 l 369 392 q 508 516 447 458 q 617 624 569 574 q 697 718 664 674 q 752 802 731 763 q 783 878 774 842 q 793 947 793 914 q 766 1049 793 1010 q 686 1106 739 1088 q 558 1124 633 1124 q 410 1093 475 1124 q 281 1013 346 1063 q 238 993 256 993 q 197 1015 219 993 q 180 1055 175 1038 q 206 1093 185 1072 q 301 1163 244 1131 q 430 1216 358 1196 q 581 1236 501 1236 q 712 1218 651 1236 q 818 1164 772 1200 q 889 1076 864 1128 q 914 958 914 1025 q 903 870 914 915 q 869 778 893 825 q 809 680 846 731 q 719 572 772 629 q 598 449 667 514 q 442 307 529 383 l 217 111 l 761 111 q 786 102 778 111 q 794 72 794 93 q 782 19 794 39 q 747 0 769 0 l 46 0 z "},"3":{"ha":921,"x_min":32,"x_max":889,"o":"m 413 -26 q 258 4 331 -26 q 131 91 186 35 q 44 226 76 147 q 32 281 32 263 q 65 314 32 300 q 108 322 93 326 q 135 292 124 318 q 205 178 164 224 q 299 108 246 132 q 422 85 353 85 q 547 106 492 85 q 642 164 603 126 q 701 254 681 201 q 722 369 722 307 q 690 488 722 436 q 599 569 658 539 q 457 599 540 599 l 379 599 q 354 613 361 599 q 351 657 347 628 q 367 698 356 686 q 396 710 379 710 l 469 710 q 592 727 538 710 q 684 776 646 744 q 742 852 722 808 q 763 949 763 896 q 747 1026 763 993 q 701 1081 731 1058 q 634 1114 672 1103 q 553 1125 596 1125 q 450 1109 497 1125 q 364 1065 403 1093 q 293 1003 325 1038 q 253 981 271 981 q 213 1003 236 982 q 193 1042 188 1024 q 218 1083 199 1060 q 302 1156 250 1121 q 422 1213 354 1190 q 567 1236 489 1236 q 692 1217 633 1236 q 794 1163 750 1199 q 864 1074 839 1126 q 889 956 889 1021 q 874 853 889 901 q 828 765 858 804 q 752 695 799 725 q 642 649 706 665 q 757 588 711 629 q 826 492 803 547 q 850 374 850 438 q 819 215 850 288 q 730 88 788 142 q 592 3 672 33 q 413 -26 511 -26 z "},"4":{"ha":938,"x_min":38,"x_max":922,"o":"m 638 -19 q 591 -10 607 -19 q 579 21 575 0 l 626 310 l 89 310 q 49 335 60 310 q 56 388 38 360 l 586 1194 q 617 1226 600 1217 q 668 1236 635 1236 q 705 1231 689 1236 q 724 1211 721 1225 q 713 1175 728 1197 l 210 421 l 644 421 l 707 808 q 774 846 714 846 q 819 837 804 846 q 831 807 835 828 l 769 421 l 889 421 q 914 412 906 421 q 922 381 922 403 q 910 328 922 347 q 875 310 897 310 l 751 310 l 703 19 q 638 -19 697 -19 z "},"5":{"ha":921,"x_min":35,"x_max":936,"o":"m 418 -26 q 320 -15 368 -26 q 227 21 272 -3 q 141 80 182 44 q 64 163 100 115 q 40 204 44 186 q 60 244 35 222 q 101 267 83 267 q 139 242 118 267 q 223 157 181 192 q 315 104 265 122 q 432 86 365 86 q 567 111 510 86 q 663 183 625 136 q 720 291 701 229 q 739 426 739 353 q 726 524 739 479 q 685 603 713 569 q 613 655 657 636 q 507 674 568 674 q 415 662 458 674 q 334 631 371 650 q 267 585 297 611 q 217 559 243 563 q 175 569 190 556 q 167 611 160 583 l 276 1186 q 289 1206 278 1197 q 317 1215 300 1215 l 904 1215 q 928 1206 921 1215 q 936 1176 936 1197 q 924 1124 936 1143 q 890 1104 913 1104 l 374 1104 l 299 715 q 361 751 328 736 q 433 776 394 767 q 513 785 471 785 q 707 738 628 785 q 826 613 786 692 q 867 436 867 533 q 834 239 867 325 q 741 94 801 153 q 599 4 681 35 q 418 -26 518 -26 z "},"6":{"ha":990,"x_min":125,"x_max":940,"o":"m 503 -26 q 302 28 386 -26 q 172 185 218 83 q 125 426 125 286 q 158 660 125 550 q 252 865 190 771 q 401 1031 314 958 q 599 1154 489 1104 q 838 1226 710 1204 q 897 1228 879 1235 q 917 1185 914 1221 q 909 1142 919 1153 q 867 1124 899 1131 q 643 1053 742 1100 q 471 940 544 1007 q 349 792 397 874 q 277 615 301 710 q 253 419 253 521 q 273 273 253 336 q 329 168 293 210 q 412 106 365 126 q 513 85 458 85 q 638 110 582 85 q 733 179 693 135 q 793 283 772 224 q 814 413 814 343 q 785 544 814 489 q 704 628 756 599 q 588 657 653 657 q 503 642 546 657 q 422 597 461 626 q 347 527 382 568 q 286 434 313 486 q 243 322 260 382 l 189 406 q 260 566 217 497 q 360 679 304 635 q 477 746 415 724 q 603 768 539 768 q 739 744 678 768 q 845 674 800 719 q 915 567 890 629 q 940 428 940 504 q 910 243 940 326 q 822 99 879 160 q 683 6 764 39 q 503 -26 603 -26 z "},"7":{"ha":747,"x_min":93,"x_max":857,"o":"m 146 -17 q 99 6 106 -11 q 111 54 93 22 l 688 1104 l 147 1104 q 122 1114 131 1104 q 114 1144 114 1124 q 126 1197 114 1178 q 161 1215 139 1215 l 806 1215 q 842 1194 828 1215 q 842 1143 857 1172 l 236 38 q 201 -9 219 6 q 146 -17 182 -24 z "},"8":{"ha":921,"x_min":39,"x_max":911,"o":"m 419 -26 q 262 -5 332 -26 q 142 57 192 17 q 65 157 92 97 q 39 294 39 217 q 63 407 39 353 q 130 508 86 461 q 234 592 174 554 q 369 657 294 631 q 272 735 311 693 q 213 828 233 778 q 193 933 193 878 q 222 1067 193 1010 q 303 1162 251 1124 q 425 1219 356 1200 q 575 1239 494 1239 q 704 1222 643 1239 q 812 1173 765 1206 q 885 1092 858 1140 q 911 979 911 1043 q 892 876 911 924 q 840 788 874 828 q 758 715 806 747 q 650 660 710 683 q 760 578 713 626 q 835 471 808 531 q 863 340 863 411 q 830 182 863 250 q 738 67 797 114 q 599 -3 679 21 q 419 -26 518 -26 m 435 85 q 556 101 501 85 q 651 149 611 117 q 713 227 692 181 q 735 336 735 274 q 705 448 735 399 q 620 535 675 497 q 489 603 565 574 q 363 549 421 581 q 260 478 304 517 q 191 392 215 439 q 167 294 167 346 q 188 198 167 238 q 247 133 210 158 q 333 97 285 108 q 435 85 381 85 m 532 711 q 665 772 608 735 q 754 858 722 810 q 786 961 786 907 q 767 1038 786 1006 q 717 1089 749 1069 q 646 1118 686 1108 q 564 1128 606 1128 q 471 1117 515 1128 q 392 1085 426 1107 q 338 1026 358 1063 q 318 940 318 990 q 345 843 318 886 q 420 767 372 800 q 532 711 468 735 z "},"9":{"ha":1025,"x_min":132,"x_max":981,"o":"m 738 -19 q 692 -10 707 -19 q 681 21 676 0 l 771 599 q 676 518 728 553 q 566 465 624 483 q 446 446 508 446 q 315 469 372 446 q 216 538 257 493 q 153 645 175 582 q 132 786 132 708 q 167 978 132 893 q 264 1122 201 1063 q 412 1212 326 1181 q 597 1243 497 1243 q 739 1229 671 1243 q 867 1190 807 1215 q 971 1126 926 1164 q 979 1115 978 1121 q 978 1100 981 1108 l 804 19 q 784 -10 800 0 q 738 -19 768 -19 m 461 557 q 583 583 522 557 q 701 654 644 608 q 800 763 757 700 l 850 1065 q 793 1096 828 1081 q 710 1122 758 1111 q 601 1132 663 1132 q 458 1108 522 1132 q 350 1038 394 1083 q 282 928 306 992 q 258 786 258 865 q 271 694 258 736 q 309 621 283 651 q 373 574 335 590 q 461 557 411 557 z "},"\r":{"ha":417,"x_min":0,"x_max":0,"o":""}," ":{"ha":417,"x_min":0,"x_max":0,"o":""}," ":{"ha":139,"x_min":0,"x_max":0,"o":""}," ":{"ha":417,"x_min":0,"x_max":0,"o":""},"A":{"ha":1044,"x_min":-32,"x_max":969,"o":"m 29 -19 q -19 0 -7 -19 q -17 49 -32 19 l 569 1181 q 604 1224 586 1213 q 657 1236 622 1236 q 702 1224 686 1236 q 724 1174 718 1211 l 963 43 q 953 -2 969 15 q 901 -19 938 -19 q 860 -8 871 -19 q 842 32 849 4 l 785 322 l 258 322 l 107 35 q 76 -8 90 3 q 29 -19 63 -19 m 317 433 l 761 433 l 629 1047 l 317 433 z "},"B":{"ha":1007,"x_min":117,"x_max":988,"o":"m 179 0 q 124 39 117 0 l 310 1178 q 378 1215 315 1215 l 644 1215 q 824 1192 747 1215 q 944 1115 901 1169 q 988 967 988 1060 q 956 843 988 899 q 875 747 925 788 q 766 681 825 707 q 650 647 707 656 l 649 642 q 763 622 708 639 q 859 575 817 606 q 926 499 901 544 q 950 390 950 453 q 926 251 950 314 q 856 142 901 189 q 748 63 811 94 q 608 16 685 32 q 444 0 532 0 l 179 0 m 258 111 l 447 111 q 601 129 532 111 q 720 183 671 147 q 797 269 769 218 q 824 386 824 319 q 804 470 824 433 q 748 533 785 507 q 658 574 711 560 q 533 588 604 588 l 335 588 l 258 111 m 354 699 l 535 699 q 655 717 597 699 q 758 770 713 736 q 831 851 804 804 q 857 954 857 897 q 831 1045 857 1013 q 753 1091 804 1078 q 626 1104 701 1104 l 419 1104 l 354 699 z "},"C":{"ha":1078,"x_min":142,"x_max":1117,"o":"m 585 -26 q 401 11 482 -26 q 261 118 319 49 q 172 285 203 188 q 142 506 142 383 q 160 678 142 592 q 214 847 178 765 q 303 999 250 929 q 424 1123 356 1069 q 578 1206 493 1176 q 764 1236 664 1236 q 899 1222 836 1236 q 1014 1173 961 1207 q 1106 1082 1067 1139 q 1110 1053 1117 1065 q 1088 1028 1104 1042 q 1055 1009 1069 1013 q 1024 1021 1040 1006 q 952 1074 992 1053 q 864 1107 913 1096 q 754 1118 815 1118 q 619 1095 682 1118 q 502 1030 556 1072 q 406 931 449 988 q 334 806 364 874 q 288 665 304 739 q 272 517 272 592 q 294 331 272 411 q 357 199 315 251 q 458 119 399 146 q 594 92 518 92 q 699 110 650 92 q 790 158 747 128 q 872 228 833 189 q 947 313 911 268 q 977 326 961 331 q 1011 307 993 322 q 1035 277 1032 290 q 1025 246 1038 264 q 885 90 960 150 q 733 2 810 31 q 585 -26 657 -26 z "},"D":{"ha":1208,"x_min":117,"x_max":1156,"o":"m 179 0 q 124 39 117 0 l 310 1178 q 329 1206 313 1197 q 376 1215 346 1215 l 608 1215 q 853 1178 750 1215 q 1023 1075 956 1140 q 1123 926 1090 1010 q 1156 751 1156 843 q 1121 501 1156 617 q 1021 294 1086 386 q 863 137 956 203 q 651 35 769 71 q 396 0 533 0 l 179 0 m 258 118 l 396 118 q 601 145 506 118 q 774 224 697 172 q 907 353 851 276 q 992 531 963 431 q 1021 751 1021 631 q 993 891 1021 828 q 912 1001 965 954 q 782 1072 858 1047 q 608 1097 706 1097 l 418 1097 l 258 118 z "},"E":{"ha":921,"x_min":124,"x_max":1001,"o":"m 186 0 q 138 13 153 0 q 128 56 124 26 l 308 1178 q 327 1206 311 1197 q 372 1215 343 1215 l 969 1215 q 994 1203 988 1215 q 997 1160 1001 1190 q 983 1118 994 1132 q 954 1104 972 1104 l 419 1104 l 353 699 l 799 699 q 824 686 817 699 q 828 643 831 674 q 812 601 824 614 q 782 588 800 588 l 336 588 l 260 111 l 792 111 q 817 99 810 111 q 819 56 824 86 q 806 14 817 28 q 776 0 794 0 l 186 0 z "},"F":{"ha":868,"x_min":115,"x_max":988,"o":"m 175 -19 q 121 19 115 -19 l 308 1178 q 329 1206 313 1197 q 376 1215 346 1215 l 956 1215 q 981 1203 974 1215 q 985 1160 988 1190 q 969 1118 981 1132 q 940 1104 958 1104 l 419 1104 l 347 664 l 786 664 q 810 651 804 664 q 813 607 817 638 q 796 566 807 579 q 767 553 785 553 l 329 553 l 244 19 q 223 -10 240 0 q 175 -19 206 -19 z "},"H":{"ha":1233,"x_min":115,"x_max":1206,"o":"m 176 -19 q 121 19 115 -19 l 313 1199 q 332 1227 315 1218 q 379 1236 349 1236 q 433 1199 442 1236 l 353 693 l 994 693 l 1076 1199 q 1096 1227 1079 1218 q 1143 1236 1113 1236 q 1197 1199 1206 1236 l 1007 19 q 988 -10 1004 0 q 940 -19 971 -19 q 885 19 879 -19 l 976 582 l 335 582 l 243 19 q 224 -10 240 0 q 176 -19 207 -19 z "},"J":{"ha":903,"x_min":26,"x_max":896,"o":"m 381 -26 q 235 2 307 -26 q 110 85 164 31 q 33 218 56 140 q 38 251 26 242 q 68 268 49 261 q 113 274 97 278 q 138 246 128 269 q 191 163 158 197 q 271 110 224 128 q 381 92 318 92 q 453 99 419 92 q 516 122 488 106 q 567 167 544 139 q 606 240 590 196 q 633 346 622 283 l 771 1199 q 792 1227 775 1218 q 838 1236 808 1236 q 882 1227 868 1236 q 893 1199 896 1218 l 756 346 q 717 203 742 264 q 659 98 693 142 q 583 26 625 54 q 490 -14 540 -1 q 381 -26 439 -26 z "},"K":{"ha":956,"x_min":118,"x_max":1042,"o":"m 175 -19 q 131 -10 144 -19 q 121 19 118 0 l 313 1199 q 379 1236 318 1236 q 435 1199 440 1236 l 356 711 l 951 1221 q 990 1235 974 1239 q 1024 1210 1006 1231 q 1041 1172 1042 1186 q 1019 1139 1040 1157 l 428 636 q 578 419 506 518 q 725 234 651 319 q 878 69 799 149 q 894 33 896 53 q 867 -10 893 14 q 828 -23 847 -25 q 793 -6 808 -21 q 664 132 726 60 q 544 281 601 204 q 434 435 486 357 q 336 590 382 513 l 242 19 q 222 -10 239 0 q 175 -19 206 -19 z "},"L":{"ha":868,"x_min":119,"x_max":793,"o":"m 181 0 q 128 56 119 0 l 313 1199 q 330 1227 315 1218 q 375 1236 344 1236 q 422 1227 407 1236 q 433 1197 438 1218 l 258 111 l 761 111 q 786 99 779 111 q 789 56 793 86 q 775 14 786 28 q 746 0 764 0 l 181 0 z "},"N":{"ha":1233,"x_min":115,"x_max":1206,"o":"m 176 -19 q 121 19 115 -19 l 313 1199 q 332 1227 315 1218 q 379 1236 349 1236 q 418 1227 404 1236 q 443 1199 432 1218 l 917 229 l 1076 1199 q 1096 1227 1079 1218 q 1143 1236 1113 1236 q 1197 1199 1206 1236 l 1007 19 q 988 -10 1004 0 q 942 -19 971 -19 q 908 -12 919 -19 q 885 19 896 -6 l 404 1004 l 243 19 q 224 -10 240 0 q 176 -19 207 -19 z "},"O":{"ha":1285,"x_min":146,"x_max":1222,"o":"m 622 -26 q 426 14 514 -26 q 275 127 338 54 q 179 300 213 200 q 146 522 146 400 q 163 694 146 608 q 215 860 181 779 q 301 1008 250 940 q 419 1128 351 1076 q 569 1208 486 1179 q 750 1236 653 1236 q 944 1197 857 1236 q 1094 1084 1032 1157 q 1189 911 1156 1011 q 1222 689 1222 811 q 1204 511 1222 599 q 1151 344 1186 424 q 1064 197 1115 264 q 946 79 1013 129 q 798 1 879 29 q 622 -26 717 -26 m 632 92 q 766 114 704 92 q 879 177 828 136 q 971 273 931 218 q 1038 394 1011 328 q 1079 531 1065 460 q 1093 678 1093 603 q 1069 867 1093 785 q 998 1005 1044 949 q 886 1090 951 1061 q 739 1118 821 1118 q 606 1096 668 1118 q 492 1033 544 1074 q 400 936 440 992 q 332 815 360 881 q 290 678 304 750 q 275 533 275 607 q 300 345 275 428 q 371 206 325 263 q 483 121 417 150 q 632 92 549 92 z "},"P":{"ha":972,"x_min":115,"x_max":1019,"o":"m 179 -19 q 122 21 115 -19 l 308 1178 q 328 1206 313 1197 q 375 1215 344 1215 l 615 1215 q 838 1185 749 1215 q 974 1091 928 1154 q 1019 928 1019 1028 q 978 744 1019 821 q 867 618 938 668 q 707 538 797 568 q 518 493 617 507 q 414 484 467 488 q 318 481 361 481 l 244 19 q 226 -10 240 0 q 179 -19 211 -19 m 336 590 q 399 592 365 590 q 468 597 433 593 q 536 604 503 600 q 721 659 640 622 q 848 760 801 696 q 894 919 894 824 q 863 1026 894 986 q 768 1085 832 1067 q 606 1104 704 1104 l 419 1104 l 336 590 z "},"R":{"ha":964,"x_min":119,"x_max":988,"o":"m 179 -19 q 134 -10 149 -19 q 122 21 119 0 l 308 1178 q 328 1206 313 1197 q 375 1215 344 1215 l 575 1215 q 809 1189 718 1215 q 944 1102 900 1163 q 988 940 988 1042 q 971 835 988 885 q 923 743 954 786 q 847 666 892 700 q 742 607 801 632 q 612 567 683 582 q 457 546 540 551 q 579 384 514 464 q 718 226 644 304 q 875 74 792 149 q 892 42 888 63 q 868 -6 897 22 q 828 -21 849 -22 q 790 -3 808 -19 q 622 162 706 74 q 464 344 539 250 q 326 531 389 438 l 244 19 q 226 -10 240 0 q 179 -19 211 -19 m 343 643 q 478 649 417 643 q 594 668 540 656 q 690 699 647 681 q 765 740 732 717 q 819 794 797 764 q 851 859 840 824 q 863 935 863 894 q 835 1037 863 1000 q 744 1089 807 1074 q 575 1104 681 1104 l 419 1104 l 343 643 z "},"S":{"ha":956,"x_min":64,"x_max":922,"o":"m 447 -26 q 334 -12 389 -26 q 231 28 279 3 q 144 87 183 53 q 75 160 104 121 q 67 190 64 176 q 88 219 71 204 q 123 241 110 238 q 156 225 136 244 q 228 163 186 193 q 326 112 271 132 q 447 92 381 92 q 565 106 513 92 q 654 147 617 119 q 712 219 692 175 q 732 321 732 263 q 717 398 732 364 q 674 459 703 432 q 606 510 646 486 q 514 557 567 533 q 423 603 468 578 q 339 660 378 629 q 270 729 300 690 q 224 817 240 768 q 207 929 207 867 q 234 1055 207 999 q 312 1152 261 1111 q 433 1215 363 1193 q 589 1236 503 1236 q 716 1217 660 1236 q 819 1167 772 1199 q 908 1094 867 1135 q 919 1065 922 1081 q 900 1035 917 1050 q 867 1013 883 1018 q 836 1019 851 1008 q 769 1071 803 1049 q 692 1106 735 1093 q 589 1118 649 1118 q 484 1106 531 1118 q 404 1071 438 1094 q 353 1012 371 1047 q 336 929 336 976 q 350 842 336 879 q 392 776 364 806 q 463 722 421 747 q 563 672 506 697 q 676 614 622 646 q 771 540 729 582 q 836 445 813 499 q 860 321 860 392 q 830 176 860 240 q 745 67 800 111 q 615 -2 690 22 q 447 -26 539 -26 z "},"T":{"ha":958,"x_min":149,"x_max":1075,"o":"m 419 -21 q 365 18 360 -21 l 542 1104 l 183 1104 q 156 1117 163 1104 q 153 1160 149 1129 q 169 1203 158 1192 q 201 1215 181 1215 l 1042 1215 q 1069 1203 1063 1215 q 1069 1160 1075 1192 q 1055 1117 1065 1129 q 1024 1104 1044 1104 l 664 1104 l 486 18 q 467 -11 483 -1 q 419 -21 450 -21 z "},"V":{"ha":1007,"x_min":153,"x_max":1132,"o":"m 444 -19 q 399 -6 415 -19 q 376 44 383 7 l 157 1174 q 166 1214 153 1199 q 213 1233 179 1229 q 256 1232 242 1239 q 272 1201 269 1225 l 472 172 l 999 1199 q 1031 1233 1014 1226 q 1078 1233 1047 1239 q 1122 1211 1111 1229 q 1118 1169 1132 1193 l 531 36 q 496 -7 514 6 q 444 -19 478 -19 z "},"W":{"ha":1667,"x_min":153,"x_max":1792,"o":"m 408 -19 q 363 -6 379 -19 q 340 44 346 7 l 156 1174 q 165 1214 153 1199 q 211 1233 178 1229 q 256 1231 242 1239 q 272 1199 269 1224 l 435 182 l 892 1183 q 923 1226 907 1217 q 972 1236 939 1236 q 1017 1225 1004 1236 q 1035 1186 1031 1214 l 1213 181 l 1658 1196 q 1691 1232 1674 1225 q 1739 1233 1708 1239 q 1782 1211 1772 1229 q 1779 1169 1792 1193 l 1274 36 q 1240 -7 1258 6 q 1186 -19 1221 -19 q 1141 -6 1157 -19 q 1119 44 1125 7 l 942 1021 l 494 36 q 461 -7 481 6 q 408 -19 442 -19 z "},"X":{"ha":956,"x_min":3,"x_max":1035,"o":"m 806 -10 q 763 -15 779 -18 q 735 14 746 -11 l 510 510 l 126 14 q 87 -14 107 -10 q 40 -10 67 -18 q 13 6 24 -4 q 3 31 3 15 q 18 63 4 46 l 458 626 l 218 1156 q 218 1202 208 1183 q 256 1229 228 1221 q 300 1233 283 1238 q 328 1203 317 1229 l 544 731 l 910 1203 q 950 1231 931 1226 q 994 1229 969 1236 q 1022 1213 1011 1224 q 1034 1189 1033 1203 q 1019 1156 1035 1175 l 596 614 l 843 63 q 843 17 853 36 q 806 -10 833 -3 z "},"Z":{"ha":851,"x_min":-35,"x_max":963,"o":"m 6 0 q -22 13 -11 0 q -34 46 -33 26 q -24 81 -35 65 l 767 1104 l 221 1104 q 196 1117 203 1104 q 192 1160 189 1131 q 208 1203 196 1190 q 238 1215 219 1215 l 915 1215 q 952 1188 942 1215 q 944 1136 963 1160 l 154 111 l 761 111 q 786 99 779 111 q 790 56 793 86 q 775 14 786 28 q 746 0 764 0 l 6 0 z "},"Æ":{"ha":1339,"x_min":-35,"x_max":1419,"o":"m 1194 0 l 674 0 q 626 13 642 0 q 617 56 611 26 l 696 553 l 433 553 l 86 3 q 55 -19 75 -15 q 7 -15 35 -24 q -26 12 -17 -6 q -22 49 -35 29 l 693 1169 q 724 1206 708 1197 q 772 1215 740 1215 l 1388 1215 q 1413 1203 1406 1215 q 1417 1160 1419 1190 q 1401 1118 1413 1132 q 1372 1104 1390 1104 l 908 1104 l 838 664 l 1211 664 q 1237 651 1229 664 q 1240 608 1244 639 q 1225 566 1236 579 q 1196 553 1214 553 l 819 553 l 749 111 l 1210 111 q 1235 99 1228 111 q 1238 56 1242 86 q 1224 14 1235 28 q 1194 0 1213 0 m 504 664 l 714 664 l 786 1110 l 504 664 z "},"Ð":{"ha":1208,"x_min":71,"x_max":1156,"o":"m 179 0 q 124 39 117 0 l 310 1178 q 329 1206 313 1197 q 376 1215 346 1215 l 608 1215 q 853 1178 750 1215 q 1023 1075 956 1140 q 1123 926 1090 1010 q 1156 751 1156 843 q 1121 501 1156 617 q 1021 294 1086 386 q 863 137 956 203 q 651 35 769 71 q 396 0 533 0 l 179 0 m 258 118 l 396 118 q 601 145 506 118 q 774 224 697 172 q 907 353 851 276 q 992 531 963 431 q 1021 751 1021 631 q 993 891 1021 828 q 912 1001 965 954 q 782 1072 858 1047 q 608 1097 706 1097 l 418 1097 l 258 118 m 106 565 q 76 581 81 565 q 74 614 71 596 q 83 650 75 633 q 118 667 92 667 l 624 667 q 653 650 649 667 q 657 614 658 633 q 646 581 654 596 q 614 565 638 565 l 106 565 z "},"Ĳ":{"ha":1372,"x_min":118,"x_max":1365,"o":"m 179 -19 q 133 -10 149 -19 q 121 21 118 0 l 310 1199 q 330 1227 314 1218 q 376 1236 346 1236 q 423 1227 408 1236 q 433 1197 438 1218 l 244 19 q 226 -10 242 0 q 179 -19 210 -19 m 850 -26 q 705 2 776 -26 q 579 85 633 31 q 503 218 525 140 q 507 251 496 242 q 538 268 518 261 q 582 274 567 278 q 607 246 597 269 q 660 163 628 197 q 740 110 693 128 q 850 92 788 92 q 923 99 889 92 q 985 122 957 106 q 1037 167 1014 139 q 1076 240 1060 196 q 1103 346 1092 283 l 1240 1199 q 1261 1227 1244 1218 q 1307 1236 1278 1236 q 1351 1227 1338 1236 q 1363 1199 1365 1218 l 1225 346 q 1187 203 1211 264 q 1128 98 1163 142 q 1052 26 1094 54 q 959 -14 1010 -1 q 850 -26 908 -26 z "},"Ŋ":{"ha":1233,"x_min":115,"x_max":1206,"o":"m 979 -151 q 938 -277 965 -233 q 873 -337 910 -321 q 794 -354 836 -354 q 701 -328 744 -354 q 628 -261 657 -303 q 617 -224 614 -242 q 643 -192 621 -207 q 682 -176 665 -175 q 713 -193 699 -176 q 741 -223 728 -210 q 768 -243 754 -236 q 796 -250 782 -250 q 828 -238 817 -250 q 847 -201 839 -226 q 863 -137 854 -176 l 886 18 l 404 1004 l 243 19 q 224 -10 240 0 q 176 -19 207 -19 q 121 19 115 -19 l 313 1199 q 332 1227 315 1218 q 379 1236 349 1236 q 418 1227 404 1236 q 443 1199 432 1218 l 917 229 l 1076 1199 q 1096 1227 1079 1218 q 1143 1236 1113 1236 q 1197 1199 1206 1236 l 979 -151 z "},"Œ":{"ha":1776,"x_min":146,"x_max":1857,"o":"m 610 -26 q 419 14 504 -26 q 274 127 335 54 q 179 300 213 200 q 146 522 146 400 q 163 694 146 608 q 215 860 181 779 q 299 1008 249 940 q 415 1128 349 1076 q 562 1208 481 1179 q 739 1236 643 1236 q 924 1196 842 1236 q 1064 1081 1006 1156 q 1153 907 1122 1007 q 1185 689 1185 807 q 1167 517 1185 603 q 1117 351 1150 432 q 1035 203 1083 271 q 922 83 986 135 q 781 3 858 32 q 610 -26 703 -26 m 624 92 q 755 114 694 92 q 866 177 815 136 q 956 273 917 218 q 1022 394 994 328 q 1063 531 1049 460 q 1076 678 1076 603 q 1052 867 1076 785 q 983 1005 1028 949 q 874 1090 938 1061 q 731 1118 810 1118 q 600 1096 661 1118 q 489 1033 539 1074 q 399 936 439 992 q 332 815 360 881 q 290 678 304 750 q 276 533 276 607 q 300 345 276 428 q 369 206 324 263 q 480 121 415 150 q 624 92 544 92 m 1040 0 q 993 13 1008 0 q 983 56 978 26 l 1164 1178 q 1182 1206 1167 1197 q 1226 1215 1197 1215 l 1825 1215 q 1850 1203 1843 1215 q 1853 1160 1857 1190 q 1838 1118 1849 1132 q 1808 1104 1826 1104 l 1274 1104 l 1208 699 l 1653 699 q 1678 686 1671 699 q 1682 643 1686 674 q 1667 601 1678 614 q 1638 588 1656 588 l 1190 588 l 1114 111 l 1646 111 q 1672 99 1664 111 q 1675 56 1679 86 q 1660 14 1671 28 q 1631 0 1649 0 l 1040 0 z "},"Þ":{"ha":1007,"x_min":119,"x_max":993,"o":"m 179 -19 q 134 -10 149 -19 q 122 21 119 0 l 313 1199 q 332 1227 317 1218 q 378 1236 347 1236 q 424 1227 408 1236 q 435 1197 439 1218 l 413 1060 l 589 1060 q 813 1029 724 1060 q 947 935 901 999 q 993 771 993 871 q 952 589 993 665 q 841 462 911 513 q 681 381 771 411 q 492 338 592 351 q 388 328 440 331 q 293 325 335 325 l 244 19 q 226 -10 240 0 q 179 -19 211 -19 m 310 435 q 374 436 340 435 q 442 440 407 438 q 510 449 476 443 q 694 503 614 465 q 822 604 775 540 q 868 763 868 668 q 837 870 868 829 q 742 930 806 911 q 579 949 678 949 l 393 949 l 310 435 z "},"ẞ":{"ha":1233,"x_min":111,"x_max":1096,"o":"m 686 -26 q 585 -17 635 -26 q 491 9 535 -8 q 411 49 447 26 q 385 78 389 63 q 394 119 381 93 q 424 151 408 144 q 464 144 439 158 q 533 116 499 128 q 606 98 567 104 q 690 92 646 92 q 797 107 747 92 q 885 152 847 122 q 946 228 924 182 q 967 333 968 274 q 951 422 967 382 q 908 498 936 463 q 847 565 881 533 q 778 627 814 597 q 710 688 743 657 q 650 751 676 718 q 608 822 624 785 q 592 903 592 860 q 609 986 593 947 q 654 1056 625 1025 q 721 1110 683 1088 q 553 1048 621 1089 q 443 950 485 1007 q 378 825 401 893 q 343 681 354 757 l 236 19 q 217 -10 233 0 q 169 -19 200 -19 q 125 -10 139 -19 q 114 19 111 0 l 221 681 q 268 866 238 781 q 351 1019 299 951 q 485 1136 404 1088 q 685 1210 567 1185 q 965 1236 803 1236 l 994 1236 q 1022 1224 1015 1236 q 1022 1179 1028 1211 q 1008 1135 1018 1149 q 976 1122 997 1122 q 881 1110 928 1122 q 797 1074 835 1099 q 738 1013 760 1050 q 717 928 717 976 q 734 860 718 892 q 777 799 750 828 q 838 742 804 771 q 908 682 872 713 q 977 616 943 651 q 1038 539 1011 581 q 1080 447 1064 497 q 1096 333 1096 396 q 1064 183 1096 250 q 976 70 1032 117 q 844 -1 919 24 q 686 -26 769 -26 z "},"b":{"ha":831,"x_min":82,"x_max":763,"o":"m 143 -21 q 99 -11 117 -21 q 88 21 82 -1 l 276 1196 q 294 1228 281 1219 q 338 1236 308 1236 q 388 1225 374 1236 q 396 1192 401 1214 l 283 493 q 374 622 326 572 q 470 697 421 672 q 569 721 519 721 q 710 649 658 721 q 763 451 763 578 q 746 315 763 383 q 697 187 729 247 q 617 79 664 126 q 510 4 571 32 q 375 -24 449 -24 q 290 -12 333 -24 q 207 21 247 0 l 206 15 q 188 -12 203 -3 q 143 -21 174 -21 m 222 121 q 305 92 267 100 q 376 83 343 83 q 467 103 426 83 q 539 159 507 124 q 592 241 571 194 q 626 338 614 288 q 638 440 638 389 q 627 526 638 488 q 596 587 617 564 q 539 610 575 610 q 437 567 490 610 q 332 433 383 524 q 235 200 281 343 l 222 121 z "},"c":{"ha":726,"x_min":78,"x_max":708,"o":"m 351 -26 q 202 12 264 -26 q 109 119 140 50 q 78 276 78 188 q 103 439 78 360 q 176 582 128 518 q 295 683 225 646 q 456 721 365 721 q 584 695 524 721 q 690 614 644 669 q 703 576 708 593 q 683 544 699 560 q 648 525 665 528 q 613 540 631 522 q 543 590 581 571 q 449 610 506 610 q 342 581 389 610 q 265 506 296 553 q 217 401 233 458 q 201 283 201 343 q 219 177 201 221 q 274 110 238 133 q 364 85 310 86 q 452 104 414 85 q 522 155 490 124 q 581 219 553 186 q 617 236 597 240 q 653 217 636 232 q 674 186 671 201 q 663 151 678 171 q 567 49 617 88 q 463 -8 517 10 q 351 -26 410 -26 z "},"e":{"ha":731,"x_min":78,"x_max":681,"o":"m 342 -26 q 198 11 257 -26 q 108 116 139 49 q 78 269 78 183 q 105 432 78 351 q 183 578 132 513 q 308 682 233 643 q 476 721 382 721 q 585 701 539 721 q 656 643 631 681 q 681 550 681 606 q 649 449 681 494 q 566 367 618 403 q 446 303 514 331 q 304 258 378 276 q 158 226 231 239 l 161 324 q 263 345 208 332 q 368 376 317 358 q 462 418 419 394 q 529 472 504 442 q 554 538 554 501 q 527 594 554 578 q 460 611 500 611 q 355 583 403 611 q 273 508 307 556 q 220 403 239 461 q 201 283 201 344 q 219 176 201 221 q 271 108 236 132 q 357 85 306 85 q 442 103 406 85 q 508 152 478 122 q 565 217 538 182 q 602 233 582 236 q 639 214 622 229 q 659 183 656 199 q 649 149 663 168 q 552 47 601 85 q 451 -9 503 8 q 342 -26 399 -26 z "},"ȷ":{"ha":372,"x_min":-237,"x_max":301,"o":"m -42 -547 q -142 -523 -97 -547 q -221 -461 -187 -499 q -232 -423 -237 -442 q -207 -390 -226 -404 q -169 -372 -185 -372 q -137 -389 -154 -372 q -91 -428 -112 -412 q -40 -443 -69 -443 q -6 -419 -15 -443 q 13 -349 3 -396 l 179 679 q 198 706 182 697 q 243 715 214 715 q 288 706 274 715 q 299 679 301 697 l 132 -343 q 92 -470 118 -426 q 31 -531 65 -514 q -42 -547 -3 -547 z "},"o":{"ha":818,"x_min":79,"x_max":742,"o":"m 372 -26 q 217 13 283 -26 q 115 125 150 53 q 79 296 79 197 q 104 449 79 374 q 177 586 129 525 q 293 684 225 647 q 449 721 361 721 q 604 681 539 721 q 706 569 669 640 q 742 407 742 499 q 726 284 742 346 q 679 166 710 222 q 604 67 649 110 q 501 -1 560 24 q 372 -26 443 -26 m 379 85 q 478 113 435 85 q 553 187 522 140 q 601 289 585 233 q 617 400 617 344 q 595 511 617 464 q 535 584 574 558 q 443 610 496 610 q 342 583 388 610 q 266 510 297 556 q 219 410 235 464 q 203 301 203 356 q 225 188 203 236 q 287 112 247 139 q 379 85 326 85 z "},"p":{"ha":832,"x_min":-1,"x_max":764,"o":"m 60 -542 q 16 -532 33 -542 q 4 -500 -1 -522 l 192 675 q 211 707 197 699 q 253 715 225 715 q 303 704 289 715 q 311 671 317 693 l 283 492 q 375 622 328 572 q 471 697 422 672 q 569 721 519 721 q 712 649 660 721 q 764 451 764 578 q 747 315 764 383 q 698 187 731 247 q 617 79 665 126 q 508 4 569 32 q 372 -24 447 -24 q 290 -12 331 -24 q 208 21 249 0 l 122 -506 q 105 -533 119 -524 q 60 -542 90 -542 m 224 121 q 306 92 267 100 q 376 83 344 83 q 466 103 425 83 q 539 159 507 124 q 593 241 571 194 q 626 338 615 288 q 638 440 638 389 q 628 526 638 488 q 597 587 618 564 q 539 610 575 610 q 438 568 490 610 q 335 438 386 526 q 235 213 283 350 l 224 121 z "},"r":{"ha":631,"x_min":74,"x_max":675,"o":"m 133 -21 q 91 -11 108 -21 q 79 21 74 -1 l 183 675 q 201 707 188 699 q 243 715 215 715 q 294 704 281 715 q 303 671 307 693 l 267 442 q 338 565 300 513 q 413 653 375 618 q 485 704 450 688 q 550 721 519 721 q 618 703 586 721 q 667 663 650 686 q 673 634 675 650 q 658 603 671 618 q 628 581 643 586 q 601 585 614 575 q 570 603 586 596 q 536 611 554 611 q 456 573 501 611 q 365 465 411 535 q 277 300 319 394 q 204 93 235 206 l 197 15 q 180 -12 194 -3 q 133 -21 165 -21 z "},"s":{"ha":665,"x_min":39,"x_max":615,"o":"m 315 -26 q 203 -6 256 -26 q 110 44 150 14 q 49 107 71 74 q 40 138 39 121 q 60 168 42 154 q 92 183 78 181 q 119 169 107 186 q 208 98 157 126 q 314 69 258 69 q 390 81 358 69 q 438 118 421 93 q 456 179 456 143 q 433 242 456 217 q 374 285 410 267 q 297 323 338 304 q 219 367 256 342 q 160 429 183 392 q 138 522 138 467 q 164 621 138 576 q 244 693 190 665 q 378 721 299 721 q 478 704 433 721 q 554 663 522 688 q 603 611 586 638 q 615 582 614 594 q 593 553 615 569 q 562 540 575 539 q 533 553 549 540 q 463 605 500 585 q 374 625 426 625 q 288 602 319 625 q 257 533 257 579 q 280 474 257 499 q 339 431 303 450 q 416 393 375 413 q 493 349 457 374 q 552 286 529 324 q 575 192 575 249 q 542 76 575 125 q 451 0 510 26 q 315 -26 393 -26 z "},"x":{"ha":742,"x_min":-10,"x_max":747,"o":"m 619 56 q 631 13 636 31 q 608 -12 625 -4 q 568 -21 590 -21 q 537 -13 550 -21 q 508 18 524 -6 l 357 260 l 128 13 q 97 -14 111 -7 q 63 -21 82 -21 q 8 2 26 -21 q 22 58 -10 25 l 300 353 l 119 639 q 109 681 106 664 q 129 708 113 699 q 167 717 146 717 q 203 710 189 717 q 232 678 217 703 l 383 435 l 618 682 q 649 709 636 701 q 681 717 663 717 q 723 706 706 717 q 744 678 740 696 q 728 640 747 661 l 442 340 l 619 56 z "},"z":{"ha":688,"x_min":19,"x_max":661,"o":"m 65 0 q 28 26 36 0 q 38 72 19 53 l 467 583 l 158 583 q 133 597 140 583 q 128 639 125 610 q 144 682 132 669 q 174 694 156 694 l 621 694 q 651 682 642 694 q 661 653 661 669 q 650 622 661 636 l 224 111 l 563 111 q 588 98 581 111 q 593 54 596 85 q 577 13 589 26 q 547 0 565 0 l 65 0 z "},"æ":{"ha":1242,"x_min":68,"x_max":1190,"o":"m 68 240 q 85 374 68 306 q 137 504 103 442 q 224 615 171 567 q 346 692 276 664 q 501 721 415 721 q 631 708 571 721 q 756 671 692 696 q 865 708 807 694 q 986 721 922 721 q 1135 676 1081 721 q 1190 550 1190 632 q 1165 456 1190 499 q 1093 379 1139 414 q 988 317 1047 344 q 859 269 928 290 q 719 235 790 249 q 722 222 721 228 q 726 210 724 215 q 751 143 733 171 q 799 100 769 115 q 868 85 828 85 q 953 103 917 85 q 1019 152 989 122 q 1076 217 1049 182 q 1113 233 1093 236 q 1149 214 1132 229 q 1170 183 1167 199 q 1158 149 1174 168 q 1063 47 1113 85 q 960 -9 1013 8 q 853 -26 908 -26 q 728 2 781 -26 q 644 81 675 31 q 601 194 613 131 q 594 215 597 204 q 590 238 592 226 q 476 81 531 138 q 372 0 422 24 q 274 -24 322 -24 q 122 49 175 -24 q 68 240 68 121 m 193 244 q 203 160 193 196 q 235 106 214 125 q 290 88 257 88 q 369 117 328 88 q 453 203 410 146 q 546 343 497 260 q 646 536 594 426 q 657 558 651 547 q 668 578 663 568 q 587 602 629 593 q 494 611 544 611 q 365 578 421 611 q 270 492 308 546 q 213 373 232 438 q 193 244 193 308 m 718 332 q 842 364 781 346 q 953 407 903 382 q 1035 465 1004 432 q 1065 538 1065 497 q 1038 594 1065 578 q 969 611 1011 611 q 878 602 922 611 q 793 571 835 593 q 744 456 763 514 q 718 332 725 397 z "},"ð":{"ha":838,"x_min":96,"x_max":803,"o":"m 381 -26 q 224 15 288 -26 q 128 128 161 56 q 96 296 96 201 q 121 449 96 374 q 192 587 146 525 q 303 685 238 649 q 451 721 369 721 q 533 713 493 721 q 611 689 574 704 q 578 816 599 754 q 528 937 557 878 q 463 1053 500 996 q 382 1165 426 1110 q 374 1199 369 1182 q 400 1232 379 1217 q 468 1219 440 1258 q 572 1080 526 1150 q 653 939 618 1010 q 713 794 689 868 q 748 642 736 719 q 760 479 760 564 q 731 267 760 361 q 650 108 701 174 q 530 8 599 42 q 381 -26 461 -26 m 388 85 q 484 110 439 85 q 563 185 529 135 q 615 311 596 236 q 635 486 635 386 q 633 530 635 508 q 628 571 632 551 q 540 600 585 590 q 450 610 496 610 q 353 583 396 610 q 281 510 310 556 q 236 410 251 464 q 221 301 221 356 q 240 187 221 236 q 297 111 260 138 q 388 85 335 85 m 393 856 q 364 857 378 849 q 340 890 350 865 q 341 922 335 910 q 363 939 347 933 l 743 1099 q 796 1068 781 1115 q 798 1035 803 1047 q 778 1017 793 1022 l 393 856 z "},"ĳ":{"ha":797,"x_min":90,"x_max":796,"o":"m 214 -22 q 117 28 143 -22 q 110 175 90 78 l 183 675 q 201 707 188 699 q 243 715 215 715 q 294 704 281 715 q 303 671 307 693 l 218 146 q 217 99 213 113 q 240 85 222 85 q 261 92 251 85 q 283 116 271 100 q 313 158 296 132 q 333 174 321 171 q 361 168 344 176 q 389 145 382 158 q 389 118 396 132 q 339 41 365 72 q 281 -6 313 10 q 214 -22 250 -22 m 283 929 q 231 949 250 929 q 211 1008 211 969 q 233 1076 211 1049 q 300 1104 254 1104 q 353 1085 333 1104 q 372 1025 372 1065 q 351 957 374 985 q 283 929 329 929 m 372 -547 q 278 -522 322 -547 q 207 -454 235 -496 q 197 -417 193 -435 q 221 -385 200 -399 q 260 -369 243 -368 q 290 -386 278 -369 q 333 -428 313 -412 q 375 -443 353 -443 q 417 -416 404 -443 q 442 -331 429 -389 l 601 675 q 621 707 607 699 q 663 715 635 715 q 713 704 699 715 q 721 671 726 693 l 557 -343 q 516 -470 543 -426 q 452 -531 489 -514 q 372 -547 415 -547 m 708 929 q 656 949 675 929 q 636 1008 636 969 q 658 1076 636 1049 q 725 1104 679 1104 q 778 1085 758 1104 q 797 1025 797 1065 q 776 957 797 985 q 708 929 754 929 z "},"ŋ":{"ha":851,"x_min":74,"x_max":757,"o":"m 643 -151 q 601 -277 628 -233 q 538 -337 574 -321 q 458 -354 501 -354 q 365 -328 408 -354 q 293 -261 321 -303 q 282 -224 279 -242 q 307 -192 285 -207 q 346 -176 329 -175 q 376 -193 363 -176 q 419 -235 399 -219 q 461 -250 439 -250 q 503 -223 490 -250 q 526 -137 515 -196 l 628 489 q 631 552 633 525 q 612 595 628 579 q 560 611 596 611 q 463 574 511 611 q 367 467 414 536 q 278 303 319 399 q 204 90 238 207 l 197 15 q 180 -12 194 -3 q 133 -21 165 -21 q 91 -11 108 -21 q 79 21 74 -1 l 183 675 q 201 707 188 699 q 243 715 215 715 q 294 704 281 715 q 303 671 307 693 l 267 443 q 341 570 301 518 q 422 656 381 622 q 506 706 464 690 q 590 721 549 721 q 688 696 649 721 q 742 618 728 671 q 743 479 757 565 l 643 -151 z "},"œ":{"ha":1251,"x_min":79,"x_max":1201,"o":"m 372 -26 q 216 13 282 -26 q 115 125 150 53 q 79 296 79 197 q 95 419 79 358 q 142 535 111 481 q 217 631 172 589 q 321 697 263 674 q 449 721 379 721 q 593 681 532 721 q 688 569 654 640 q 722 407 722 499 q 707 284 722 346 q 663 166 692 222 q 591 67 633 110 q 494 -1 549 24 q 372 -26 439 -26 m 379 85 q 477 113 433 85 q 551 187 521 140 q 598 289 582 233 q 614 400 614 344 q 592 511 614 464 q 533 584 571 558 q 442 610 494 610 q 342 583 386 610 q 266 510 297 556 q 219 410 235 464 q 203 301 203 356 q 225 188 203 236 q 287 112 247 139 q 379 85 326 85 m 863 -26 q 728 11 783 -26 q 646 116 674 49 q 618 269 618 183 q 643 432 618 351 q 717 578 668 513 q 836 682 765 643 q 997 721 907 721 q 1106 701 1060 721 q 1176 643 1151 681 q 1201 550 1201 606 q 1171 449 1201 494 q 1088 367 1140 403 q 967 303 1035 331 q 826 258 900 276 q 681 226 753 239 l 682 324 q 783 345 729 332 q 890 376 838 358 q 983 418 942 394 q 1050 472 1025 442 q 1075 538 1075 501 q 1048 594 1075 578 q 981 611 1021 611 q 876 583 924 611 q 794 508 828 556 q 742 403 761 461 q 724 283 724 344 q 741 176 724 221 q 793 108 758 132 q 878 85 828 85 q 963 103 926 85 q 1028 152 999 122 q 1086 217 1058 182 q 1123 233 1103 236 q 1160 214 1143 229 q 1180 183 1176 199 q 1169 149 1183 168 q 1073 47 1122 85 q 972 -9 1024 8 q 863 -26 919 -26 z "},"þ":{"ha":831,"x_min":-1,"x_max":763,"o":"m 58 -542 q 15 -531 32 -542 q 3 -500 -1 -521 l 276 1196 q 294 1228 281 1219 q 338 1236 308 1236 q 388 1225 374 1236 q 396 1192 401 1214 l 283 492 q 374 622 326 572 q 470 697 421 672 q 569 721 519 721 q 710 649 658 721 q 763 451 763 578 q 746 315 763 383 q 697 187 729 247 q 617 79 664 126 q 508 4 569 32 q 371 -24 446 -24 q 290 -12 331 -24 q 208 21 249 0 l 122 -506 q 104 -533 119 -524 q 58 -542 89 -542 m 222 121 q 304 92 265 100 q 375 83 343 83 q 466 103 425 83 q 539 159 507 124 q 592 241 571 194 q 626 338 614 288 q 638 440 638 389 q 627 526 638 488 q 595 587 617 564 q 539 610 574 610 q 437 568 489 610 q 334 438 385 526 q 235 213 283 350 l 222 121 z "},"ß":{"ha":972,"x_min":36,"x_max":931,"o":"m 97 -542 q 53 -532 69 -542 q 40 -500 36 -522 l 265 835 q 333 1050 282 958 q 466 1192 385 1142 q 653 1242 547 1242 q 772 1224 721 1242 q 859 1172 824 1206 q 913 1089 894 1138 q 931 981 931 1040 q 922 910 931 944 q 897 844 914 876 q 856 785 879 813 q 801 735 832 758 q 733 697 769 713 q 657 672 697 681 q 786 606 736 651 q 860 498 836 560 q 883 367 883 436 q 859 215 883 286 q 787 90 835 144 q 670 5 739 36 q 511 -26 601 -26 q 409 -15 451 -26 q 338 13 367 -4 q 319 41 322 22 q 328 82 317 60 q 351 110 339 104 q 379 110 364 115 q 441 92 410 100 q 513 85 472 85 q 620 106 574 85 q 699 166 667 128 q 747 254 731 204 q 764 363 764 304 q 738 489 764 431 q 658 582 711 547 q 518 617 604 617 l 507 617 q 481 634 485 617 q 481 678 476 651 q 492 715 483 703 q 521 728 500 728 l 540 728 q 616 737 581 728 q 682 763 651 746 q 737 802 713 779 q 778 853 761 825 q 803 911 794 881 q 813 975 813 942 q 794 1057 813 1022 q 740 1111 776 1092 q 649 1131 704 1131 q 520 1092 575 1131 q 431 985 465 1054 q 383 821 396 915 l 160 -506 q 142 -533 157 -524 q 97 -542 126 -542 z "},"$":{"ha":928,"x_min":46,"x_max":906,"o":"m 431 -26 q 317 -12 371 -26 q 214 28 263 3 q 126 87 165 53 q 57 160 86 121 q 50 190 46 176 q 71 219 54 204 q 105 241 92 238 q 139 225 118 244 q 211 163 169 193 q 308 112 253 132 q 431 92 363 92 q 547 106 494 92 q 636 147 599 119 q 694 219 674 175 q 714 321 714 263 q 699 398 714 364 q 657 459 685 432 q 589 510 629 486 q 497 557 549 533 q 405 603 450 578 q 321 660 360 629 q 253 729 282 690 q 207 817 224 768 q 190 929 190 867 q 217 1055 190 999 q 295 1152 244 1111 q 416 1215 346 1193 q 572 1236 486 1236 q 699 1217 643 1236 q 803 1167 756 1199 q 890 1094 850 1135 q 903 1065 906 1081 q 882 1035 900 1050 q 851 1013 867 1018 q 819 1019 835 1008 q 751 1071 786 1049 q 674 1106 717 1093 q 572 1118 632 1118 q 467 1106 514 1118 q 387 1071 419 1094 q 336 1012 354 1047 q 318 929 318 976 q 332 842 318 879 q 374 776 346 806 q 446 722 403 747 q 546 672 489 697 q 659 614 606 646 q 753 540 713 582 q 818 445 794 499 q 842 321 842 392 q 812 176 842 240 q 727 67 782 111 q 597 -2 672 22 q 431 -26 521 -26 m 371 -208 q 321 -169 315 -208 l 576 1401 q 639 1439 583 1439 q 688 1401 694 1439 l 432 -169 q 371 -208 426 -208 z "},"€":{"ha":1076,"x_min":64,"x_max":1089,"o":"m 593 -26 q 420 15 494 -26 q 296 130 346 57 q 221 300 246 203 q 196 510 196 397 q 214 686 196 599 q 267 855 232 774 q 352 1006 301 936 q 466 1127 403 1075 q 605 1208 529 1179 q 765 1236 681 1236 q 886 1219 829 1236 q 992 1169 943 1203 q 1076 1081 1040 1135 q 1085 1051 1089 1065 q 1060 1022 1081 1038 q 1025 1007 1040 1007 q 997 1021 1010 1007 q 928 1075 965 1053 q 850 1108 892 1097 q 760 1119 808 1119 q 639 1095 696 1119 q 533 1028 582 1071 q 444 926 483 985 q 378 799 406 868 q 335 658 350 731 q 321 511 321 585 q 340 336 321 414 q 394 203 358 258 q 481 119 429 149 q 600 90 533 90 q 687 100 644 90 q 769 128 729 110 q 844 172 808 147 q 910 229 879 197 q 940 243 925 243 q 974 229 956 243 q 997 200 993 214 q 988 168 1001 186 q 868 60 933 103 q 733 -5 803 17 q 593 -26 663 -26 m 132 671 q 105 682 111 671 q 103 724 99 693 q 119 767 108 756 q 150 778 129 778 l 851 778 q 879 767 872 778 q 881 724 886 756 q 865 682 876 693 q 833 671 854 671 l 132 671 m 99 463 q 71 474 78 463 q 69 515 64 485 q 85 558 75 547 q 115 569 94 569 l 817 569 q 845 558 838 569 q 847 515 853 547 q 831 474 842 485 q 800 463 821 463 l 99 463 z "},"¢":{"ha":736,"x_min":71,"x_max":701,"o":"m 344 -26 q 195 12 257 -26 q 102 119 133 50 q 71 276 71 188 q 87 407 71 343 q 135 528 103 471 q 213 628 167 585 q 318 696 258 671 q 449 721 378 721 q 536 710 494 721 q 615 675 578 699 q 683 614 653 651 q 697 576 701 593 q 676 544 692 560 q 641 525 658 528 q 606 540 624 522 q 561 576 585 560 q 509 601 538 592 q 442 610 481 610 q 354 592 393 610 q 285 541 315 574 q 235 467 256 508 q 205 378 215 425 q 194 283 194 331 q 213 177 194 221 q 267 110 231 133 q 357 85 303 86 q 445 104 407 85 q 515 155 483 124 q 574 219 546 186 q 610 236 590 240 q 646 217 629 232 q 667 186 664 201 q 656 151 671 171 q 560 49 610 88 q 456 -8 510 10 q 344 -26 403 -26 m 293 -208 q 243 -169 238 -208 l 415 886 q 476 924 422 924 q 526 886 533 924 l 354 -169 q 293 -208 349 -208 z "},"£":{"ha":938,"x_min":-1,"x_max":983,"o":"m 32 0 q 3 15 8 0 q 3 60 -1 31 q 19 101 8 90 q 50 111 31 111 l 221 111 l 279 471 l 139 471 q 112 483 118 471 q 110 525 106 494 q 126 567 115 557 q 157 578 136 578 l 297 578 l 357 935 q 411 1097 374 1029 q 513 1200 449 1164 q 669 1236 578 1236 q 841 1203 761 1236 q 965 1124 921 1171 q 982 1090 981 1108 q 961 1051 983 1071 q 923 1032 940 1032 q 883 1049 906 1032 q 779 1104 836 1085 q 668 1124 722 1124 q 537 1074 581 1124 q 476 925 493 1025 l 418 578 l 707 578 q 734 567 728 578 q 736 525 740 557 q 720 483 731 494 q 689 471 710 471 l 400 471 l 342 111 l 842 111 q 869 100 861 111 q 871 60 876 89 q 857 15 867 31 q 824 0 847 0 l 32 0 z "},"¥":{"ha":928,"x_min":99,"x_max":1024,"o":"m 403 -19 q 347 19 342 -19 l 390 278 l 132 278 q 105 290 111 278 q 103 332 99 301 q 119 375 108 364 q 150 386 129 386 l 407 386 l 424 486 l 165 486 q 138 498 144 486 q 136 540 132 510 q 152 583 142 572 q 183 594 163 594 l 403 594 l 179 1168 q 183 1207 172 1190 q 226 1231 194 1224 q 270 1231 256 1238 q 293 1201 285 1225 l 508 656 l 888 1201 q 923 1231 906 1225 q 972 1231 940 1238 q 1013 1205 1003 1224 q 1007 1163 1024 1186 l 604 594 l 829 594 q 857 583 850 594 q 858 540 864 572 q 843 498 854 510 q 811 486 832 486 l 547 486 l 531 386 l 796 386 q 824 375 817 386 q 825 332 831 364 q 810 290 821 301 q 778 278 799 278 l 513 278 l 471 19 q 403 -19 465 -19 z "},"%":{"ha":1146,"x_min":104,"x_max":1106,"o":"m 357 701 q 242 732 292 701 q 165 816 193 763 q 138 936 138 869 q 150 1024 138 981 q 185 1105 163 1067 q 241 1173 208 1143 q 314 1219 274 1203 q 401 1236 354 1236 q 517 1206 468 1236 q 592 1125 565 1176 q 618 1007 618 1074 q 606 919 618 963 q 570 835 593 875 q 515 766 547 796 q 443 719 483 736 q 357 701 403 701 m 363 807 q 410 817 389 807 q 449 847 432 828 q 477 890 465 865 q 494 942 489 914 q 500 1001 500 971 q 472 1099 500 1068 q 397 1131 443 1131 q 347 1120 369 1131 q 308 1091 325 1110 q 278 1048 290 1072 q 261 996 267 1024 q 256 940 256 968 q 285 840 256 874 q 363 807 314 807 m 200 -12 q 172 -28 188 -28 q 135 -12 157 -28 q 108 17 111 4 q 117 46 104 29 l 1010 1222 q 1038 1238 1024 1238 q 1074 1222 1051 1239 q 1101 1194 1097 1207 q 1093 1165 1106 1182 l 200 -12 m 824 -26 q 709 4 758 -26 q 633 88 660 35 q 606 208 606 142 q 617 296 606 253 q 652 377 629 339 q 708 445 675 415 q 781 492 740 475 q 868 508 821 508 q 983 479 935 508 q 1059 398 1032 450 q 1086 279 1086 346 q 1074 191 1086 235 q 1038 108 1061 147 q 983 39 1015 69 q 910 -9 950 8 q 824 -26 869 -26 m 829 81 q 877 91 856 81 q 915 120 899 101 q 944 163 932 139 q 962 215 956 186 q 968 274 968 243 q 940 372 968 340 q 864 403 911 403 q 814 392 836 403 q 774 364 792 382 q 746 322 757 346 q 728 269 735 297 q 722 213 722 242 q 751 114 722 147 q 829 81 781 81 z "},".":{"ha":435,"x_min":82,"x_max":256,"o":"m 164 -47 q 102 -26 122 -47 q 82 35 82 -4 q 104 108 82 83 q 171 133 126 133 q 235 113 214 133 q 256 53 256 92 q 233 -22 256 4 q 164 -47 211 -47 z "},",":{"ha":435,"x_min":15,"x_max":240,"o":"m 65 -256 q 32 -242 49 -256 q 15 -212 15 -229 q 19 -199 15 -207 q 28 -182 22 -192 q 73 -101 57 -136 q 96 -27 89 -65 q 104 64 103 11 q 123 106 106 90 q 174 121 140 121 q 223 106 206 121 q 240 65 240 90 q 224 -36 240 18 q 178 -142 208 -90 q 106 -235 149 -194 q 87 -250 97 -244 q 65 -256 76 -256 z "},":":{"ha":435,"x_min":82,"x_max":349,"o":"m 164 -47 q 102 -26 122 -47 q 82 35 82 -4 q 104 108 82 83 q 171 133 126 133 q 235 113 214 133 q 256 53 256 92 q 233 -22 256 4 q 164 -47 211 -47 m 257 558 q 195 580 215 558 q 175 640 175 601 q 197 714 175 689 q 264 739 219 739 q 328 718 307 739 q 349 658 349 697 q 326 584 349 610 q 257 558 304 558 z "},";":{"ha":435,"x_min":25,"x_max":349,"o":"m 257 558 q 195 580 215 558 q 175 640 175 601 q 197 714 175 689 q 264 739 219 739 q 328 718 307 739 q 349 658 349 697 q 326 584 349 610 q 257 558 304 558 m 75 -256 q 42 -242 58 -256 q 25 -212 25 -229 q 28 -199 25 -207 q 38 -182 32 -192 q 83 -101 67 -136 q 106 -27 99 -65 q 114 64 113 11 q 133 106 115 90 q 183 121 150 121 q 233 106 215 121 q 250 65 250 90 q 234 -36 250 18 q 188 -142 218 -90 q 115 -235 158 -194 q 97 -250 107 -244 q 75 -256 86 -256 z "},"…":{"ha":1178,"x_min":82,"x_max":999,"o":"m 536 -47 q 474 -26 494 -47 q 454 35 454 -4 q 476 108 454 83 q 543 133 499 133 q 607 113 586 133 q 628 53 628 92 q 606 -22 628 4 q 536 -47 583 -47 m 907 -47 q 845 -26 865 -47 q 825 35 825 -4 q 847 108 825 83 q 914 133 869 133 q 978 113 957 133 q 999 53 999 92 q 976 -22 999 4 q 907 -47 954 -47 m 164 -47 q 102 -26 122 -47 q 82 35 82 -4 q 104 108 82 83 q 171 133 126 133 q 235 113 214 133 q 256 53 256 92 q 233 -22 256 4 q 164 -47 211 -47 z "},"!":{"ha":472,"x_min":114,"x_max":436,"o":"m 232 300 q 176 339 169 300 l 308 1199 q 328 1227 313 1218 q 375 1236 344 1236 q 431 1199 436 1236 l 299 339 q 278 310 296 319 q 232 300 261 300 m 188 -19 q 135 1 154 -19 q 115 61 115 21 q 136 129 114 101 q 204 157 158 157 q 256 137 236 157 q 275 76 275 117 q 256 8 278 36 q 188 -19 233 -19 z "},"¡":{"ha":472,"x_min":46,"x_max":367,"o":"m 107 -540 q 51 -503 46 -540 l 183 357 q 204 386 188 376 q 250 396 221 396 q 306 357 313 396 l 174 -503 q 154 -531 171 -521 q 107 -540 138 -540 m 278 539 q 225 560 244 539 q 206 619 206 581 q 227 688 206 661 q 294 715 249 715 q 347 696 326 715 q 367 636 367 676 q 345 567 367 596 q 278 539 324 539 z "},"?":{"ha":686,"x_min":131,"x_max":767,"o":"m 254 299 q 211 308 225 299 q 200 338 197 318 l 243 601 q 260 627 246 618 q 296 639 274 636 q 453 682 388 651 q 560 756 519 713 q 622 851 601 800 q 642 951 642 901 q 620 1044 642 1006 q 557 1104 599 1083 q 453 1125 515 1125 q 356 1108 400 1125 q 276 1067 311 1092 q 213 1019 240 1043 q 178 1010 196 1006 q 146 1032 161 1014 q 131 1067 131 1051 q 147 1099 131 1083 q 247 1174 196 1143 q 350 1221 297 1206 q 453 1236 403 1236 q 619 1202 549 1236 q 728 1104 689 1168 q 767 950 767 1040 q 738 810 767 875 q 653 691 708 744 q 523 599 599 638 q 353 539 447 560 l 322 338 q 302 308 319 318 q 254 299 285 299 m 217 -19 q 164 1 183 -19 q 144 61 144 21 q 166 129 144 101 q 232 157 188 157 q 285 137 265 157 q 304 76 304 117 q 283 8 304 36 q 217 -19 261 -19 z "},"¿":{"ha":686,"x_min":-79,"x_max":557,"o":"m 432 397 q 476 388 463 397 q 488 358 490 378 l 443 94 q 427 69 440 78 q 390 57 414 61 q 233 15 299 46 q 126 -60 168 -17 q 65 -154 85 -104 q 46 -254 46 -204 q 67 -347 46 -308 q 131 -408 89 -386 q 233 -429 172 -429 q 331 -412 288 -429 q 410 -370 375 -394 q 474 -324 446 -346 q 509 -312 492 -308 q 540 -336 526 -317 q 556 -370 556 -354 q 539 -401 557 -386 q 440 -477 492 -446 q 338 -524 389 -508 q 233 -540 286 -540 q 68 -506 139 -540 q -41 -408 -3 -472 q -79 -253 -79 -343 q -50 -112 -79 -178 q 33 6 -21 -47 q 164 98 88 60 q 333 157 240 136 l 365 358 q 385 388 368 378 q 432 397 401 397 m 471 715 q 524 696 504 715 q 543 636 543 676 q 522 567 543 596 q 454 539 500 539 q 402 560 422 539 q 382 619 382 581 q 404 688 382 661 q 471 715 426 715 z "},"'":{"ha":235,"x_min":171,"x_max":331,"o":"m 208 900 q 176 913 181 900 q 172 943 171 926 l 197 1222 q 215 1261 199 1244 q 268 1278 232 1278 q 318 1261 306 1278 q 325 1222 331 1244 l 260 943 q 245 913 256 926 q 208 900 235 900 z "},"\"":{"ha":456,"x_min":171,"x_max":551,"o":"m 208 900 q 176 913 181 900 q 172 943 171 926 l 197 1222 q 215 1261 199 1244 q 268 1278 232 1278 q 318 1261 306 1278 q 325 1222 331 1244 l 260 943 q 245 913 256 926 q 208 900 235 900 m 429 900 q 397 913 401 900 q 393 943 392 926 l 418 1222 q 436 1261 419 1244 q 489 1278 453 1278 q 539 1261 526 1278 q 546 1222 551 1244 l 481 943 q 466 913 476 926 q 429 900 456 900 z "},"‘":{"ha":297,"x_min":165,"x_max":390,"o":"m 232 901 q 183 917 200 901 q 165 957 165 933 q 174 1033 165 993 q 201 1113 183 1072 q 243 1190 218 1153 q 299 1258 268 1228 q 318 1272 308 1267 q 339 1278 328 1278 q 374 1265 357 1278 q 390 1236 390 1253 q 387 1222 390 1231 q 378 1204 383 1214 q 332 1124 349 1160 q 308 1050 315 1088 q 301 958 301 1013 q 282 917 300 932 q 232 901 264 901 z "},"’":{"ha":301,"x_min":149,"x_max":374,"o":"m 307 1278 q 356 1263 339 1278 q 374 1222 374 1247 q 365 1148 374 1188 q 338 1067 356 1108 q 296 989 321 1026 q 239 921 271 951 q 221 908 231 914 q 199 901 211 901 q 165 915 182 901 q 149 944 149 928 q 152 958 149 950 q 161 975 156 965 q 206 1056 190 1021 q 229 1131 222 1092 q 238 1222 236 1169 q 256 1263 238 1249 q 307 1278 275 1278 z "},"‚":{"ha":301,"x_min":-33,"x_max":190,"o":"m 17 -256 q -17 -242 0 -256 q -33 -212 -33 -229 q -30 -199 -33 -207 q -21 -182 -26 -192 q 24 -101 8 -136 q 47 -27 40 -65 q 56 64 54 11 q 74 106 57 90 q 125 121 92 121 q 174 106 157 121 q 192 65 192 90 q 176 -36 192 18 q 130 -142 160 -90 q 57 -235 100 -194 q 38 -250 49 -244 q 17 -256 28 -256 z "},"“":{"ha":540,"x_min":165,"x_max":633,"o":"m 232 901 q 183 917 200 901 q 165 957 165 933 q 174 1033 165 993 q 201 1113 183 1072 q 243 1190 218 1153 q 299 1258 268 1228 q 318 1272 308 1267 q 339 1278 328 1278 q 374 1265 357 1278 q 390 1236 390 1253 q 387 1222 390 1231 q 378 1204 383 1214 q 332 1124 349 1160 q 308 1050 315 1088 q 301 958 301 1013 q 282 917 300 932 q 232 901 264 901 m 475 901 q 426 917 443 901 q 408 957 408 933 q 417 1033 408 993 q 444 1113 426 1072 q 486 1190 461 1153 q 542 1258 511 1228 q 561 1272 551 1267 q 582 1278 571 1278 q 617 1265 600 1278 q 633 1236 633 1253 q 630 1222 633 1231 q 621 1204 626 1214 q 575 1124 592 1160 q 551 1050 558 1088 q 544 958 544 1013 q 525 917 543 932 q 475 901 507 901 z "},"”":{"ha":544,"x_min":149,"x_max":617,"o":"m 550 1278 q 599 1263 582 1278 q 617 1222 617 1247 q 608 1148 617 1188 q 581 1067 599 1108 q 539 989 564 1026 q 482 921 514 951 q 464 908 474 914 q 442 901 454 901 q 408 915 425 901 q 392 944 392 928 q 395 958 392 950 q 404 975 399 965 q 449 1056 433 1021 q 472 1131 465 1092 q 481 1222 479 1169 q 499 1263 481 1249 q 550 1278 518 1278 m 307 1278 q 356 1263 339 1278 q 374 1222 374 1247 q 365 1148 374 1188 q 338 1067 356 1108 q 296 989 321 1026 q 239 921 271 951 q 221 908 231 914 q 199 901 211 901 q 165 915 182 901 q 149 944 149 928 q 152 958 149 950 q 161 975 156 965 q 206 1056 190 1021 q 229 1131 222 1092 q 238 1222 236 1169 q 256 1263 238 1249 q 307 1278 275 1278 z "},"„":{"ha":544,"x_min":-33,"x_max":433,"o":"m 260 -256 q 226 -242 243 -256 q 210 -212 210 -229 q 213 -199 210 -207 q 222 -182 217 -192 q 267 -101 251 -136 q 290 -27 283 -65 q 299 64 297 11 q 317 106 300 90 q 368 121 335 121 q 417 106 400 121 q 435 65 435 90 q 419 -36 435 18 q 373 -142 403 -90 q 300 -235 343 -194 q 281 -250 292 -244 q 260 -256 271 -256 m 17 -256 q -17 -242 0 -256 q -33 -212 -33 -229 q -30 -199 -33 -207 q -21 -182 -26 -192 q 24 -101 8 -136 q 47 -27 40 -65 q 56 64 54 11 q 74 106 57 90 q 125 121 92 121 q 174 106 157 121 q 192 65 192 90 q 176 -36 192 18 q 130 -142 160 -90 q 57 -235 100 -194 q 38 -250 49 -244 q 17 -256 28 -256 z "},"«":{"ha":1007,"x_min":131,"x_max":932,"o":"m 399 -19 q 361 -11 378 -19 q 331 19 344 -3 l 156 297 q 135 328 140 318 q 131 346 131 339 q 140 367 131 356 q 172 401 150 378 l 438 678 q 478 708 460 700 q 518 715 497 715 q 561 703 544 715 q 581 675 578 692 q 568 640 585 658 l 274 336 l 451 56 q 453 4 469 28 q 399 -19 436 -19 m 746 -19 q 708 -11 725 -19 q 678 19 692 -3 l 503 297 q 483 328 488 318 q 478 346 478 339 q 488 367 478 356 q 519 401 497 378 l 785 678 q 826 708 807 700 q 865 715 844 715 q 908 703 892 715 q 928 675 925 692 q 915 640 932 658 l 621 336 l 799 56 q 800 4 817 28 q 746 -19 783 -19 z "},"»":{"ha":1007,"x_min":76,"x_max":878,"o":"m 142 -19 q 99 -8 117 -19 q 79 22 82 4 q 93 56 76 39 l 386 361 l 210 640 q 208 692 192 669 q 261 715 224 715 q 299 708 282 715 q 331 676 317 700 l 506 400 q 526 369 521 379 q 531 351 531 358 q 522 331 531 343 q 489 296 513 319 l 222 19 q 183 -11 203 -3 q 142 -19 163 -19 m 489 -19 q 447 -8 464 -19 q 426 22 429 4 q 440 56 424 39 l 733 361 l 557 640 q 555 692 539 669 q 608 715 571 715 q 647 708 629 715 q 678 676 664 700 l 853 400 q 873 369 868 379 q 878 351 878 358 q 869 331 878 343 q 836 296 860 319 l 569 19 q 530 -11 550 -3 q 489 -19 510 -19 z "},"‹":{"ha":660,"x_min":131,"x_max":585,"o":"m 399 -19 q 361 -11 378 -19 q 331 19 344 -3 l 156 297 q 135 328 140 318 q 131 346 131 339 q 140 367 131 356 q 172 401 150 378 l 438 678 q 478 708 460 700 q 518 715 497 715 q 561 703 544 715 q 581 675 578 692 q 568 640 585 658 l 274 336 l 451 56 q 453 4 469 28 q 399 -19 436 -19 z "},"›":{"ha":660,"x_min":76,"x_max":531,"o":"m 142 -19 q 99 -8 117 -19 q 79 22 82 4 q 93 56 76 39 l 386 361 l 210 640 q 208 692 192 669 q 261 715 224 715 q 299 708 282 715 q 331 676 317 700 l 506 400 q 526 369 521 379 q 531 351 531 358 q 522 331 531 343 q 489 296 513 319 l 222 19 q 183 -11 203 -3 q 142 -19 163 -19 z "},"Á":{"ha":1044,"x_min":-32,"x_max":969,"o":"m 29 -19 q -19 0 -7 -19 q -17 49 -32 19 l 569 1181 q 604 1224 586 1213 q 657 1236 622 1236 q 702 1224 686 1236 q 724 1174 718 1211 l 963 43 q 953 -2 969 15 q 901 -19 938 -19 q 860 -8 871 -19 q 842 32 849 4 l 785 322 l 258 322 l 107 35 q 76 -8 90 3 q 29 -19 63 -19 m 317 433 l 761 433 l 629 1047 l 317 433 m 589 1293 q 556 1313 575 1293 q 538 1346 538 1332 q 539 1356 538 1351 q 549 1369 540 1361 l 747 1568 q 760 1579 754 1575 q 774 1583 765 1583 q 806 1571 788 1583 q 837 1542 824 1558 q 850 1511 850 1525 q 847 1494 850 1501 q 828 1476 843 1488 l 615 1307 q 601 1297 607 1301 q 589 1293 594 1293 z "},"Ă":{"ha":1044,"x_min":-32,"x_max":969,"o":"m 29 -19 q -19 0 -7 -19 q -17 49 -32 19 l 569 1181 q 604 1224 586 1213 q 657 1236 622 1236 q 702 1224 686 1236 q 724 1174 718 1211 l 963 43 q 953 -2 969 15 q 901 -19 938 -19 q 860 -8 871 -19 q 842 32 849 4 l 785 322 l 258 322 l 107 35 q 76 -8 90 3 q 29 -19 63 -19 m 317 433 l 761 433 l 629 1047 l 317 433 m 658 1293 q 495 1355 554 1293 q 438 1543 436 1417 q 452 1572 439 1561 q 489 1582 465 1582 q 521 1572 510 1582 q 535 1543 532 1561 q 578 1445 543 1476 q 668 1414 613 1414 q 772 1448 731 1414 q 835 1542 814 1482 q 853 1573 843 1564 q 883 1582 863 1582 q 922 1569 908 1582 q 932 1539 936 1557 q 877 1397 914 1451 q 785 1318 840 1343 q 658 1293 731 1293 z "},"Ǎ":{"ha":1044,"x_min":-32,"x_max":969,"o":"m 29 -19 q -19 0 -7 -19 q -17 49 -32 19 l 569 1181 q 604 1224 586 1213 q 657 1236 622 1236 q 702 1224 686 1236 q 724 1174 718 1211 l 963 43 q 953 -2 969 15 q 901 -19 938 -19 q 860 -8 871 -19 q 842 32 849 4 l 785 322 l 258 322 l 107 35 q 76 -8 90 3 q 29 -19 63 -19 m 317 433 l 761 433 l 629 1047 l 317 433 m 890 1583 q 921 1567 906 1583 q 936 1535 936 1550 q 934 1520 936 1526 q 925 1507 932 1514 l 719 1324 q 689 1302 704 1311 q 649 1293 674 1293 q 613 1303 626 1293 q 590 1326 600 1313 l 433 1513 q 425 1528 426 1522 q 424 1539 424 1535 q 443 1569 424 1556 q 475 1583 463 1583 q 494 1577 488 1583 q 511 1564 501 1571 l 663 1433 l 853 1564 q 872 1577 864 1571 q 890 1583 879 1583 z "},"Â":{"ha":1044,"x_min":-32,"x_max":969,"o":"m 29 -19 q -19 0 -7 -19 q -17 49 -32 19 l 569 1181 q 604 1224 586 1213 q 657 1236 622 1236 q 702 1224 686 1236 q 724 1174 718 1211 l 963 43 q 953 -2 969 15 q 901 -19 938 -19 q 860 -8 871 -19 q 842 32 849 4 l 785 322 l 258 322 l 107 35 q 76 -8 90 3 q 29 -19 63 -19 m 317 433 l 761 433 l 629 1047 l 317 433 m 450 1293 q 421 1310 436 1293 q 406 1342 406 1326 q 408 1356 406 1350 q 418 1369 411 1363 l 622 1553 q 653 1575 638 1567 q 693 1583 669 1583 q 728 1574 715 1583 q 753 1551 742 1565 l 910 1364 q 917 1349 917 1356 q 918 1338 918 1343 q 901 1308 918 1322 q 869 1293 883 1293 q 849 1299 858 1293 q 831 1314 840 1306 l 681 1443 l 489 1310 q 470 1298 479 1303 q 450 1293 461 1293 z "},"Ä":{"ha":1044,"x_min":-32,"x_max":969,"o":"m 29 -19 q -19 0 -7 -19 q -17 49 -32 19 l 569 1181 q 604 1224 586 1213 q 657 1236 622 1236 q 702 1224 686 1236 q 724 1174 718 1211 l 963 43 q 953 -2 969 15 q 901 -19 938 -19 q 860 -8 871 -19 q 842 32 849 4 l 785 322 l 258 322 l 107 35 q 76 -8 90 3 q 29 -19 63 -19 m 317 433 l 761 433 l 629 1047 l 317 433 m 493 1338 q 439 1357 458 1338 q 419 1417 419 1376 q 442 1485 419 1457 q 510 1513 464 1513 q 562 1492 543 1513 q 581 1433 581 1472 q 560 1365 582 1392 q 493 1338 539 1338 m 829 1338 q 776 1357 796 1338 q 757 1417 757 1376 q 779 1485 757 1457 q 846 1513 801 1513 q 899 1492 879 1513 q 918 1433 918 1472 q 897 1365 919 1392 q 829 1338 875 1338 z "},"Ǽ":{"ha":1339,"x_min":-35,"x_max":1419,"o":"m 1194 0 l 674 0 q 626 13 642 0 q 617 56 611 26 l 696 553 l 433 553 l 86 3 q 55 -19 75 -15 q 7 -15 35 -24 q -26 12 -17 -6 q -22 49 -35 29 l 693 1169 q 724 1206 708 1197 q 772 1215 740 1215 l 1388 1215 q 1413 1203 1406 1215 q 1417 1160 1419 1190 q 1401 1118 1413 1132 q 1372 1104 1390 1104 l 908 1104 l 838 664 l 1211 664 q 1237 651 1229 664 q 1240 608 1244 639 q 1225 566 1236 579 q 1196 553 1214 553 l 819 553 l 749 111 l 1210 111 q 1235 99 1228 111 q 1238 56 1242 86 q 1224 14 1235 28 q 1194 0 1213 0 m 504 664 l 714 664 l 786 1110 l 504 664 m 1013 1293 q 980 1313 999 1293 q 961 1346 961 1332 q 963 1356 961 1351 q 972 1369 964 1361 l 1171 1568 q 1183 1579 1178 1575 q 1197 1583 1189 1583 q 1229 1571 1211 1583 q 1260 1542 1247 1558 q 1274 1511 1274 1525 q 1270 1494 1274 1501 q 1251 1476 1267 1488 l 1039 1307 q 1024 1297 1031 1301 q 1013 1293 1018 1293 z "},"À":{"ha":1044,"x_min":-32,"x_max":969,"o":"m 29 -19 q -19 0 -7 -19 q -17 49 -32 19 l 569 1181 q 604 1224 586 1213 q 657 1236 622 1236 q 702 1224 686 1236 q 724 1174 718 1211 l 963 43 q 953 -2 969 15 q 901 -19 938 -19 q 860 -8 871 -19 q 842 32 849 4 l 785 322 l 258 322 l 107 35 q 76 -8 90 3 q 29 -19 63 -19 m 317 433 l 761 433 l 629 1047 l 317 433 m 719 1293 q 708 1297 715 1293 q 694 1307 701 1301 l 499 1478 q 481 1496 485 1489 q 478 1513 478 1503 q 491 1543 478 1526 q 522 1572 504 1560 q 554 1583 540 1583 q 569 1579 563 1583 q 581 1568 575 1575 l 761 1369 q 772 1355 771 1360 q 774 1346 774 1350 q 754 1313 774 1332 q 719 1293 735 1293 z "},"Ā":{"ha":1044,"x_min":-32,"x_max":969,"o":"m 29 -19 q -19 0 -7 -19 q -17 49 -32 19 l 569 1181 q 604 1224 586 1213 q 657 1236 622 1236 q 702 1224 686 1236 q 724 1174 718 1211 l 963 43 q 953 -2 969 15 q 901 -19 938 -19 q 860 -8 871 -19 q 842 32 849 4 l 785 322 l 258 322 l 107 35 q 76 -8 90 3 q 29 -19 63 -19 m 317 433 l 761 433 l 629 1047 l 317 433 m 481 1379 q 449 1395 456 1379 q 446 1436 442 1411 q 458 1481 449 1465 q 493 1497 468 1497 l 861 1497 q 894 1480 888 1497 q 896 1436 900 1463 q 883 1394 893 1410 q 849 1379 874 1379 l 481 1379 z "},"Ą":{"ha":1044,"x_min":-32,"x_max":969,"o":"m 29 -19 q -19 0 -7 -19 q -17 49 -32 19 l 569 1181 q 604 1224 586 1213 q 657 1236 622 1236 q 702 1224 686 1236 q 724 1174 718 1211 l 963 43 q 953 -2 969 15 q 901 -19 938 -19 q 860 -8 871 -19 q 842 32 849 4 l 785 322 l 258 322 l 107 35 q 76 -8 90 3 q 29 -19 63 -19 m 317 433 l 761 433 l 629 1047 l 317 433 m 743 -358 q 669 -333 697 -358 q 642 -262 642 -307 q 657 -196 642 -229 q 702 -128 672 -162 q 775 -56 732 -93 q 874 26 818 -18 l 958 24 l 958 15 q 883 -53 918 -19 q 821 -118 847 -87 q 780 -174 794 -149 q 765 -221 765 -200 q 772 -244 765 -236 q 794 -253 779 -253 q 841 -235 818 -253 q 893 -187 864 -217 q 915 -178 901 -181 q 946 -187 929 -175 q 965 -214 960 -199 q 961 -243 969 -229 q 899 -305 938 -279 q 820 -344 861 -331 q 743 -358 779 -358 z "},"Å":{"ha":1044,"x_min":-32,"x_max":969,"o":"m 29 -19 q -19 0 -7 -19 q -17 49 -32 19 l 569 1181 q 604 1224 586 1213 q 657 1236 622 1236 q 702 1224 686 1236 q 724 1174 718 1211 l 963 43 q 953 -2 969 15 q 901 -19 938 -19 q 860 -8 871 -19 q 842 32 849 4 l 785 322 l 258 322 l 107 35 q 76 -8 90 3 q 29 -19 63 -19 m 317 433 l 761 433 l 629 1047 l 317 433 m 661 1282 q 566 1302 607 1282 q 503 1358 525 1322 q 481 1442 481 1394 q 508 1533 481 1492 q 581 1597 535 1574 q 686 1619 628 1619 q 783 1600 742 1619 q 847 1544 825 1581 q 869 1461 869 1508 q 842 1369 869 1410 q 768 1305 815 1328 q 661 1282 721 1282 m 665 1365 q 740 1392 710 1365 q 769 1460 769 1419 q 747 1515 769 1494 q 683 1536 724 1536 q 610 1509 640 1536 q 581 1443 581 1482 q 603 1387 581 1408 q 665 1365 626 1365 z "},"Ã":{"ha":1044,"x_min":-32,"x_max":969,"o":"m 29 -19 q -19 0 -7 -19 q -17 49 -32 19 l 569 1181 q 604 1224 586 1213 q 657 1236 622 1236 q 702 1224 686 1236 q 724 1174 718 1211 l 963 43 q 953 -2 969 15 q 901 -19 938 -19 q 860 -8 871 -19 q 842 32 849 4 l 785 322 l 258 322 l 107 35 q 76 -8 90 3 q 29 -19 63 -19 m 317 433 l 761 433 l 629 1047 l 317 433 m 458 1332 q 414 1369 414 1332 q 450 1505 418 1464 q 542 1546 482 1546 q 619 1531 583 1546 q 688 1497 656 1517 q 748 1464 721 1478 q 796 1450 775 1450 q 820 1465 810 1450 q 835 1514 831 1481 q 886 1547 836 1547 q 922 1538 911 1547 q 931 1510 932 1529 q 897 1378 928 1424 q 801 1333 867 1333 q 722 1348 758 1333 q 653 1381 685 1363 q 597 1413 622 1399 q 547 1428 571 1428 q 522 1414 532 1428 q 510 1368 513 1400 q 495 1341 508 1350 q 458 1332 482 1332 z "},"Ắ":{"ha":1044,"x_min":-32,"x_max":969,"o":"m 29 -19 q -19 0 -7 -19 q -17 49 -32 19 l 569 1181 q 604 1224 586 1213 q 657 1236 622 1236 q 702 1224 686 1236 q 724 1174 718 1211 l 963 43 q 953 -2 969 15 q 901 -19 938 -19 q 860 -8 871 -19 q 842 32 849 4 l 785 322 l 258 322 l 107 35 q 76 -8 90 3 q 29 -19 63 -19 m 317 433 l 761 433 l 629 1047 l 317 433 m 658 1293 q 495 1355 554 1293 q 438 1543 436 1417 q 452 1572 439 1561 q 489 1582 465 1582 q 521 1572 510 1582 q 535 1543 532 1561 q 578 1445 543 1476 q 668 1414 613 1414 q 772 1448 731 1414 q 835 1542 814 1482 q 853 1573 843 1564 q 883 1582 863 1582 q 922 1569 908 1582 q 932 1539 936 1557 q 877 1397 914 1451 q 785 1318 840 1343 q 658 1293 731 1293 m 626 1560 q 594 1579 613 1560 q 575 1613 575 1599 q 576 1623 575 1618 q 586 1636 578 1628 l 785 1835 q 797 1846 792 1842 q 811 1850 803 1850 q 843 1838 825 1850 q 874 1808 861 1825 q 888 1778 888 1792 q 884 1761 888 1768 q 865 1743 881 1754 l 653 1574 q 638 1564 644 1568 q 626 1560 632 1560 z "},"Ặ":{"ha":1044,"x_min":-32,"x_max":969,"o":"m 29 -19 q -19 0 -7 -19 q -17 49 -32 19 l 569 1181 q 604 1224 586 1213 q 657 1236 622 1236 q 702 1224 686 1236 q 724 1174 718 1211 l 963 43 q 953 -2 969 15 q 901 -19 938 -19 q 860 -8 871 -19 q 842 32 849 4 l 785 322 l 258 322 l 107 35 q 76 -8 90 3 q 29 -19 63 -19 m 317 433 l 761 433 l 629 1047 l 317 433 m 418 -324 q 365 -304 385 -324 q 346 -244 346 -285 q 367 -176 346 -204 q 435 -149 389 -149 q 488 -169 468 -149 q 507 -228 507 -189 q 485 -297 507 -269 q 418 -324 463 -324 m 658 1293 q 495 1355 554 1293 q 438 1543 436 1417 q 452 1572 439 1561 q 489 1582 465 1582 q 521 1572 510 1582 q 535 1543 532 1561 q 578 1445 543 1476 q 668 1414 613 1414 q 772 1448 731 1414 q 835 1542 814 1482 q 853 1573 843 1564 q 883 1582 863 1582 q 922 1569 908 1582 q 932 1539 936 1557 q 877 1397 914 1451 q 785 1318 840 1343 q 658 1293 731 1293 z "},"Ằ":{"ha":1044,"x_min":-32,"x_max":969,"o":"m 29 -19 q -19 0 -7 -19 q -17 49 -32 19 l 569 1181 q 604 1224 586 1213 q 657 1236 622 1236 q 702 1224 686 1236 q 724 1174 718 1211 l 963 43 q 953 -2 969 15 q 901 -19 938 -19 q 860 -8 871 -19 q 842 32 849 4 l 785 322 l 258 322 l 107 35 q 76 -8 90 3 q 29 -19 63 -19 m 317 433 l 761 433 l 629 1047 l 317 433 m 658 1293 q 495 1355 554 1293 q 438 1543 436 1417 q 452 1572 439 1561 q 489 1582 465 1582 q 521 1572 510 1582 q 535 1543 532 1561 q 578 1445 543 1476 q 668 1414 613 1414 q 772 1448 731 1414 q 835 1542 814 1482 q 853 1573 843 1564 q 883 1582 863 1582 q 922 1569 908 1582 q 932 1539 936 1557 q 877 1397 914 1451 q 785 1318 840 1343 q 658 1293 731 1293 m 749 1556 q 737 1560 743 1556 q 722 1569 731 1564 l 526 1740 q 510 1758 514 1751 q 506 1775 506 1765 q 519 1806 506 1789 q 551 1834 533 1822 q 583 1846 569 1846 q 597 1842 590 1846 q 610 1831 603 1838 l 790 1632 q 800 1618 799 1622 q 801 1608 801 1614 q 783 1575 801 1594 q 749 1556 764 1556 z "},"Ẳ":{"ha":1044,"x_min":-32,"x_max":969,"o":"m 29 -19 q -19 0 -7 -19 q -17 49 -32 19 l 569 1181 q 604 1224 586 1213 q 657 1236 622 1236 q 702 1224 686 1236 q 724 1174 718 1211 l 963 43 q 953 -2 969 15 q 901 -19 938 -19 q 860 -8 871 -19 q 842 32 849 4 l 785 322 l 258 322 l 107 35 q 76 -8 90 3 q 29 -19 63 -19 m 317 433 l 761 433 l 629 1047 l 317 433 m 658 1293 q 495 1355 554 1293 q 438 1543 436 1417 q 452 1572 439 1561 q 489 1582 465 1582 q 521 1572 510 1582 q 535 1543 532 1561 q 578 1445 543 1476 q 668 1414 613 1414 q 772 1448 731 1414 q 835 1542 814 1482 q 853 1573 843 1564 q 883 1582 863 1582 q 922 1569 908 1582 q 932 1539 936 1557 q 877 1397 914 1451 q 785 1318 840 1343 q 658 1293 731 1293 m 715 1872 q 819 1842 781 1872 q 857 1760 857 1811 q 839 1693 857 1722 q 779 1635 821 1664 q 751 1608 760 1619 q 743 1582 743 1597 l 742 1567 q 729 1540 743 1550 q 697 1529 715 1531 q 665 1535 679 1528 q 646 1557 650 1542 l 638 1590 q 642 1649 631 1624 q 683 1694 654 1674 q 714 1722 704 1710 q 724 1746 724 1735 q 714 1764 724 1757 q 686 1771 704 1771 q 650 1765 669 1771 q 613 1751 631 1760 q 556 1775 578 1733 q 571 1833 539 1813 q 639 1862 603 1851 q 715 1872 675 1872 z "},"Ẵ":{"ha":1044,"x_min":-32,"x_max":969,"o":"m 29 -19 q -19 0 -7 -19 q -17 49 -32 19 l 569 1181 q 604 1224 586 1213 q 657 1236 622 1236 q 702 1224 686 1236 q 724 1174 718 1211 l 963 43 q 953 -2 969 15 q 901 -19 938 -19 q 860 -8 871 -19 q 842 32 849 4 l 785 322 l 258 322 l 107 35 q 76 -8 90 3 q 29 -19 63 -19 m 317 433 l 761 433 l 629 1047 l 317 433 m 658 1293 q 495 1355 554 1293 q 438 1543 436 1417 q 452 1572 439 1561 q 489 1582 465 1582 q 521 1572 510 1582 q 535 1543 532 1561 q 578 1445 543 1476 q 668 1414 613 1414 q 772 1448 731 1414 q 835 1542 814 1482 q 853 1573 843 1564 q 883 1582 863 1582 q 922 1569 908 1582 q 932 1539 936 1557 q 877 1397 914 1451 q 785 1318 840 1343 q 658 1293 731 1293 m 489 1626 q 444 1664 443 1626 q 481 1798 449 1757 q 572 1839 513 1839 q 649 1825 613 1839 q 718 1792 686 1811 q 777 1758 750 1772 q 826 1743 804 1743 q 851 1759 840 1743 q 864 1808 861 1775 q 917 1842 867 1842 q 951 1832 942 1842 q 961 1804 961 1822 q 927 1673 957 1718 q 832 1628 897 1628 q 751 1642 788 1628 q 683 1674 714 1656 q 626 1707 651 1693 q 578 1721 600 1721 q 552 1708 561 1721 q 539 1663 543 1694 q 524 1635 538 1644 q 489 1626 511 1626 z "},"Ấ":{"ha":1044,"x_min":-32,"x_max":1139,"o":"m 29 -19 q -19 0 -7 -19 q -17 49 -32 19 l 569 1181 q 604 1224 586 1213 q 657 1236 622 1236 q 702 1224 686 1236 q 724 1174 718 1211 l 963 43 q 953 -2 969 15 q 901 -19 938 -19 q 860 -8 871 -19 q 842 32 849 4 l 785 322 l 258 322 l 107 35 q 76 -8 90 3 q 29 -19 63 -19 m 317 433 l 761 433 l 629 1047 l 317 433 m 450 1293 q 421 1310 436 1293 q 406 1342 406 1326 q 408 1356 406 1350 q 418 1369 411 1363 l 622 1553 q 653 1575 638 1567 q 693 1583 669 1583 q 728 1574 715 1583 q 753 1551 742 1565 l 910 1364 q 917 1349 917 1356 q 918 1338 918 1343 q 901 1308 918 1322 q 869 1293 883 1293 q 849 1299 858 1293 q 831 1314 840 1306 l 681 1443 l 489 1310 q 470 1298 479 1303 q 450 1293 461 1293 m 899 1513 q 865 1532 885 1513 q 846 1565 846 1551 q 847 1575 846 1571 q 858 1589 849 1579 l 1036 1769 q 1049 1782 1044 1778 q 1063 1786 1054 1786 q 1094 1774 1076 1786 q 1126 1744 1113 1761 q 1139 1713 1139 1726 q 1136 1697 1139 1703 q 1118 1678 1133 1690 l 925 1526 q 910 1517 917 1521 q 899 1513 904 1513 z "},"Ậ":{"ha":1044,"x_min":-32,"x_max":969,"o":"m 29 -19 q -19 0 -7 -19 q -17 49 -32 19 l 569 1181 q 604 1224 586 1213 q 657 1236 622 1236 q 702 1224 686 1236 q 724 1174 718 1211 l 963 43 q 953 -2 969 15 q 901 -19 938 -19 q 860 -8 871 -19 q 842 32 849 4 l 785 322 l 258 322 l 107 35 q 76 -8 90 3 q 29 -19 63 -19 m 317 433 l 761 433 l 629 1047 l 317 433 m 418 -324 q 365 -304 385 -324 q 346 -244 346 -285 q 367 -176 346 -204 q 435 -149 389 -149 q 488 -169 468 -149 q 507 -228 507 -189 q 485 -297 507 -269 q 418 -324 463 -324 m 450 1293 q 421 1310 436 1293 q 406 1342 406 1326 q 408 1356 406 1350 q 418 1369 411 1363 l 622 1553 q 653 1575 638 1567 q 693 1583 669 1583 q 728 1574 715 1583 q 753 1551 742 1565 l 910 1364 q 917 1349 917 1356 q 918 1338 918 1343 q 901 1308 918 1322 q 869 1293 883 1293 q 849 1299 858 1293 q 831 1314 840 1306 l 681 1443 l 489 1310 q 470 1298 479 1303 q 450 1293 461 1293 z "},"Ầ":{"ha":1044,"x_min":-32,"x_max":1031,"o":"m 29 -19 q -19 0 -7 -19 q -17 49 -32 19 l 569 1181 q 604 1224 586 1213 q 657 1236 622 1236 q 702 1224 686 1236 q 724 1174 718 1211 l 963 43 q 953 -2 969 15 q 901 -19 938 -19 q 860 -8 871 -19 q 842 32 849 4 l 785 322 l 258 322 l 107 35 q 76 -8 90 3 q 29 -19 63 -19 m 317 433 l 761 433 l 629 1047 l 317 433 m 450 1293 q 421 1310 436 1293 q 406 1342 406 1326 q 408 1356 406 1350 q 418 1369 411 1363 l 622 1553 q 653 1575 638 1567 q 693 1583 669 1583 q 728 1574 715 1583 q 753 1551 742 1565 l 910 1364 q 917 1349 917 1356 q 918 1338 918 1343 q 901 1308 918 1322 q 869 1293 883 1293 q 849 1299 858 1293 q 831 1314 840 1306 l 681 1443 l 489 1310 q 470 1298 479 1303 q 450 1293 461 1293 m 976 1492 q 965 1495 971 1492 q 950 1506 958 1499 l 772 1690 q 756 1710 760 1704 q 751 1726 751 1717 q 765 1757 751 1740 q 797 1785 778 1774 q 831 1797 815 1797 q 844 1793 838 1797 q 858 1781 851 1789 l 1018 1569 q 1028 1553 1025 1558 q 1031 1543 1031 1549 q 1012 1510 1031 1529 q 976 1492 993 1492 z "},"Ẩ":{"ha":1044,"x_min":-32,"x_max":1094,"o":"m 29 -19 q -19 0 -7 -19 q -17 49 -32 19 l 569 1181 q 604 1224 586 1213 q 657 1236 622 1236 q 702 1224 686 1236 q 724 1174 718 1211 l 963 43 q 953 -2 969 15 q 901 -19 938 -19 q 860 -8 871 -19 q 842 32 849 4 l 785 322 l 258 322 l 107 35 q 76 -8 90 3 q 29 -19 63 -19 m 317 433 l 761 433 l 629 1047 l 317 433 m 450 1293 q 421 1310 436 1293 q 406 1342 406 1326 q 408 1356 406 1350 q 418 1369 411 1363 l 622 1553 q 653 1575 638 1567 q 693 1583 669 1583 q 728 1574 715 1583 q 753 1551 742 1565 l 910 1364 q 917 1349 917 1356 q 918 1338 918 1343 q 901 1308 918 1322 q 869 1293 883 1293 q 849 1299 858 1293 q 831 1314 840 1306 l 681 1443 l 489 1310 q 470 1298 479 1303 q 450 1293 461 1293 m 953 1811 q 1056 1781 1018 1811 q 1094 1699 1094 1751 q 1076 1633 1094 1663 q 1017 1574 1058 1603 q 989 1548 997 1560 q 981 1522 981 1536 l 979 1507 q 967 1481 981 1490 q 935 1469 953 1471 q 902 1474 917 1467 q 883 1496 888 1481 l 875 1531 q 880 1588 868 1563 q 921 1633 892 1613 q 951 1662 942 1649 q 961 1685 961 1675 q 951 1703 961 1696 q 924 1710 942 1710 q 888 1705 907 1710 q 850 1692 868 1700 q 793 1715 815 1672 q 808 1772 776 1751 q 876 1801 840 1790 q 953 1811 913 1811 z "},"Ẫ":{"ha":1044,"x_min":-32,"x_max":969,"o":"m 29 -19 q -19 0 -7 -19 q -17 49 -32 19 l 569 1181 q 604 1224 586 1213 q 657 1236 622 1236 q 702 1224 686 1236 q 724 1174 718 1211 l 963 43 q 953 -2 969 15 q 901 -19 938 -19 q 860 -8 871 -19 q 842 32 849 4 l 785 322 l 258 322 l 107 35 q 76 -8 90 3 q 29 -19 63 -19 m 317 433 l 761 433 l 629 1047 l 317 433 m 450 1293 q 421 1310 436 1293 q 406 1342 406 1326 q 408 1356 406 1350 q 418 1369 411 1363 l 622 1553 q 653 1575 638 1567 q 693 1583 669 1583 q 728 1574 715 1583 q 753 1551 742 1565 l 910 1364 q 917 1349 917 1356 q 918 1338 918 1343 q 901 1308 918 1322 q 869 1293 883 1293 q 849 1299 858 1293 q 831 1314 840 1306 l 681 1443 l 489 1310 q 470 1298 479 1303 q 450 1293 461 1293 m 490 1597 q 446 1635 446 1597 q 482 1769 450 1728 q 574 1810 514 1810 q 651 1796 615 1810 q 720 1763 688 1782 q 780 1728 753 1743 q 828 1714 807 1714 q 852 1730 842 1714 q 865 1779 863 1746 q 918 1813 868 1813 q 953 1803 943 1813 q 963 1775 964 1793 q 929 1644 960 1689 q 833 1599 899 1599 q 753 1613 789 1599 q 685 1645 717 1626 q 628 1678 654 1664 q 579 1692 603 1692 q 553 1678 563 1692 q 542 1633 544 1665 q 527 1606 540 1615 q 490 1597 514 1597 z "},"Ạ":{"ha":1044,"x_min":-32,"x_max":969,"o":"m 29 -19 q -19 0 -7 -19 q -17 49 -32 19 l 569 1181 q 604 1224 586 1213 q 657 1236 622 1236 q 702 1224 686 1236 q 724 1174 718 1211 l 963 43 q 953 -2 969 15 q 901 -19 938 -19 q 860 -8 871 -19 q 842 32 849 4 l 785 322 l 258 322 l 107 35 q 76 -8 90 3 q 29 -19 63 -19 m 317 433 l 761 433 l 629 1047 l 317 433 m 418 -324 q 365 -304 385 -324 q 346 -244 346 -285 q 367 -176 346 -204 q 435 -149 389 -149 q 488 -169 468 -149 q 507 -228 507 -189 q 485 -297 507 -269 q 418 -324 463 -324 z "},"Ả":{"ha":1044,"x_min":-32,"x_max":969,"o":"m 29 -19 q -19 0 -7 -19 q -17 49 -32 19 l 569 1181 q 604 1224 586 1213 q 657 1236 622 1236 q 702 1224 686 1236 q 724 1174 718 1211 l 963 43 q 953 -2 969 15 q 901 -19 938 -19 q 860 -8 871 -19 q 842 32 849 4 l 785 322 l 258 322 l 107 35 q 76 -8 90 3 q 29 -19 63 -19 m 317 433 l 761 433 l 629 1047 l 317 433 m 692 1622 q 795 1592 757 1622 q 833 1510 833 1563 q 815 1444 833 1474 q 757 1385 797 1414 q 728 1359 736 1371 q 721 1333 721 1347 l 719 1318 q 706 1292 719 1301 q 675 1280 693 1282 q 642 1285 657 1278 q 622 1307 626 1292 l 614 1342 q 619 1399 607 1374 q 660 1444 632 1424 q 692 1473 682 1460 q 701 1496 701 1486 q 691 1514 701 1507 q 663 1521 681 1521 q 627 1516 647 1521 q 589 1503 607 1511 q 532 1526 554 1483 q 549 1583 517 1563 q 616 1612 579 1601 q 692 1622 653 1622 z "},"Ć":{"ha":1078,"x_min":142,"x_max":1117,"o":"m 585 -26 q 401 11 482 -26 q 261 118 319 49 q 172 285 203 188 q 142 506 142 383 q 160 678 142 592 q 214 847 178 765 q 303 999 250 929 q 424 1123 356 1069 q 578 1206 493 1176 q 764 1236 664 1236 q 899 1222 836 1236 q 1014 1173 961 1207 q 1106 1082 1067 1139 q 1110 1053 1117 1065 q 1088 1028 1104 1042 q 1055 1009 1069 1013 q 1024 1021 1040 1006 q 952 1074 992 1053 q 864 1107 913 1096 q 754 1118 815 1118 q 619 1095 682 1118 q 502 1030 556 1072 q 406 931 449 988 q 334 806 364 874 q 288 665 304 739 q 272 517 272 592 q 294 331 272 411 q 357 199 315 251 q 458 119 399 146 q 594 92 518 92 q 699 110 650 92 q 790 158 747 128 q 872 228 833 189 q 947 313 911 268 q 977 326 961 331 q 1011 307 993 322 q 1035 277 1032 290 q 1025 246 1038 264 q 885 90 960 150 q 733 2 810 31 q 585 -26 657 -26 m 707 1293 q 674 1313 693 1293 q 656 1346 656 1332 q 657 1356 656 1351 q 667 1369 658 1361 l 865 1568 q 878 1579 872 1575 q 892 1583 883 1583 q 924 1571 906 1583 q 955 1542 942 1558 q 968 1511 968 1525 q 965 1494 968 1501 q 946 1476 961 1488 l 733 1307 q 719 1297 725 1301 q 707 1293 713 1293 z "},"Č":{"ha":1078,"x_min":142,"x_max":1117,"o":"m 585 -26 q 401 11 482 -26 q 261 118 319 49 q 172 285 203 188 q 142 506 142 383 q 160 678 142 592 q 214 847 178 765 q 303 999 250 929 q 424 1123 356 1069 q 578 1206 493 1176 q 764 1236 664 1236 q 899 1222 836 1236 q 1014 1173 961 1207 q 1106 1082 1067 1139 q 1110 1053 1117 1065 q 1088 1028 1104 1042 q 1055 1009 1069 1013 q 1024 1021 1040 1006 q 952 1074 992 1053 q 864 1107 913 1096 q 754 1118 815 1118 q 619 1095 682 1118 q 502 1030 556 1072 q 406 931 449 988 q 334 806 364 874 q 288 665 304 739 q 272 517 272 592 q 294 331 272 411 q 357 199 315 251 q 458 119 399 146 q 594 92 518 92 q 699 110 650 92 q 790 158 747 128 q 872 228 833 189 q 947 313 911 268 q 977 326 961 331 q 1011 307 993 322 q 1035 277 1032 290 q 1025 246 1038 264 q 885 90 960 150 q 733 2 810 31 q 585 -26 657 -26 m 1008 1583 q 1039 1567 1024 1583 q 1054 1535 1054 1550 q 1052 1520 1054 1526 q 1043 1507 1050 1514 l 838 1324 q 807 1302 822 1311 q 767 1293 792 1293 q 731 1303 744 1293 q 708 1326 718 1313 l 551 1513 q 543 1528 544 1522 q 542 1539 542 1535 q 561 1569 542 1556 q 593 1583 581 1583 q 613 1577 606 1583 q 629 1564 619 1571 l 781 1433 l 971 1564 q 990 1577 982 1571 q 1008 1583 997 1583 z "},"Ç":{"ha":1078,"x_min":142,"x_max":1117,"o":"m 585 -26 q 401 11 482 -26 q 261 118 319 49 q 172 285 203 188 q 142 506 142 383 q 160 678 142 592 q 214 847 178 765 q 303 999 250 929 q 424 1123 356 1069 q 578 1206 493 1176 q 764 1236 664 1236 q 899 1222 836 1236 q 1014 1173 961 1207 q 1106 1082 1067 1139 q 1110 1053 1117 1065 q 1088 1028 1104 1042 q 1055 1009 1069 1013 q 1024 1021 1040 1006 q 952 1074 992 1053 q 864 1107 913 1096 q 754 1118 815 1118 q 619 1095 682 1118 q 502 1030 556 1072 q 406 931 449 988 q 334 806 364 874 q 288 665 304 739 q 272 517 272 592 q 294 331 272 411 q 357 199 315 251 q 458 119 399 146 q 594 92 518 92 q 699 110 650 92 q 790 158 747 128 q 872 228 833 189 q 947 313 911 268 q 977 326 961 331 q 1011 307 993 322 q 1035 277 1032 290 q 1025 246 1038 264 q 885 90 960 150 q 733 2 810 31 q 585 -26 657 -26 m 503 -374 q 423 -365 465 -374 q 350 -335 381 -356 q 336 -307 336 -324 q 343 -276 336 -290 q 365 -252 353 -258 q 393 -253 376 -246 q 436 -269 410 -260 q 499 -278 463 -278 q 556 -267 538 -278 q 575 -229 575 -257 q 551 -192 575 -204 q 476 -187 526 -181 q 454 -185 461 -189 q 440 -172 447 -182 q 434 -153 433 -162 q 440 -135 435 -144 l 526 18 l 617 18 l 526 -146 l 485 -124 q 593 -110 547 -101 q 664 -148 639 -118 q 689 -222 689 -178 q 665 -304 689 -271 q 600 -356 642 -337 q 503 -374 558 -374 z "},"Ĉ":{"ha":1078,"x_min":142,"x_max":1117,"o":"m 585 -26 q 401 11 482 -26 q 261 118 319 49 q 172 285 203 188 q 142 506 142 383 q 160 678 142 592 q 214 847 178 765 q 303 999 250 929 q 424 1123 356 1069 q 578 1206 493 1176 q 764 1236 664 1236 q 899 1222 836 1236 q 1014 1173 961 1207 q 1106 1082 1067 1139 q 1110 1053 1117 1065 q 1088 1028 1104 1042 q 1055 1009 1069 1013 q 1024 1021 1040 1006 q 952 1074 992 1053 q 864 1107 913 1096 q 754 1118 815 1118 q 619 1095 682 1118 q 502 1030 556 1072 q 406 931 449 988 q 334 806 364 874 q 288 665 304 739 q 272 517 272 592 q 294 331 272 411 q 357 199 315 251 q 458 119 399 146 q 594 92 518 92 q 699 110 650 92 q 790 158 747 128 q 872 228 833 189 q 947 313 911 268 q 977 326 961 331 q 1011 307 993 322 q 1035 277 1032 290 q 1025 246 1038 264 q 885 90 960 150 q 733 2 810 31 q 585 -26 657 -26 m 568 1293 q 539 1310 554 1293 q 524 1342 524 1326 q 526 1356 524 1350 q 536 1369 529 1363 l 740 1553 q 772 1575 756 1567 q 811 1583 788 1583 q 847 1574 833 1583 q 871 1551 860 1565 l 1028 1364 q 1035 1349 1035 1356 q 1036 1338 1036 1343 q 1019 1308 1036 1322 q 988 1293 1001 1293 q 967 1299 976 1293 q 949 1314 958 1306 l 799 1443 l 607 1310 q 588 1298 597 1303 q 568 1293 579 1293 z "},"Ċ":{"ha":1078,"x_min":142,"x_max":1117,"o":"m 585 -26 q 401 11 482 -26 q 261 118 319 49 q 172 285 203 188 q 142 506 142 383 q 160 678 142 592 q 214 847 178 765 q 303 999 250 929 q 424 1123 356 1069 q 578 1206 493 1176 q 764 1236 664 1236 q 899 1222 836 1236 q 1014 1173 961 1207 q 1106 1082 1067 1139 q 1110 1053 1117 1065 q 1088 1028 1104 1042 q 1055 1009 1069 1013 q 1024 1021 1040 1006 q 952 1074 992 1053 q 864 1107 913 1096 q 754 1118 815 1118 q 619 1095 682 1118 q 502 1030 556 1072 q 406 931 449 988 q 334 806 364 874 q 288 665 304 739 q 272 517 272 592 q 294 331 272 411 q 357 199 315 251 q 458 119 399 146 q 594 92 518 92 q 699 110 650 92 q 790 158 747 128 q 872 228 833 189 q 947 313 911 268 q 977 326 961 331 q 1011 307 993 322 q 1035 277 1032 290 q 1025 246 1038 264 q 885 90 960 150 q 733 2 810 31 q 585 -26 657 -26 m 781 1338 q 726 1357 746 1338 q 707 1417 707 1376 q 729 1485 707 1457 q 797 1513 751 1513 q 849 1492 829 1513 q 868 1433 868 1472 q 847 1365 869 1392 q 781 1338 825 1338 z "},"Ď":{"ha":1208,"x_min":117,"x_max":1156,"o":"m 179 0 q 124 39 117 0 l 310 1178 q 329 1206 313 1197 q 376 1215 346 1215 l 608 1215 q 853 1178 750 1215 q 1023 1075 956 1140 q 1123 926 1090 1010 q 1156 751 1156 843 q 1121 501 1156 617 q 1021 294 1086 386 q 863 137 956 203 q 651 35 769 71 q 396 0 533 0 l 179 0 m 258 118 l 396 118 q 601 145 506 118 q 774 224 697 172 q 907 353 851 276 q 992 531 963 431 q 1021 751 1021 631 q 993 891 1021 828 q 912 1001 965 954 q 782 1072 858 1047 q 608 1097 706 1097 l 418 1097 l 258 118 m 950 1583 q 981 1567 965 1583 q 996 1535 996 1550 q 994 1520 996 1526 q 985 1507 992 1514 l 779 1324 q 749 1302 764 1311 q 708 1293 733 1293 q 673 1303 686 1293 q 650 1326 660 1313 l 493 1513 q 485 1528 486 1522 q 483 1539 483 1535 q 503 1569 483 1556 q 535 1583 522 1583 q 554 1577 547 1583 q 571 1564 561 1571 l 722 1433 l 913 1564 q 931 1577 924 1571 q 950 1583 939 1583 z "},"Đ":{"ha":1208,"x_min":71,"x_max":1156,"o":"m 179 0 q 124 39 117 0 l 310 1178 q 329 1206 313 1197 q 376 1215 346 1215 l 608 1215 q 853 1178 750 1215 q 1023 1075 956 1140 q 1123 926 1090 1010 q 1156 751 1156 843 q 1121 501 1156 617 q 1021 294 1086 386 q 863 137 956 203 q 651 35 769 71 q 396 0 533 0 l 179 0 m 258 118 l 396 118 q 601 145 506 118 q 774 224 697 172 q 907 353 851 276 q 992 531 963 431 q 1021 751 1021 631 q 993 891 1021 828 q 912 1001 965 954 q 782 1072 858 1047 q 608 1097 706 1097 l 418 1097 l 258 118 m 106 565 q 76 581 81 565 q 74 614 71 596 q 83 650 75 633 q 118 667 92 667 l 624 667 q 653 650 649 667 q 657 614 658 633 q 646 581 654 596 q 614 565 638 565 l 106 565 z "},"É":{"ha":921,"x_min":124,"x_max":1001,"o":"m 186 0 q 138 13 153 0 q 128 56 124 26 l 308 1178 q 327 1206 311 1197 q 372 1215 343 1215 l 969 1215 q 994 1203 988 1215 q 997 1160 1001 1190 q 983 1118 994 1132 q 954 1104 972 1104 l 419 1104 l 353 699 l 799 699 q 824 686 817 699 q 828 643 831 674 q 812 601 824 614 q 782 588 800 588 l 336 588 l 260 111 l 792 111 q 817 99 810 111 q 819 56 824 86 q 806 14 817 28 q 776 0 794 0 l 186 0 m 608 1293 q 576 1313 594 1293 q 557 1346 557 1332 q 558 1356 557 1351 q 568 1369 560 1361 l 767 1568 q 779 1579 774 1575 q 793 1583 785 1583 q 825 1571 807 1583 q 856 1542 843 1558 q 869 1511 869 1525 q 866 1494 869 1501 q 847 1476 863 1488 l 635 1307 q 620 1297 626 1301 q 608 1293 614 1293 z "},"Ĕ":{"ha":921,"x_min":124,"x_max":1001,"o":"m 186 0 q 138 13 153 0 q 128 56 124 26 l 308 1178 q 327 1206 311 1197 q 372 1215 343 1215 l 969 1215 q 994 1203 988 1215 q 997 1160 1001 1190 q 983 1118 994 1132 q 954 1104 972 1104 l 419 1104 l 353 699 l 799 699 q 824 686 817 699 q 828 643 831 674 q 812 601 824 614 q 782 588 800 588 l 336 588 l 260 111 l 792 111 q 817 99 810 111 q 819 56 824 86 q 806 14 817 28 q 776 0 794 0 l 186 0 m 678 1293 q 515 1355 574 1293 q 457 1543 456 1417 q 472 1572 458 1561 q 508 1582 485 1582 q 540 1572 529 1582 q 554 1543 551 1561 q 597 1445 563 1476 q 688 1414 632 1414 q 792 1448 750 1414 q 854 1542 833 1482 q 872 1573 863 1564 q 903 1582 882 1582 q 942 1569 928 1582 q 951 1539 956 1557 q 897 1397 933 1451 q 805 1318 860 1343 q 678 1293 750 1293 z "},"Ě":{"ha":921,"x_min":124,"x_max":1001,"o":"m 186 0 q 138 13 153 0 q 128 56 124 26 l 308 1178 q 327 1206 311 1197 q 372 1215 343 1215 l 969 1215 q 994 1203 988 1215 q 997 1160 1001 1190 q 983 1118 994 1132 q 954 1104 972 1104 l 419 1104 l 353 699 l 799 699 q 824 686 817 699 q 828 643 831 674 q 812 601 824 614 q 782 588 800 588 l 336 588 l 260 111 l 792 111 q 817 99 810 111 q 819 56 824 86 q 806 14 817 28 q 776 0 794 0 l 186 0 m 910 1583 q 940 1567 925 1583 q 956 1535 956 1550 q 953 1520 956 1526 q 944 1507 951 1514 l 739 1324 q 708 1302 724 1311 q 668 1293 693 1293 q 633 1303 646 1293 q 610 1326 619 1313 l 453 1513 q 444 1528 446 1522 q 443 1539 443 1535 q 463 1569 443 1556 q 494 1583 482 1583 q 514 1577 507 1583 q 531 1564 521 1571 l 682 1433 l 872 1564 q 891 1577 883 1571 q 910 1583 899 1583 z "},"Ê":{"ha":921,"x_min":124,"x_max":1001,"o":"m 186 0 q 138 13 153 0 q 128 56 124 26 l 308 1178 q 327 1206 311 1197 q 372 1215 343 1215 l 969 1215 q 994 1203 988 1215 q 997 1160 1001 1190 q 983 1118 994 1132 q 954 1104 972 1104 l 419 1104 l 353 699 l 799 699 q 824 686 817 699 q 828 643 831 674 q 812 601 824 614 q 782 588 800 588 l 336 588 l 260 111 l 792 111 q 817 99 810 111 q 819 56 824 86 q 806 14 817 28 q 776 0 794 0 l 186 0 m 469 1293 q 440 1310 456 1293 q 425 1342 425 1326 q 428 1356 425 1350 q 438 1369 431 1363 l 642 1553 q 673 1575 657 1567 q 713 1583 689 1583 q 748 1574 735 1583 q 772 1551 761 1565 l 929 1364 q 937 1349 936 1356 q 938 1338 938 1343 q 920 1308 938 1322 q 889 1293 903 1293 q 869 1299 878 1293 q 850 1314 860 1306 l 700 1443 l 508 1310 q 490 1298 499 1303 q 469 1293 481 1293 z "},"Ë":{"ha":921,"x_min":124,"x_max":1001,"o":"m 186 0 q 138 13 153 0 q 128 56 124 26 l 308 1178 q 327 1206 311 1197 q 372 1215 343 1215 l 969 1215 q 994 1203 988 1215 q 997 1160 1001 1190 q 983 1118 994 1132 q 954 1104 972 1104 l 419 1104 l 353 699 l 799 699 q 824 686 817 699 q 828 643 831 674 q 812 601 824 614 q 782 588 800 588 l 336 588 l 260 111 l 792 111 q 817 99 810 111 q 819 56 824 86 q 806 14 817 28 q 776 0 794 0 l 186 0 m 513 1338 q 458 1357 478 1338 q 439 1417 439 1376 q 461 1485 439 1457 q 529 1513 483 1513 q 581 1492 563 1513 q 600 1433 600 1472 q 580 1365 601 1392 q 513 1338 558 1338 m 849 1338 q 796 1357 815 1338 q 776 1417 776 1376 q 799 1485 776 1457 q 865 1513 821 1513 q 918 1492 899 1513 q 938 1433 938 1472 q 917 1365 939 1392 q 849 1338 894 1338 z "},"Ė":{"ha":921,"x_min":124,"x_max":1001,"o":"m 186 0 q 138 13 153 0 q 128 56 124 26 l 308 1178 q 327 1206 311 1197 q 372 1215 343 1215 l 969 1215 q 994 1203 988 1215 q 997 1160 1001 1190 q 983 1118 994 1132 q 954 1104 972 1104 l 419 1104 l 353 699 l 799 699 q 824 686 817 699 q 828 643 831 674 q 812 601 824 614 q 782 588 800 588 l 336 588 l 260 111 l 792 111 q 817 99 810 111 q 819 56 824 86 q 806 14 817 28 q 776 0 794 0 l 186 0 m 682 1338 q 628 1357 647 1338 q 608 1417 608 1376 q 631 1485 608 1457 q 699 1513 653 1513 q 750 1492 731 1513 q 769 1433 769 1472 q 749 1365 771 1392 q 682 1338 726 1338 z "},"È":{"ha":921,"x_min":124,"x_max":1001,"o":"m 186 0 q 138 13 153 0 q 128 56 124 26 l 308 1178 q 327 1206 311 1197 q 372 1215 343 1215 l 969 1215 q 994 1203 988 1215 q 997 1160 1001 1190 q 983 1118 994 1132 q 954 1104 972 1104 l 419 1104 l 353 699 l 799 699 q 824 686 817 699 q 828 643 831 674 q 812 601 824 614 q 782 588 800 588 l 336 588 l 260 111 l 792 111 q 817 99 810 111 q 819 56 824 86 q 806 14 817 28 q 776 0 794 0 l 186 0 m 739 1293 q 728 1297 735 1293 q 714 1307 721 1301 l 518 1478 q 501 1496 504 1489 q 497 1513 497 1503 q 510 1543 497 1526 q 542 1572 524 1560 q 574 1583 560 1583 q 588 1579 582 1583 q 600 1568 594 1575 l 781 1369 q 792 1355 790 1360 q 793 1346 793 1350 q 774 1313 793 1332 q 739 1293 754 1293 z "},"Ē":{"ha":921,"x_min":124,"x_max":1001,"o":"m 186 0 q 138 13 153 0 q 128 56 124 26 l 308 1178 q 327 1206 311 1197 q 372 1215 343 1215 l 969 1215 q 994 1203 988 1215 q 997 1160 1001 1190 q 983 1118 994 1132 q 954 1104 972 1104 l 419 1104 l 353 699 l 799 699 q 824 686 817 699 q 828 643 831 674 q 812 601 824 614 q 782 588 800 588 l 336 588 l 260 111 l 792 111 q 817 99 810 111 q 819 56 824 86 q 806 14 817 28 q 776 0 794 0 l 186 0 m 500 1379 q 468 1395 475 1379 q 465 1436 461 1411 q 478 1481 468 1465 q 513 1497 488 1497 l 881 1497 q 913 1480 907 1497 q 915 1436 919 1463 q 903 1394 913 1410 q 868 1379 893 1379 l 500 1379 z "},"Ę":{"ha":921,"x_min":124,"x_max":1001,"o":"m 186 0 q 138 13 153 0 q 128 56 124 26 l 308 1178 q 327 1206 311 1197 q 372 1215 343 1215 l 969 1215 q 994 1203 988 1215 q 997 1160 1001 1190 q 983 1118 994 1132 q 954 1104 972 1104 l 419 1104 l 353 699 l 799 699 q 824 686 817 699 q 828 643 831 674 q 812 601 824 614 q 782 588 800 588 l 336 588 l 260 111 l 792 111 q 817 99 810 111 q 819 56 824 86 q 806 14 817 28 q 776 0 794 0 l 186 0 m 592 -350 q 518 -324 546 -350 q 490 -254 490 -299 q 506 -187 490 -221 q 551 -119 521 -154 q 624 -47 581 -85 q 722 35 667 -10 l 807 32 l 807 24 q 731 -45 767 -11 q 669 -110 696 -79 q 628 -166 643 -140 q 614 -212 614 -192 q 621 -236 614 -228 q 643 -244 628 -244 q 690 -226 667 -244 q 742 -179 713 -208 q 764 -169 750 -172 q 794 -179 778 -167 q 813 -206 808 -190 q 810 -235 818 -221 q 748 -297 786 -271 q 669 -336 710 -322 q 592 -350 628 -350 z "},"Ế":{"ha":921,"x_min":124,"x_max":1158,"o":"m 186 0 q 138 13 153 0 q 128 56 124 26 l 308 1178 q 327 1206 311 1197 q 372 1215 343 1215 l 969 1215 q 994 1203 988 1215 q 997 1160 1001 1190 q 983 1118 994 1132 q 954 1104 972 1104 l 419 1104 l 353 699 l 799 699 q 824 686 817 699 q 828 643 831 674 q 812 601 824 614 q 782 588 800 588 l 336 588 l 260 111 l 792 111 q 817 99 810 111 q 819 56 824 86 q 806 14 817 28 q 776 0 794 0 l 186 0 m 469 1293 q 440 1310 456 1293 q 425 1342 425 1326 q 428 1356 425 1350 q 438 1369 431 1363 l 642 1553 q 673 1575 657 1567 q 713 1583 689 1583 q 748 1574 735 1583 q 772 1551 761 1565 l 929 1364 q 937 1349 936 1356 q 938 1338 938 1343 q 920 1308 938 1322 q 889 1293 903 1293 q 869 1299 878 1293 q 850 1314 860 1306 l 700 1443 l 508 1310 q 490 1298 499 1303 q 469 1293 481 1293 m 918 1513 q 885 1532 904 1513 q 865 1565 865 1551 q 867 1575 865 1571 q 878 1589 868 1579 l 1056 1769 q 1069 1782 1064 1778 q 1082 1786 1074 1786 q 1114 1774 1096 1786 q 1145 1744 1132 1761 q 1158 1713 1158 1726 q 1156 1697 1158 1703 q 1138 1678 1153 1690 l 944 1526 q 930 1517 936 1521 q 918 1513 924 1513 z "},"Ệ":{"ha":921,"x_min":124,"x_max":1001,"o":"m 186 0 q 138 13 153 0 q 128 56 124 26 l 308 1178 q 327 1206 311 1197 q 372 1215 343 1215 l 969 1215 q 994 1203 988 1215 q 997 1160 1001 1190 q 983 1118 994 1132 q 954 1104 972 1104 l 419 1104 l 353 699 l 799 699 q 824 686 817 699 q 828 643 831 674 q 812 601 824 614 q 782 588 800 588 l 336 588 l 260 111 l 792 111 q 817 99 810 111 q 819 56 824 86 q 806 14 817 28 q 776 0 794 0 l 186 0 m 429 -324 q 376 -304 396 -324 q 357 -244 357 -285 q 378 -176 357 -204 q 446 -149 400 -149 q 499 -169 479 -149 q 518 -228 518 -189 q 496 -297 518 -269 q 429 -324 474 -324 m 469 1293 q 440 1310 456 1293 q 425 1342 425 1326 q 428 1356 425 1350 q 438 1369 431 1363 l 642 1553 q 673 1575 657 1567 q 713 1583 689 1583 q 748 1574 735 1583 q 772 1551 761 1565 l 929 1364 q 937 1349 936 1356 q 938 1338 938 1343 q 920 1308 938 1322 q 889 1293 903 1293 q 869 1299 878 1293 q 850 1314 860 1306 l 700 1443 l 508 1310 q 490 1298 499 1303 q 469 1293 481 1293 z "},"Ề":{"ha":921,"x_min":124,"x_max":1050,"o":"m 186 0 q 138 13 153 0 q 128 56 124 26 l 308 1178 q 327 1206 311 1197 q 372 1215 343 1215 l 969 1215 q 994 1203 988 1215 q 997 1160 1001 1190 q 983 1118 994 1132 q 954 1104 972 1104 l 419 1104 l 353 699 l 799 699 q 824 686 817 699 q 828 643 831 674 q 812 601 824 614 q 782 588 800 588 l 336 588 l 260 111 l 792 111 q 817 99 810 111 q 819 56 824 86 q 806 14 817 28 q 776 0 794 0 l 186 0 m 469 1293 q 440 1310 456 1293 q 425 1342 425 1326 q 428 1356 425 1350 q 438 1369 431 1363 l 642 1553 q 673 1575 657 1567 q 713 1583 689 1583 q 748 1574 735 1583 q 772 1551 761 1565 l 929 1364 q 937 1349 936 1356 q 938 1338 938 1343 q 920 1308 938 1322 q 889 1293 903 1293 q 869 1299 878 1293 q 850 1314 860 1306 l 700 1443 l 508 1310 q 490 1298 499 1303 q 469 1293 481 1293 m 996 1492 q 984 1495 990 1492 q 969 1506 978 1499 l 792 1690 q 775 1710 779 1704 q 771 1726 771 1717 q 784 1757 771 1740 q 816 1785 797 1774 q 850 1797 835 1797 q 864 1793 857 1797 q 878 1781 871 1789 l 1038 1569 q 1047 1553 1044 1558 q 1050 1543 1050 1549 q 1031 1510 1050 1529 q 996 1492 1013 1492 z "},"Ể":{"ha":921,"x_min":124,"x_max":1114,"o":"m 186 0 q 138 13 153 0 q 128 56 124 26 l 308 1178 q 327 1206 311 1197 q 372 1215 343 1215 l 969 1215 q 994 1203 988 1215 q 997 1160 1001 1190 q 983 1118 994 1132 q 954 1104 972 1104 l 419 1104 l 353 699 l 799 699 q 824 686 817 699 q 828 643 831 674 q 812 601 824 614 q 782 588 800 588 l 336 588 l 260 111 l 792 111 q 817 99 810 111 q 819 56 824 86 q 806 14 817 28 q 776 0 794 0 l 186 0 m 469 1293 q 440 1310 456 1293 q 425 1342 425 1326 q 428 1356 425 1350 q 438 1369 431 1363 l 642 1553 q 673 1575 657 1567 q 713 1583 689 1583 q 748 1574 735 1583 q 772 1551 761 1565 l 929 1364 q 937 1349 936 1356 q 938 1338 938 1343 q 920 1308 938 1322 q 889 1293 903 1293 q 869 1299 878 1293 q 850 1314 860 1306 l 700 1443 l 508 1310 q 490 1298 499 1303 q 469 1293 481 1293 m 972 1811 q 1076 1781 1038 1811 q 1114 1699 1114 1751 q 1096 1633 1114 1663 q 1036 1574 1078 1603 q 1008 1548 1017 1560 q 1000 1522 1000 1536 l 999 1507 q 986 1481 1000 1490 q 954 1469 972 1471 q 922 1474 936 1467 q 903 1496 907 1481 l 894 1531 q 899 1588 888 1563 q 940 1633 911 1613 q 971 1662 961 1649 q 981 1685 981 1675 q 971 1703 981 1696 q 943 1710 961 1710 q 907 1705 926 1710 q 869 1692 888 1700 q 813 1715 835 1672 q 828 1772 796 1751 q 896 1801 860 1790 q 972 1811 932 1811 z "},"Ễ":{"ha":921,"x_min":124,"x_max":1001,"o":"m 186 0 q 138 13 153 0 q 128 56 124 26 l 308 1178 q 327 1206 311 1197 q 372 1215 343 1215 l 969 1215 q 994 1203 988 1215 q 997 1160 1001 1190 q 983 1118 994 1132 q 954 1104 972 1104 l 419 1104 l 353 699 l 799 699 q 824 686 817 699 q 828 643 831 674 q 812 601 824 614 q 782 588 800 588 l 336 588 l 260 111 l 792 111 q 817 99 810 111 q 819 56 824 86 q 806 14 817 28 q 776 0 794 0 l 186 0 m 469 1293 q 440 1310 456 1293 q 425 1342 425 1326 q 428 1356 425 1350 q 438 1369 431 1363 l 642 1553 q 673 1575 657 1567 q 713 1583 689 1583 q 748 1574 735 1583 q 772 1551 761 1565 l 929 1364 q 937 1349 936 1356 q 938 1338 938 1343 q 920 1308 938 1322 q 889 1293 903 1293 q 869 1299 878 1293 q 850 1314 860 1306 l 700 1443 l 508 1310 q 490 1298 499 1303 q 469 1293 481 1293 m 510 1597 q 465 1635 465 1597 q 501 1769 469 1728 q 593 1810 533 1810 q 671 1796 635 1810 q 740 1763 707 1782 q 799 1728 772 1743 q 847 1714 826 1714 q 872 1730 861 1714 q 885 1779 882 1746 q 938 1813 888 1813 q 973 1803 963 1813 q 982 1775 983 1793 q 949 1644 979 1689 q 853 1599 918 1599 q 772 1613 808 1599 q 705 1645 736 1626 q 648 1678 674 1664 q 599 1692 622 1692 q 573 1678 582 1692 q 561 1633 564 1665 q 547 1606 560 1615 q 510 1597 533 1597 z "},"Ẹ":{"ha":921,"x_min":124,"x_max":1001,"o":"m 186 0 q 138 13 153 0 q 128 56 124 26 l 308 1178 q 327 1206 311 1197 q 372 1215 343 1215 l 969 1215 q 994 1203 988 1215 q 997 1160 1001 1190 q 983 1118 994 1132 q 954 1104 972 1104 l 419 1104 l 353 699 l 799 699 q 824 686 817 699 q 828 643 831 674 q 812 601 824 614 q 782 588 800 588 l 336 588 l 260 111 l 792 111 q 817 99 810 111 q 819 56 824 86 q 806 14 817 28 q 776 0 794 0 l 186 0 m 429 -324 q 376 -304 396 -324 q 357 -244 357 -285 q 378 -176 357 -204 q 446 -149 400 -149 q 499 -169 479 -149 q 518 -228 518 -189 q 496 -297 518 -269 q 429 -324 474 -324 z "},"Ẻ":{"ha":921,"x_min":124,"x_max":1001,"o":"m 186 0 q 138 13 153 0 q 128 56 124 26 l 308 1178 q 327 1206 311 1197 q 372 1215 343 1215 l 969 1215 q 994 1203 988 1215 q 997 1160 1001 1190 q 983 1118 994 1132 q 954 1104 972 1104 l 419 1104 l 353 699 l 799 699 q 824 686 817 699 q 828 643 831 674 q 812 601 824 614 q 782 588 800 588 l 336 588 l 260 111 l 792 111 q 817 99 810 111 q 819 56 824 86 q 806 14 817 28 q 776 0 794 0 l 186 0 m 711 1622 q 815 1592 776 1622 q 853 1510 853 1563 q 835 1444 853 1474 q 776 1385 817 1414 q 748 1359 756 1371 q 740 1333 740 1347 l 739 1318 q 726 1292 739 1301 q 694 1280 713 1282 q 661 1285 676 1278 q 642 1307 646 1292 l 633 1342 q 639 1399 626 1374 q 679 1444 651 1424 q 711 1473 701 1460 q 721 1496 721 1486 q 710 1514 721 1507 q 682 1521 700 1521 q 647 1516 667 1521 q 608 1503 626 1511 q 551 1526 574 1483 q 568 1583 536 1563 q 635 1612 599 1601 q 711 1622 672 1622 z "},"Ẽ":{"ha":921,"x_min":124,"x_max":1001,"o":"m 186 0 q 138 13 153 0 q 128 56 124 26 l 308 1178 q 327 1206 311 1197 q 372 1215 343 1215 l 969 1215 q 994 1203 988 1215 q 997 1160 1001 1190 q 983 1118 994 1132 q 954 1104 972 1104 l 419 1104 l 353 699 l 799 699 q 824 686 817 699 q 828 643 831 674 q 812 601 824 614 q 782 588 800 588 l 336 588 l 260 111 l 792 111 q 817 99 810 111 q 819 56 824 86 q 806 14 817 28 q 776 0 794 0 l 186 0 m 478 1332 q 433 1369 433 1332 q 469 1505 438 1464 q 561 1546 501 1546 q 639 1531 603 1546 q 708 1497 675 1517 q 767 1464 740 1478 q 815 1450 794 1450 q 840 1465 829 1450 q 854 1514 850 1481 q 906 1547 856 1547 q 941 1538 931 1547 q 950 1510 951 1529 q 917 1378 947 1424 q 821 1333 886 1333 q 741 1348 778 1333 q 673 1381 704 1363 q 616 1413 642 1399 q 567 1428 590 1428 q 542 1414 551 1428 q 529 1368 532 1400 q 515 1341 528 1350 q 478 1332 501 1332 z "},"Ğ":{"ha":1217,"x_min":142,"x_max":1144,"o":"m 585 -26 q 401 13 482 -25 q 261 119 319 50 q 172 286 203 189 q 142 506 142 383 q 160 678 142 592 q 214 847 178 765 q 303 999 250 929 q 424 1123 356 1069 q 578 1206 493 1176 q 764 1236 664 1236 q 899 1222 836 1236 q 1014 1173 961 1207 q 1106 1082 1067 1139 q 1110 1053 1117 1065 q 1088 1028 1104 1042 q 1055 1009 1069 1013 q 1024 1021 1040 1006 q 952 1074 992 1053 q 864 1107 913 1096 q 754 1118 815 1118 q 619 1095 682 1118 q 502 1030 556 1072 q 406 931 449 988 q 334 806 364 874 q 288 665 304 739 q 272 517 272 592 q 294 331 272 411 q 357 199 315 251 q 458 119 399 146 q 594 92 518 92 q 712 108 657 92 q 813 158 767 125 q 897 245 860 192 q 963 372 935 299 q 1007 539 990 444 l 692 539 q 665 551 671 539 q 664 594 658 564 q 680 638 669 626 q 711 650 690 650 l 1111 650 q 1138 638 1132 650 q 1140 594 1144 626 q 1062 301 1117 421 q 931 110 1007 182 q 765 6 854 38 q 585 -26 676 -26 m 775 1293 q 612 1355 671 1293 q 554 1543 553 1417 q 569 1572 556 1561 q 606 1582 582 1582 q 638 1572 626 1582 q 651 1543 649 1561 q 694 1445 660 1476 q 785 1414 729 1414 q 889 1448 847 1414 q 951 1542 931 1482 q 969 1573 960 1564 q 1000 1582 979 1582 q 1039 1569 1025 1582 q 1049 1539 1053 1557 q 994 1397 1031 1451 q 902 1318 957 1343 q 775 1293 847 1293 z "},"Ĝ":{"ha":1217,"x_min":142,"x_max":1144,"o":"m 585 -26 q 401 13 482 -25 q 261 119 319 50 q 172 286 203 189 q 142 506 142 383 q 160 678 142 592 q 214 847 178 765 q 303 999 250 929 q 424 1123 356 1069 q 578 1206 493 1176 q 764 1236 664 1236 q 899 1222 836 1236 q 1014 1173 961 1207 q 1106 1082 1067 1139 q 1110 1053 1117 1065 q 1088 1028 1104 1042 q 1055 1009 1069 1013 q 1024 1021 1040 1006 q 952 1074 992 1053 q 864 1107 913 1096 q 754 1118 815 1118 q 619 1095 682 1118 q 502 1030 556 1072 q 406 931 449 988 q 334 806 364 874 q 288 665 304 739 q 272 517 272 592 q 294 331 272 411 q 357 199 315 251 q 458 119 399 146 q 594 92 518 92 q 712 108 657 92 q 813 158 767 125 q 897 245 860 192 q 963 372 935 299 q 1007 539 990 444 l 692 539 q 665 551 671 539 q 664 594 658 564 q 680 638 669 626 q 711 650 690 650 l 1111 650 q 1138 638 1132 650 q 1140 594 1144 626 q 1062 301 1117 421 q 931 110 1007 182 q 765 6 854 38 q 585 -26 676 -26 m 567 1293 q 538 1310 553 1293 q 522 1342 522 1326 q 525 1356 522 1350 q 535 1369 528 1363 l 739 1553 q 770 1575 754 1567 q 810 1583 786 1583 q 845 1574 832 1583 q 869 1551 858 1565 l 1026 1364 q 1034 1349 1033 1356 q 1035 1338 1035 1343 q 1017 1308 1035 1322 q 986 1293 1000 1293 q 966 1299 975 1293 q 947 1314 957 1306 l 797 1443 l 606 1310 q 587 1298 596 1303 q 567 1293 578 1293 z "},"Ģ":{"ha":1217,"x_min":142,"x_max":1144,"o":"m 585 -26 q 401 13 482 -25 q 261 119 319 50 q 172 286 203 189 q 142 506 142 383 q 160 678 142 592 q 214 847 178 765 q 303 999 250 929 q 424 1123 356 1069 q 578 1206 493 1176 q 764 1236 664 1236 q 899 1222 836 1236 q 1014 1173 961 1207 q 1106 1082 1067 1139 q 1110 1053 1117 1065 q 1088 1028 1104 1042 q 1055 1009 1069 1013 q 1024 1021 1040 1006 q 952 1074 992 1053 q 864 1107 913 1096 q 754 1118 815 1118 q 619 1095 682 1118 q 502 1030 556 1072 q 406 931 449 988 q 334 806 364 874 q 288 665 304 739 q 272 517 272 592 q 294 331 272 411 q 357 199 315 251 q 458 119 399 146 q 594 92 518 92 q 712 108 657 92 q 813 158 767 125 q 897 245 860 192 q 963 372 935 299 q 1007 539 990 444 l 692 539 q 665 551 671 539 q 664 594 658 564 q 680 638 669 626 q 711 650 690 650 l 1111 650 q 1138 638 1132 650 q 1140 594 1144 626 q 1062 301 1117 421 q 931 110 1007 182 q 765 6 854 38 q 585 -26 676 -26 m 443 -401 q 424 -378 426 -392 q 431 -347 421 -365 q 464 -276 451 -307 q 482 -215 476 -246 q 489 -142 488 -183 q 505 -108 490 -118 q 546 -99 519 -99 q 594 -114 578 -99 q 610 -156 611 -129 q 594 -230 608 -190 q 558 -307 581 -269 q 510 -379 536 -344 q 478 -404 493 -399 q 443 -401 463 -410 z "},"Ġ":{"ha":1217,"x_min":142,"x_max":1144,"o":"m 585 -26 q 401 13 482 -25 q 261 119 319 50 q 172 286 203 189 q 142 506 142 383 q 160 678 142 592 q 214 847 178 765 q 303 999 250 929 q 424 1123 356 1069 q 578 1206 493 1176 q 764 1236 664 1236 q 899 1222 836 1236 q 1014 1173 961 1207 q 1106 1082 1067 1139 q 1110 1053 1117 1065 q 1088 1028 1104 1042 q 1055 1009 1069 1013 q 1024 1021 1040 1006 q 952 1074 992 1053 q 864 1107 913 1096 q 754 1118 815 1118 q 619 1095 682 1118 q 502 1030 556 1072 q 406 931 449 988 q 334 806 364 874 q 288 665 304 739 q 272 517 272 592 q 294 331 272 411 q 357 199 315 251 q 458 119 399 146 q 594 92 518 92 q 712 108 657 92 q 813 158 767 125 q 897 245 860 192 q 963 372 935 299 q 1007 539 990 444 l 692 539 q 665 551 671 539 q 664 594 658 564 q 680 638 669 626 q 711 650 690 650 l 1111 650 q 1138 638 1132 650 q 1140 594 1144 626 q 1062 301 1117 421 q 931 110 1007 182 q 765 6 854 38 q 585 -26 676 -26 m 779 1338 q 725 1357 744 1338 q 706 1417 706 1376 q 728 1485 706 1457 q 796 1513 750 1513 q 847 1492 828 1513 q 867 1433 867 1472 q 846 1365 868 1392 q 779 1338 824 1338 z "},"Ħ":{"ha":1233,"x_min":115,"x_max":1288,"o":"m 176 -19 q 121 19 115 -19 l 313 1199 q 332 1227 315 1218 q 379 1236 349 1236 q 433 1199 442 1236 l 353 693 l 994 693 l 1076 1199 q 1096 1227 1079 1218 q 1143 1236 1113 1236 q 1197 1199 1206 1236 l 1007 19 q 988 -10 1004 0 q 940 -19 971 -19 q 885 19 879 -19 l 976 582 l 335 582 l 243 19 q 224 -10 240 0 q 176 -19 207 -19 m 175 886 q 145 901 150 886 q 143 936 140 915 q 153 975 144 960 q 186 990 161 990 l 1253 990 q 1284 975 1279 990 q 1286 936 1289 960 q 1276 901 1285 915 q 1243 886 1268 886 l 175 886 z "},"Ĥ":{"ha":1233,"x_min":115,"x_max":1206,"o":"m 176 -19 q 121 19 115 -19 l 313 1199 q 332 1227 315 1218 q 379 1236 349 1236 q 433 1199 442 1236 l 353 693 l 994 693 l 1076 1199 q 1096 1227 1079 1218 q 1143 1236 1113 1236 q 1197 1199 1206 1236 l 1007 19 q 988 -10 1004 0 q 940 -19 971 -19 q 885 19 879 -19 l 976 582 l 335 582 l 243 19 q 224 -10 240 0 q 176 -19 207 -19 m 561 1293 q 532 1310 547 1293 q 517 1342 517 1326 q 519 1356 517 1350 q 529 1369 522 1363 l 733 1553 q 765 1575 749 1567 q 804 1583 781 1583 q 840 1574 826 1583 q 864 1551 853 1565 l 1021 1364 q 1028 1349 1028 1356 q 1029 1338 1029 1343 q 1012 1308 1029 1322 q 981 1293 994 1293 q 960 1299 969 1293 q 942 1314 951 1306 l 792 1443 l 600 1310 q 581 1298 590 1303 q 561 1293 572 1293 z "},"Í":{"ha":469,"x_min":118,"x_max":585,"o":"m 179 -19 q 133 -10 149 -19 q 121 21 118 0 l 310 1199 q 330 1227 314 1218 q 376 1236 346 1236 q 423 1227 408 1236 q 433 1197 438 1218 l 244 19 q 226 -10 242 0 q 179 -19 210 -19 m 325 1293 q 292 1313 311 1293 q 274 1346 274 1332 q 275 1356 274 1351 q 285 1369 276 1361 l 483 1568 q 496 1579 490 1575 q 510 1583 501 1583 q 542 1571 524 1583 q 573 1542 560 1558 q 586 1511 586 1525 q 583 1494 586 1501 q 564 1476 579 1488 l 351 1307 q 337 1297 343 1301 q 325 1293 331 1293 z "},"Ĭ":{"ha":469,"x_min":118,"x_max":672,"o":"m 179 -19 q 133 -10 149 -19 q 121 21 118 0 l 310 1199 q 330 1227 314 1218 q 376 1236 346 1236 q 423 1227 408 1236 q 433 1197 438 1218 l 244 19 q 226 -10 242 0 q 179 -19 210 -19 m 394 1293 q 231 1355 290 1293 q 174 1543 172 1417 q 188 1572 175 1561 q 225 1582 201 1582 q 257 1572 246 1582 q 271 1543 268 1561 q 314 1445 279 1476 q 404 1414 349 1414 q 508 1448 467 1414 q 571 1542 550 1482 q 589 1573 579 1564 q 619 1582 599 1582 q 658 1569 644 1582 q 668 1539 672 1557 q 613 1397 650 1451 q 522 1318 576 1343 q 394 1293 467 1293 z "},"Ǐ":{"ha":469,"x_min":118,"x_max":672,"o":"m 179 -19 q 133 -10 149 -19 q 121 21 118 0 l 310 1199 q 330 1227 314 1218 q 376 1236 346 1236 q 423 1227 408 1236 q 433 1197 438 1218 l 244 19 q 226 -10 242 0 q 179 -19 210 -19 m 626 1583 q 657 1567 642 1583 q 672 1535 672 1550 q 670 1520 672 1526 q 661 1507 668 1514 l 456 1324 q 425 1302 440 1311 q 385 1293 410 1293 q 349 1303 363 1293 q 326 1326 336 1313 l 169 1513 q 161 1528 163 1522 q 160 1539 160 1535 q 179 1569 160 1556 q 211 1583 199 1583 q 231 1577 224 1583 q 247 1564 238 1571 l 399 1433 l 589 1564 q 608 1577 600 1571 q 626 1583 615 1583 z "},"Î":{"ha":469,"x_min":118,"x_max":654,"o":"m 179 -19 q 133 -10 149 -19 q 121 21 118 0 l 310 1199 q 330 1227 314 1218 q 376 1236 346 1236 q 423 1227 408 1236 q 433 1197 438 1218 l 244 19 q 226 -10 242 0 q 179 -19 210 -19 m 186 1293 q 157 1310 172 1293 q 142 1342 142 1326 q 144 1356 142 1350 q 154 1369 147 1363 l 358 1553 q 390 1575 374 1567 q 429 1583 406 1583 q 465 1574 451 1583 q 489 1551 478 1565 l 646 1364 q 653 1349 653 1356 q 654 1338 654 1343 q 637 1308 654 1322 q 606 1293 619 1293 q 585 1299 594 1293 q 567 1314 576 1306 l 417 1443 l 225 1310 q 206 1298 215 1303 q 186 1293 197 1293 z "},"Ï":{"ha":469,"x_min":118,"x_max":654,"o":"m 179 -19 q 133 -10 149 -19 q 121 21 118 0 l 310 1199 q 330 1227 314 1218 q 376 1236 346 1236 q 423 1227 408 1236 q 433 1197 438 1218 l 244 19 q 226 -10 242 0 q 179 -19 210 -19 m 229 1338 q 175 1357 194 1338 q 156 1417 156 1376 q 178 1485 156 1457 q 246 1513 200 1513 q 298 1492 279 1513 q 317 1433 317 1472 q 297 1365 318 1392 q 229 1338 275 1338 m 565 1338 q 513 1357 532 1338 q 493 1417 493 1376 q 515 1485 493 1457 q 582 1513 538 1513 q 635 1492 615 1513 q 654 1433 654 1472 q 633 1365 656 1392 q 565 1338 611 1338 z "},"İ":{"ha":469,"x_min":118,"x_max":486,"o":"m 179 -19 q 133 -10 149 -19 q 121 21 118 0 l 310 1199 q 330 1227 314 1218 q 376 1236 346 1236 q 423 1227 408 1236 q 433 1197 438 1218 l 244 19 q 226 -10 242 0 q 179 -19 210 -19 m 399 1338 q 344 1357 364 1338 q 325 1417 325 1376 q 347 1485 325 1457 q 415 1513 369 1513 q 467 1492 447 1513 q 486 1433 486 1472 q 465 1365 488 1392 q 399 1338 443 1338 z "},"Ì":{"ha":469,"x_min":118,"x_max":508,"o":"m 179 -19 q 133 -10 149 -19 q 121 21 118 0 l 310 1199 q 330 1227 314 1218 q 376 1236 346 1236 q 423 1227 408 1236 q 433 1197 438 1218 l 244 19 q 226 -10 242 0 q 179 -19 210 -19 m 456 1293 q 444 1297 451 1293 q 431 1307 438 1301 l 235 1478 q 217 1496 221 1489 q 214 1513 214 1503 q 227 1543 214 1526 q 258 1572 240 1560 q 290 1583 276 1583 q 305 1579 299 1583 q 317 1568 311 1575 l 497 1369 q 508 1355 507 1360 q 510 1346 510 1350 q 490 1313 510 1332 q 456 1293 471 1293 z "},"Ī":{"ha":469,"x_min":118,"x_max":635,"o":"m 179 -19 q 133 -10 149 -19 q 121 21 118 0 l 310 1199 q 330 1227 314 1218 q 376 1236 346 1236 q 423 1227 408 1236 q 433 1197 438 1218 l 244 19 q 226 -10 242 0 q 179 -19 210 -19 m 217 1379 q 185 1395 192 1379 q 182 1436 178 1411 q 194 1481 185 1465 q 229 1497 204 1497 l 597 1497 q 630 1480 624 1497 q 632 1436 636 1463 q 619 1394 629 1410 q 585 1379 610 1379 l 217 1379 z "},"Į":{"ha":469,"x_min":-89,"x_max":438,"o":"m 179 -19 q 133 -10 149 -19 q 121 21 118 0 l 310 1199 q 330 1227 314 1218 q 376 1236 346 1236 q 423 1227 408 1236 q 433 1197 438 1218 l 244 19 q 226 -10 242 0 q 179 -19 210 -19 m 13 -364 q -61 -338 -33 -364 q -89 -268 -89 -312 q -74 -201 -89 -235 q -28 -133 -58 -168 q 44 -61 1 -99 q 143 21 88 -24 l 228 18 l 228 10 q 152 -59 188 -25 q 90 -124 117 -93 q 49 -180 64 -154 q 35 -226 35 -206 q 42 -250 35 -242 q 64 -258 49 -258 q 110 -240 88 -258 q 163 -193 133 -222 q 185 -183 171 -186 q 215 -193 199 -181 q 234 -219 229 -204 q 231 -249 239 -235 q 169 -310 207 -285 q 90 -350 131 -336 q 13 -364 49 -364 z "},"Ĩ":{"ha":469,"x_min":118,"x_max":667,"o":"m 179 -19 q 133 -10 149 -19 q 121 21 118 0 l 310 1199 q 330 1227 314 1218 q 376 1236 346 1236 q 423 1227 408 1236 q 433 1197 438 1218 l 244 19 q 226 -10 242 0 q 179 -19 210 -19 m 193 1332 q 149 1369 149 1332 q 185 1505 153 1464 q 276 1546 217 1546 q 354 1531 318 1546 q 423 1497 390 1517 q 483 1464 456 1478 q 531 1450 510 1450 q 555 1465 544 1450 q 569 1514 565 1481 q 621 1547 571 1547 q 656 1538 646 1547 q 665 1510 667 1529 q 632 1378 663 1424 q 536 1333 601 1333 q 456 1348 493 1333 q 388 1381 419 1363 q 331 1413 357 1399 q 282 1428 306 1428 q 257 1414 267 1428 q 244 1368 247 1400 q 230 1341 243 1350 q 193 1332 217 1332 z "},"Ị":{"ha":469,"x_min":60,"x_max":438,"o":"m 179 -19 q 133 -10 149 -19 q 121 21 118 0 l 310 1199 q 330 1227 314 1218 q 376 1236 346 1236 q 423 1227 408 1236 q 433 1197 438 1218 l 244 19 q 226 -10 242 0 q 179 -19 210 -19 m 132 -324 q 79 -304 99 -324 q 60 -244 60 -285 q 81 -176 60 -204 q 149 -149 103 -149 q 201 -169 182 -149 q 221 -228 221 -189 q 199 -297 221 -269 q 132 -324 176 -324 z "},"Ỉ":{"ha":469,"x_min":118,"x_max":568,"o":"m 179 -19 q 133 -10 149 -19 q 121 21 118 0 l 310 1199 q 330 1227 314 1218 q 376 1236 346 1236 q 423 1227 408 1236 q 433 1197 438 1218 l 244 19 q 226 -10 242 0 q 179 -19 210 -19 m 426 1622 q 530 1592 492 1622 q 568 1510 568 1563 q 550 1444 568 1474 q 492 1385 532 1414 q 463 1359 471 1371 q 456 1333 456 1347 l 454 1318 q 441 1292 454 1301 q 410 1280 428 1282 q 376 1285 392 1278 q 357 1307 361 1292 l 349 1342 q 354 1399 342 1374 q 394 1444 367 1424 q 426 1473 417 1460 q 436 1496 436 1486 q 426 1514 436 1507 q 397 1521 415 1521 q 362 1516 382 1521 q 324 1503 342 1511 q 267 1526 289 1483 q 283 1583 251 1563 q 351 1612 314 1601 q 426 1622 388 1622 z "},"Ĵ":{"ha":903,"x_min":26,"x_max":1113,"o":"m 381 -26 q 235 2 307 -26 q 110 85 164 31 q 33 218 56 140 q 38 251 26 242 q 68 268 49 261 q 113 274 97 278 q 138 246 128 269 q 191 163 158 197 q 271 110 224 128 q 381 92 318 92 q 453 99 419 92 q 516 122 488 106 q 567 167 544 139 q 606 240 590 196 q 633 346 622 283 l 771 1199 q 792 1227 775 1218 q 838 1236 808 1236 q 882 1227 868 1236 q 893 1199 896 1218 l 756 346 q 717 203 742 264 q 659 98 693 142 q 583 26 625 54 q 490 -14 540 -1 q 381 -26 439 -26 m 644 1293 q 615 1310 631 1293 q 600 1342 600 1326 q 603 1356 600 1350 q 613 1369 606 1363 l 817 1553 q 848 1575 832 1567 q 888 1583 864 1583 q 923 1574 910 1583 q 947 1551 936 1565 l 1104 1364 q 1112 1349 1111 1356 q 1113 1338 1113 1343 q 1095 1308 1113 1322 q 1064 1293 1078 1293 q 1044 1299 1053 1293 q 1025 1314 1035 1306 l 875 1443 l 683 1310 q 665 1298 674 1303 q 644 1293 656 1293 z "},"Ķ":{"ha":956,"x_min":118,"x_max":1042,"o":"m 175 -19 q 131 -10 144 -19 q 121 19 118 0 l 313 1199 q 379 1236 318 1236 q 435 1199 440 1236 l 356 711 l 951 1221 q 990 1235 974 1239 q 1024 1210 1006 1231 q 1041 1172 1042 1186 q 1019 1139 1040 1157 l 428 636 q 578 419 506 518 q 725 234 651 319 q 878 69 799 149 q 894 33 896 53 q 867 -10 893 14 q 828 -23 847 -25 q 793 -6 808 -21 q 664 132 726 60 q 544 281 601 204 q 434 435 486 357 q 336 590 382 513 l 242 19 q 222 -10 239 0 q 175 -19 206 -19 m 354 -401 q 335 -378 338 -392 q 342 -347 332 -365 q 375 -276 363 -307 q 393 -215 388 -246 q 400 -142 399 -183 q 416 -108 401 -118 q 457 -99 431 -99 q 506 -114 489 -99 q 521 -156 522 -129 q 506 -230 519 -190 q 469 -307 492 -269 q 421 -379 447 -344 q 389 -404 404 -399 q 354 -401 374 -410 z "},"Ĺ":{"ha":868,"x_min":119,"x_max":793,"o":"m 181 0 q 128 56 119 0 l 313 1199 q 330 1227 315 1218 q 375 1236 344 1236 q 422 1227 407 1236 q 433 1197 438 1218 l 258 111 l 761 111 q 786 99 779 111 q 789 56 793 86 q 775 14 786 28 q 746 0 764 0 l 181 0 m 329 1293 q 297 1313 315 1293 q 278 1346 278 1332 q 279 1356 278 1351 q 289 1369 281 1361 l 488 1568 q 500 1579 494 1575 q 514 1583 506 1583 q 546 1571 528 1583 q 577 1542 564 1558 q 590 1511 590 1525 q 587 1494 590 1501 q 568 1476 583 1488 l 356 1307 q 341 1297 347 1301 q 329 1293 335 1293 z "},"Ľ":{"ha":868,"x_min":119,"x_max":793,"o":"m 181 0 q 128 56 119 0 l 313 1199 q 330 1227 315 1218 q 375 1236 344 1236 q 422 1227 407 1236 q 433 1197 438 1218 l 258 111 l 761 111 q 786 99 779 111 q 789 56 793 86 q 775 14 786 28 q 746 0 764 0 l 181 0 m 546 903 q 517 923 524 911 q 521 957 511 935 q 544 1028 532 985 q 567 1118 557 1071 q 581 1201 576 1165 q 594 1231 582 1221 q 642 1242 607 1242 q 691 1231 675 1242 q 706 1201 707 1221 q 685 1110 701 1163 q 649 1007 669 1058 q 604 917 628 956 q 586 899 599 907 q 546 903 574 892 z "},"Ļ":{"ha":868,"x_min":119,"x_max":793,"o":"m 181 0 q 128 56 119 0 l 313 1199 q 330 1227 315 1218 q 375 1236 344 1236 q 422 1227 407 1236 q 433 1197 438 1218 l 258 111 l 761 111 q 786 99 779 111 q 789 56 793 86 q 775 14 786 28 q 746 0 764 0 l 181 0 m 346 -401 q 326 -378 329 -392 q 333 -347 324 -365 q 367 -276 354 -307 q 385 -215 379 -246 q 392 -142 390 -183 q 408 -108 393 -118 q 449 -99 422 -99 q 497 -114 481 -99 q 513 -156 514 -129 q 497 -230 511 -190 q 461 -307 483 -269 q 413 -379 439 -344 q 381 -404 396 -399 q 346 -401 365 -410 z "},"Ŀ":{"ha":868,"x_min":119,"x_max":793,"o":"m 181 0 q 128 56 119 0 l 313 1199 q 330 1227 315 1218 q 375 1236 344 1236 q 422 1227 407 1236 q 433 1197 438 1218 l 258 111 l 761 111 q 786 99 779 111 q 789 56 793 86 q 775 14 786 28 q 746 0 764 0 l 181 0 m 688 540 q 634 560 654 540 q 614 619 614 581 q 636 688 614 661 q 704 715 658 715 q 756 696 736 715 q 776 636 776 676 q 754 568 776 596 q 688 540 732 540 z "},"Ł":{"ha":868,"x_min":56,"x_max":793,"o":"m 181 0 q 128 56 119 0 l 313 1199 q 330 1227 315 1218 q 375 1236 344 1236 q 422 1227 407 1236 q 433 1197 438 1218 l 258 111 l 761 111 q 786 99 779 111 q 789 56 793 86 q 775 14 786 28 q 746 0 764 0 l 181 0 m 124 499 q 90 496 104 490 q 63 525 75 501 q 57 560 56 542 q 78 588 58 579 l 543 794 q 574 799 563 803 q 597 778 586 794 q 592 711 625 726 l 124 499 z "},"Ń":{"ha":1233,"x_min":115,"x_max":1206,"o":"m 176 -19 q 121 19 115 -19 l 313 1199 q 332 1227 315 1218 q 379 1236 349 1236 q 418 1227 404 1236 q 443 1199 432 1218 l 917 229 l 1076 1199 q 1096 1227 1079 1218 q 1143 1236 1113 1236 q 1197 1199 1206 1236 l 1007 19 q 988 -10 1004 0 q 942 -19 971 -19 q 908 -12 919 -19 q 885 19 896 -6 l 404 1004 l 243 19 q 224 -10 240 0 q 176 -19 207 -19 m 713 1293 q 680 1313 699 1293 q 661 1346 661 1332 q 663 1356 661 1351 q 672 1369 664 1361 l 871 1568 q 883 1579 878 1575 q 897 1583 889 1583 q 929 1571 911 1583 q 960 1542 947 1558 q 974 1511 974 1525 q 970 1494 974 1501 q 951 1476 967 1488 l 739 1307 q 724 1297 731 1301 q 713 1293 718 1293 z "},"Ň":{"ha":1233,"x_min":115,"x_max":1206,"o":"m 176 -19 q 121 19 115 -19 l 313 1199 q 332 1227 315 1218 q 379 1236 349 1236 q 418 1227 404 1236 q 443 1199 432 1218 l 917 229 l 1076 1199 q 1096 1227 1079 1218 q 1143 1236 1113 1236 q 1197 1199 1206 1236 l 1007 19 q 988 -10 1004 0 q 942 -19 971 -19 q 908 -12 919 -19 q 885 19 896 -6 l 404 1004 l 243 19 q 224 -10 240 0 q 176 -19 207 -19 m 1014 1583 q 1044 1567 1029 1583 q 1060 1535 1060 1550 q 1058 1520 1060 1526 q 1049 1507 1056 1514 l 843 1324 q 813 1302 828 1311 q 772 1293 797 1293 q 737 1303 750 1293 q 714 1326 724 1313 l 557 1513 q 549 1528 550 1522 q 547 1539 547 1535 q 567 1569 547 1556 q 599 1583 586 1583 q 618 1577 611 1583 q 635 1564 625 1571 l 786 1433 l 976 1564 q 995 1577 988 1571 q 1014 1583 1003 1583 z "},"Ņ":{"ha":1233,"x_min":115,"x_max":1206,"o":"m 176 -19 q 121 19 115 -19 l 313 1199 q 332 1227 315 1218 q 379 1236 349 1236 q 418 1227 404 1236 q 443 1199 432 1218 l 917 229 l 1076 1199 q 1096 1227 1079 1218 q 1143 1236 1113 1236 q 1197 1199 1206 1236 l 1007 19 q 988 -10 1004 0 q 942 -19 971 -19 q 908 -12 919 -19 q 885 19 896 -6 l 404 1004 l 243 19 q 224 -10 240 0 q 176 -19 207 -19 m 442 -401 q 422 -378 425 -392 q 429 -347 419 -365 q 463 -276 450 -307 q 481 -215 475 -246 q 488 -142 486 -183 q 503 -108 489 -118 q 544 -99 518 -99 q 593 -114 576 -99 q 608 -156 610 -129 q 593 -230 607 -190 q 557 -307 579 -269 q 508 -379 535 -344 q 476 -404 492 -399 q 442 -401 461 -410 z "},"Ñ":{"ha":1233,"x_min":115,"x_max":1206,"o":"m 176 -19 q 121 19 115 -19 l 313 1199 q 332 1227 315 1218 q 379 1236 349 1236 q 418 1227 404 1236 q 443 1199 432 1218 l 917 229 l 1076 1199 q 1096 1227 1079 1218 q 1143 1236 1113 1236 q 1197 1199 1206 1236 l 1007 19 q 988 -10 1004 0 q 942 -19 971 -19 q 908 -12 919 -19 q 885 19 896 -6 l 404 1004 l 243 19 q 224 -10 240 0 q 176 -19 207 -19 m 581 1332 q 536 1369 536 1332 q 572 1505 540 1464 q 664 1546 604 1546 q 742 1531 706 1546 q 810 1497 778 1517 q 870 1464 843 1478 q 918 1450 897 1450 q 942 1465 932 1450 q 957 1514 953 1481 q 1008 1547 958 1547 q 1044 1538 1033 1547 q 1053 1510 1054 1529 q 1019 1378 1050 1424 q 924 1333 989 1333 q 844 1348 881 1333 q 776 1381 807 1363 q 719 1413 744 1399 q 669 1428 693 1428 q 644 1414 654 1428 q 632 1368 635 1400 q 617 1341 631 1350 q 581 1332 604 1332 z "},"Ó":{"ha":1285,"x_min":146,"x_max":1222,"o":"m 622 -26 q 426 14 514 -26 q 275 127 338 54 q 179 300 213 200 q 146 522 146 400 q 163 694 146 608 q 215 860 181 779 q 301 1008 250 940 q 419 1128 351 1076 q 569 1208 486 1179 q 750 1236 653 1236 q 944 1197 857 1236 q 1094 1084 1032 1157 q 1189 911 1156 1011 q 1222 689 1222 811 q 1204 511 1222 599 q 1151 344 1186 424 q 1064 197 1115 264 q 946 79 1013 129 q 798 1 879 29 q 622 -26 717 -26 m 632 92 q 766 114 704 92 q 879 177 828 136 q 971 273 931 218 q 1038 394 1011 328 q 1079 531 1065 460 q 1093 678 1093 603 q 1069 867 1093 785 q 998 1005 1044 949 q 886 1090 951 1061 q 739 1118 821 1118 q 606 1096 668 1118 q 492 1033 544 1074 q 400 936 440 992 q 332 815 360 881 q 290 678 304 750 q 275 533 275 607 q 300 345 275 428 q 371 206 325 263 q 483 121 417 150 q 632 92 549 92 m 721 1293 q 688 1313 707 1293 q 669 1346 669 1332 q 671 1356 669 1351 q 681 1369 672 1361 l 879 1568 q 892 1579 886 1575 q 906 1583 897 1583 q 938 1571 919 1583 q 969 1542 956 1558 q 982 1511 982 1525 q 978 1494 982 1501 q 960 1476 975 1488 l 747 1307 q 733 1297 739 1301 q 721 1293 726 1293 z "},"Ŏ":{"ha":1285,"x_min":146,"x_max":1222,"o":"m 622 -26 q 426 14 514 -26 q 275 127 338 54 q 179 300 213 200 q 146 522 146 400 q 163 694 146 608 q 215 860 181 779 q 301 1008 250 940 q 419 1128 351 1076 q 569 1208 486 1179 q 750 1236 653 1236 q 944 1197 857 1236 q 1094 1084 1032 1157 q 1189 911 1156 1011 q 1222 689 1222 811 q 1204 511 1222 599 q 1151 344 1186 424 q 1064 197 1115 264 q 946 79 1013 129 q 798 1 879 29 q 622 -26 717 -26 m 632 92 q 766 114 704 92 q 879 177 828 136 q 971 273 931 218 q 1038 394 1011 328 q 1079 531 1065 460 q 1093 678 1093 603 q 1069 867 1093 785 q 998 1005 1044 949 q 886 1090 951 1061 q 739 1118 821 1118 q 606 1096 668 1118 q 492 1033 544 1074 q 400 936 440 992 q 332 815 360 881 q 290 678 304 750 q 275 533 275 607 q 300 345 275 428 q 371 206 325 263 q 483 121 417 150 q 632 92 549 92 m 790 1293 q 627 1355 686 1293 q 569 1543 568 1417 q 584 1572 571 1561 q 621 1582 597 1582 q 653 1572 642 1582 q 667 1543 664 1561 q 710 1445 675 1476 q 800 1414 744 1414 q 904 1448 863 1414 q 967 1542 946 1482 q 985 1573 975 1564 q 1015 1582 994 1582 q 1054 1569 1040 1582 q 1064 1539 1068 1557 q 1009 1397 1046 1451 q 917 1318 972 1343 q 790 1293 863 1293 z "},"Ǒ":{"ha":1285,"x_min":146,"x_max":1222,"o":"m 622 -26 q 426 14 514 -26 q 275 127 338 54 q 179 300 213 200 q 146 522 146 400 q 163 694 146 608 q 215 860 181 779 q 301 1008 250 940 q 419 1128 351 1076 q 569 1208 486 1179 q 750 1236 653 1236 q 944 1197 857 1236 q 1094 1084 1032 1157 q 1189 911 1156 1011 q 1222 689 1222 811 q 1204 511 1222 599 q 1151 344 1186 424 q 1064 197 1115 264 q 946 79 1013 129 q 798 1 879 29 q 622 -26 717 -26 m 632 92 q 766 114 704 92 q 879 177 828 136 q 971 273 931 218 q 1038 394 1011 328 q 1079 531 1065 460 q 1093 678 1093 603 q 1069 867 1093 785 q 998 1005 1044 949 q 886 1090 951 1061 q 739 1118 821 1118 q 606 1096 668 1118 q 492 1033 544 1074 q 400 936 440 992 q 332 815 360 881 q 290 678 304 750 q 275 533 275 607 q 300 345 275 428 q 371 206 325 263 q 483 121 417 150 q 632 92 549 92 m 1022 1583 q 1053 1567 1038 1583 q 1068 1535 1068 1550 q 1066 1520 1068 1526 q 1057 1507 1064 1514 l 851 1324 q 821 1302 836 1311 q 781 1293 806 1293 q 745 1303 758 1293 q 722 1326 732 1313 l 565 1513 q 557 1528 558 1522 q 556 1539 556 1535 q 575 1569 556 1556 q 607 1583 594 1583 q 626 1577 619 1583 q 643 1564 633 1571 l 794 1433 l 985 1564 q 1003 1577 996 1571 q 1022 1583 1011 1583 z "},"Ô":{"ha":1285,"x_min":146,"x_max":1222,"o":"m 622 -26 q 426 14 514 -26 q 275 127 338 54 q 179 300 213 200 q 146 522 146 400 q 163 694 146 608 q 215 860 181 779 q 301 1008 250 940 q 419 1128 351 1076 q 569 1208 486 1179 q 750 1236 653 1236 q 944 1197 857 1236 q 1094 1084 1032 1157 q 1189 911 1156 1011 q 1222 689 1222 811 q 1204 511 1222 599 q 1151 344 1186 424 q 1064 197 1115 264 q 946 79 1013 129 q 798 1 879 29 q 622 -26 717 -26 m 632 92 q 766 114 704 92 q 879 177 828 136 q 971 273 931 218 q 1038 394 1011 328 q 1079 531 1065 460 q 1093 678 1093 603 q 1069 867 1093 785 q 998 1005 1044 949 q 886 1090 951 1061 q 739 1118 821 1118 q 606 1096 668 1118 q 492 1033 544 1074 q 400 936 440 992 q 332 815 360 881 q 290 678 304 750 q 275 533 275 607 q 300 345 275 428 q 371 206 325 263 q 483 121 417 150 q 632 92 549 92 m 582 1293 q 553 1310 568 1293 q 538 1342 538 1326 q 540 1356 538 1350 q 550 1369 543 1363 l 754 1553 q 785 1575 769 1567 q 825 1583 801 1583 q 860 1574 847 1583 q 885 1551 874 1565 l 1042 1364 q 1049 1349 1049 1356 q 1050 1338 1050 1343 q 1033 1308 1050 1322 q 1001 1293 1015 1293 q 981 1299 990 1293 q 963 1314 972 1306 l 813 1443 l 621 1310 q 602 1298 611 1303 q 582 1293 593 1293 z "},"Ö":{"ha":1285,"x_min":146,"x_max":1222,"o":"m 622 -26 q 426 14 514 -26 q 275 127 338 54 q 179 300 213 200 q 146 522 146 400 q 163 694 146 608 q 215 860 181 779 q 301 1008 250 940 q 419 1128 351 1076 q 569 1208 486 1179 q 750 1236 653 1236 q 944 1197 857 1236 q 1094 1084 1032 1157 q 1189 911 1156 1011 q 1222 689 1222 811 q 1204 511 1222 599 q 1151 344 1186 424 q 1064 197 1115 264 q 946 79 1013 129 q 798 1 879 29 q 622 -26 717 -26 m 632 92 q 766 114 704 92 q 879 177 828 136 q 971 273 931 218 q 1038 394 1011 328 q 1079 531 1065 460 q 1093 678 1093 603 q 1069 867 1093 785 q 998 1005 1044 949 q 886 1090 951 1061 q 739 1118 821 1118 q 606 1096 668 1118 q 492 1033 544 1074 q 400 936 440 992 q 332 815 360 881 q 290 678 304 750 q 275 533 275 607 q 300 345 275 428 q 371 206 325 263 q 483 121 417 150 q 632 92 549 92 m 625 1338 q 571 1357 590 1338 q 551 1417 551 1376 q 574 1485 551 1457 q 642 1513 596 1513 q 694 1492 675 1513 q 713 1433 713 1472 q 692 1365 714 1392 q 625 1338 671 1338 m 961 1338 q 908 1357 928 1338 q 889 1417 889 1376 q 911 1485 889 1457 q 978 1513 933 1513 q 1031 1492 1011 1513 q 1050 1433 1050 1472 q 1029 1365 1051 1392 q 961 1338 1007 1338 z "},"Ò":{"ha":1285,"x_min":146,"x_max":1222,"o":"m 622 -26 q 426 14 514 -26 q 275 127 338 54 q 179 300 213 200 q 146 522 146 400 q 163 694 146 608 q 215 860 181 779 q 301 1008 250 940 q 419 1128 351 1076 q 569 1208 486 1179 q 750 1236 653 1236 q 944 1197 857 1236 q 1094 1084 1032 1157 q 1189 911 1156 1011 q 1222 689 1222 811 q 1204 511 1222 599 q 1151 344 1186 424 q 1064 197 1115 264 q 946 79 1013 129 q 798 1 879 29 q 622 -26 717 -26 m 632 92 q 766 114 704 92 q 879 177 828 136 q 971 273 931 218 q 1038 394 1011 328 q 1079 531 1065 460 q 1093 678 1093 603 q 1069 867 1093 785 q 998 1005 1044 949 q 886 1090 951 1061 q 739 1118 821 1118 q 606 1096 668 1118 q 492 1033 544 1074 q 400 936 440 992 q 332 815 360 881 q 290 678 304 750 q 275 533 275 607 q 300 345 275 428 q 371 206 325 263 q 483 121 417 150 q 632 92 549 92 m 851 1293 q 840 1297 847 1293 q 826 1307 833 1301 l 631 1478 q 613 1496 617 1489 q 610 1513 610 1503 q 623 1543 610 1526 q 654 1572 636 1560 q 686 1583 672 1583 q 701 1579 694 1583 q 713 1568 707 1575 l 893 1369 q 904 1355 903 1360 q 906 1346 906 1350 q 886 1313 906 1332 q 851 1293 867 1293 z "},"Ő":{"ha":1285,"x_min":146,"x_max":1222,"o":"m 622 -26 q 426 14 514 -26 q 275 127 338 54 q 179 300 213 200 q 146 522 146 400 q 163 694 146 608 q 215 860 181 779 q 301 1008 250 940 q 419 1128 351 1076 q 569 1208 486 1179 q 750 1236 653 1236 q 944 1197 857 1236 q 1094 1084 1032 1157 q 1189 911 1156 1011 q 1222 689 1222 811 q 1204 511 1222 599 q 1151 344 1186 424 q 1064 197 1115 264 q 946 79 1013 129 q 798 1 879 29 q 622 -26 717 -26 m 632 92 q 766 114 704 92 q 879 177 828 136 q 971 273 931 218 q 1038 394 1011 328 q 1079 531 1065 460 q 1093 678 1093 603 q 1069 867 1093 785 q 998 1005 1044 949 q 886 1090 951 1061 q 739 1118 821 1118 q 606 1096 668 1118 q 492 1033 544 1074 q 400 936 440 992 q 332 815 360 881 q 290 678 304 750 q 275 533 275 607 q 300 345 275 428 q 371 206 325 263 q 483 121 417 150 q 632 92 549 92 m 642 1293 q 608 1313 628 1293 q 589 1346 589 1332 q 590 1356 589 1351 q 601 1369 592 1361 l 783 1568 q 797 1579 790 1575 q 810 1583 803 1583 q 842 1572 825 1583 q 871 1543 858 1560 q 883 1513 883 1526 q 880 1496 883 1503 q 861 1478 876 1489 l 668 1307 q 653 1297 660 1301 q 642 1293 647 1293 m 901 1293 q 869 1313 888 1293 q 850 1346 850 1332 q 851 1356 850 1351 q 863 1369 853 1361 l 1046 1568 q 1060 1579 1053 1575 q 1075 1583 1067 1583 q 1106 1572 1089 1583 q 1135 1543 1124 1560 q 1147 1513 1147 1526 q 1144 1496 1147 1503 q 1126 1478 1140 1489 l 928 1307 q 914 1297 921 1301 q 901 1293 907 1293 z "},"Ō":{"ha":1285,"x_min":146,"x_max":1222,"o":"m 622 -26 q 426 14 514 -26 q 275 127 338 54 q 179 300 213 200 q 146 522 146 400 q 163 694 146 608 q 215 860 181 779 q 301 1008 250 940 q 419 1128 351 1076 q 569 1208 486 1179 q 750 1236 653 1236 q 944 1197 857 1236 q 1094 1084 1032 1157 q 1189 911 1156 1011 q 1222 689 1222 811 q 1204 511 1222 599 q 1151 344 1186 424 q 1064 197 1115 264 q 946 79 1013 129 q 798 1 879 29 q 622 -26 717 -26 m 632 92 q 766 114 704 92 q 879 177 828 136 q 971 273 931 218 q 1038 394 1011 328 q 1079 531 1065 460 q 1093 678 1093 603 q 1069 867 1093 785 q 998 1005 1044 949 q 886 1090 951 1061 q 739 1118 821 1118 q 606 1096 668 1118 q 492 1033 544 1074 q 400 936 440 992 q 332 815 360 881 q 290 678 304 750 q 275 533 275 607 q 300 345 275 428 q 371 206 325 263 q 483 121 417 150 q 632 92 549 92 m 613 1379 q 581 1395 588 1379 q 578 1436 574 1411 q 590 1481 581 1465 q 625 1497 600 1497 l 993 1497 q 1026 1480 1019 1497 q 1028 1436 1032 1463 q 1015 1394 1025 1410 q 981 1379 1006 1379 l 613 1379 z "},"Ø":{"ha":1285,"x_min":146,"x_max":1222,"o":"m 622 -26 q 426 14 514 -26 q 275 127 338 54 q 179 300 213 200 q 146 522 146 400 q 163 694 146 608 q 215 860 181 779 q 301 1008 250 940 q 419 1128 351 1076 q 569 1208 486 1179 q 750 1236 653 1236 q 944 1197 857 1236 q 1094 1084 1032 1157 q 1189 911 1156 1011 q 1222 689 1222 811 q 1204 511 1222 599 q 1151 344 1186 424 q 1064 197 1115 264 q 946 79 1013 129 q 798 1 879 29 q 622 -26 717 -26 m 632 92 q 766 114 704 92 q 879 177 828 136 q 971 273 931 218 q 1038 394 1011 328 q 1079 531 1065 460 q 1093 678 1093 603 q 1069 867 1093 785 q 998 1005 1044 949 q 886 1090 951 1061 q 739 1118 821 1118 q 606 1096 668 1118 q 492 1033 544 1074 q 400 936 440 992 q 332 815 360 881 q 290 678 304 750 q 275 533 275 607 q 300 345 275 428 q 371 206 325 263 q 483 121 417 150 q 632 92 549 92 m 276 -69 q 247 -91 267 -85 q 200 -78 228 -97 q 179 -8 153 -47 l 1099 1268 q 1131 1287 1110 1283 q 1175 1275 1151 1290 q 1201 1243 1196 1263 q 1193 1204 1206 1224 l 276 -69 z "},"Õ":{"ha":1285,"x_min":146,"x_max":1222,"o":"m 622 -26 q 426 14 514 -26 q 275 127 338 54 q 179 300 213 200 q 146 522 146 400 q 163 694 146 608 q 215 860 181 779 q 301 1008 250 940 q 419 1128 351 1076 q 569 1208 486 1179 q 750 1236 653 1236 q 944 1197 857 1236 q 1094 1084 1032 1157 q 1189 911 1156 1011 q 1222 689 1222 811 q 1204 511 1222 599 q 1151 344 1186 424 q 1064 197 1115 264 q 946 79 1013 129 q 798 1 879 29 q 622 -26 717 -26 m 632 92 q 766 114 704 92 q 879 177 828 136 q 971 273 931 218 q 1038 394 1011 328 q 1079 531 1065 460 q 1093 678 1093 603 q 1069 867 1093 785 q 998 1005 1044 949 q 886 1090 951 1061 q 739 1118 821 1118 q 606 1096 668 1118 q 492 1033 544 1074 q 400 936 440 992 q 332 815 360 881 q 290 678 304 750 q 275 533 275 607 q 300 345 275 428 q 371 206 325 263 q 483 121 417 150 q 632 92 549 92 m 590 1332 q 546 1369 546 1332 q 582 1505 550 1464 q 674 1546 614 1546 q 751 1531 715 1546 q 820 1497 788 1517 q 880 1464 853 1478 q 928 1450 907 1450 q 952 1465 942 1450 q 967 1514 963 1481 q 1018 1547 968 1547 q 1053 1538 1043 1547 q 1063 1510 1064 1529 q 1029 1378 1060 1424 q 933 1333 999 1333 q 853 1348 890 1333 q 785 1381 817 1363 q 728 1413 754 1399 q 679 1428 703 1428 q 654 1414 664 1428 q 642 1368 644 1400 q 627 1341 640 1350 q 590 1332 614 1332 z "},"Ố":{"ha":1285,"x_min":146,"x_max":1271,"o":"m 622 -26 q 426 14 514 -26 q 275 127 338 54 q 179 300 213 200 q 146 522 146 400 q 163 694 146 608 q 215 860 181 779 q 301 1008 250 940 q 419 1128 351 1076 q 569 1208 486 1179 q 750 1236 653 1236 q 944 1197 857 1236 q 1094 1084 1032 1157 q 1189 911 1156 1011 q 1222 689 1222 811 q 1204 511 1222 599 q 1151 344 1186 424 q 1064 197 1115 264 q 946 79 1013 129 q 798 1 879 29 q 622 -26 717 -26 m 632 92 q 766 114 704 92 q 879 177 828 136 q 971 273 931 218 q 1038 394 1011 328 q 1079 531 1065 460 q 1093 678 1093 603 q 1069 867 1093 785 q 998 1005 1044 949 q 886 1090 951 1061 q 739 1118 821 1118 q 606 1096 668 1118 q 492 1033 544 1074 q 400 936 440 992 q 332 815 360 881 q 290 678 304 750 q 275 533 275 607 q 300 345 275 428 q 371 206 325 263 q 483 121 417 150 q 632 92 549 92 m 582 1293 q 553 1310 568 1293 q 538 1342 538 1326 q 540 1356 538 1350 q 550 1369 543 1363 l 754 1553 q 785 1575 769 1567 q 825 1583 801 1583 q 860 1574 847 1583 q 885 1551 874 1565 l 1042 1364 q 1049 1349 1049 1356 q 1050 1338 1050 1343 q 1033 1308 1050 1322 q 1001 1293 1015 1293 q 981 1299 990 1293 q 963 1314 972 1306 l 813 1443 l 621 1310 q 602 1298 611 1303 q 582 1293 593 1293 m 1031 1513 q 997 1532 1017 1513 q 978 1565 978 1551 q 979 1575 978 1571 q 990 1589 981 1579 l 1168 1769 q 1181 1782 1176 1778 q 1194 1786 1186 1786 q 1226 1774 1208 1786 q 1258 1744 1244 1761 q 1271 1713 1271 1726 q 1268 1697 1271 1703 q 1250 1678 1265 1690 l 1057 1526 q 1042 1517 1049 1521 q 1031 1513 1036 1513 z "},"Ộ":{"ha":1285,"x_min":146,"x_max":1222,"o":"m 622 -26 q 426 14 514 -26 q 275 127 338 54 q 179 300 213 200 q 146 522 146 400 q 163 694 146 608 q 215 860 181 779 q 301 1008 250 940 q 419 1128 351 1076 q 569 1208 486 1179 q 750 1236 653 1236 q 944 1197 857 1236 q 1094 1084 1032 1157 q 1189 911 1156 1011 q 1222 689 1222 811 q 1204 511 1222 599 q 1151 344 1186 424 q 1064 197 1115 264 q 946 79 1013 129 q 798 1 879 29 q 622 -26 717 -26 m 632 92 q 766 114 704 92 q 879 177 828 136 q 971 273 931 218 q 1038 394 1011 328 q 1079 531 1065 460 q 1093 678 1093 603 q 1069 867 1093 785 q 998 1005 1044 949 q 886 1090 951 1061 q 739 1118 821 1118 q 606 1096 668 1118 q 492 1033 544 1074 q 400 936 440 992 q 332 815 360 881 q 290 678 304 750 q 275 533 275 607 q 300 345 275 428 q 371 206 325 263 q 483 121 417 150 q 632 92 549 92 m 540 -324 q 488 -304 507 -324 q 468 -244 468 -285 q 490 -176 468 -204 q 557 -149 511 -149 q 610 -169 590 -149 q 629 -228 629 -189 q 607 -297 629 -269 q 540 -324 585 -324 m 582 1293 q 553 1310 568 1293 q 538 1342 538 1326 q 540 1356 538 1350 q 550 1369 543 1363 l 754 1553 q 785 1575 769 1567 q 825 1583 801 1583 q 860 1574 847 1583 q 885 1551 874 1565 l 1042 1364 q 1049 1349 1049 1356 q 1050 1338 1050 1343 q 1033 1308 1050 1322 q 1001 1293 1015 1293 q 981 1299 990 1293 q 963 1314 972 1306 l 813 1443 l 621 1310 q 602 1298 611 1303 q 582 1293 593 1293 z "},"Ồ":{"ha":1285,"x_min":146,"x_max":1222,"o":"m 622 -26 q 426 14 514 -26 q 275 127 338 54 q 179 300 213 200 q 146 522 146 400 q 163 694 146 608 q 215 860 181 779 q 301 1008 250 940 q 419 1128 351 1076 q 569 1208 486 1179 q 750 1236 653 1236 q 944 1197 857 1236 q 1094 1084 1032 1157 q 1189 911 1156 1011 q 1222 689 1222 811 q 1204 511 1222 599 q 1151 344 1186 424 q 1064 197 1115 264 q 946 79 1013 129 q 798 1 879 29 q 622 -26 717 -26 m 632 92 q 766 114 704 92 q 879 177 828 136 q 971 273 931 218 q 1038 394 1011 328 q 1079 531 1065 460 q 1093 678 1093 603 q 1069 867 1093 785 q 998 1005 1044 949 q 886 1090 951 1061 q 739 1118 821 1118 q 606 1096 668 1118 q 492 1033 544 1074 q 400 936 440 992 q 332 815 360 881 q 290 678 304 750 q 275 533 275 607 q 300 345 275 428 q 371 206 325 263 q 483 121 417 150 q 632 92 549 92 m 582 1293 q 553 1310 568 1293 q 538 1342 538 1326 q 540 1356 538 1350 q 550 1369 543 1363 l 754 1553 q 785 1575 769 1567 q 825 1583 801 1583 q 860 1574 847 1583 q 885 1551 874 1565 l 1042 1364 q 1049 1349 1049 1356 q 1050 1338 1050 1343 q 1033 1308 1050 1322 q 1001 1293 1015 1293 q 981 1299 990 1293 q 963 1314 972 1306 l 813 1443 l 621 1310 q 602 1298 611 1303 q 582 1293 593 1293 m 1108 1492 q 1097 1495 1103 1492 q 1082 1506 1090 1499 l 904 1690 q 888 1710 892 1704 q 883 1726 883 1717 q 897 1757 883 1740 q 928 1785 910 1774 q 963 1797 947 1797 q 976 1793 969 1797 q 990 1781 983 1789 l 1150 1569 q 1160 1553 1157 1558 q 1163 1543 1163 1549 q 1144 1510 1163 1529 q 1108 1492 1125 1492 z "},"Ổ":{"ha":1285,"x_min":146,"x_max":1226,"o":"m 622 -26 q 426 14 514 -26 q 275 127 338 54 q 179 300 213 200 q 146 522 146 400 q 163 694 146 608 q 215 860 181 779 q 301 1008 250 940 q 419 1128 351 1076 q 569 1208 486 1179 q 750 1236 653 1236 q 944 1197 857 1236 q 1094 1084 1032 1157 q 1189 911 1156 1011 q 1222 689 1222 811 q 1204 511 1222 599 q 1151 344 1186 424 q 1064 197 1115 264 q 946 79 1013 129 q 798 1 879 29 q 622 -26 717 -26 m 632 92 q 766 114 704 92 q 879 177 828 136 q 971 273 931 218 q 1038 394 1011 328 q 1079 531 1065 460 q 1093 678 1093 603 q 1069 867 1093 785 q 998 1005 1044 949 q 886 1090 951 1061 q 739 1118 821 1118 q 606 1096 668 1118 q 492 1033 544 1074 q 400 936 440 992 q 332 815 360 881 q 290 678 304 750 q 275 533 275 607 q 300 345 275 428 q 371 206 325 263 q 483 121 417 150 q 632 92 549 92 m 582 1293 q 553 1310 568 1293 q 538 1342 538 1326 q 540 1356 538 1350 q 550 1369 543 1363 l 754 1553 q 785 1575 769 1567 q 825 1583 801 1583 q 860 1574 847 1583 q 885 1551 874 1565 l 1042 1364 q 1049 1349 1049 1356 q 1050 1338 1050 1343 q 1033 1308 1050 1322 q 1001 1293 1015 1293 q 981 1299 990 1293 q 963 1314 972 1306 l 813 1443 l 621 1310 q 602 1298 611 1303 q 582 1293 593 1293 m 1085 1811 q 1188 1781 1150 1811 q 1226 1699 1226 1751 q 1208 1633 1226 1663 q 1149 1574 1190 1603 q 1121 1548 1129 1560 q 1113 1522 1113 1536 l 1111 1507 q 1099 1481 1113 1490 q 1067 1469 1085 1471 q 1034 1474 1049 1467 q 1015 1496 1019 1481 l 1007 1531 q 1012 1588 1000 1563 q 1053 1633 1024 1613 q 1083 1662 1074 1649 q 1093 1685 1093 1675 q 1083 1703 1093 1696 q 1056 1710 1074 1710 q 1019 1705 1039 1710 q 982 1692 1000 1700 q 925 1715 947 1672 q 940 1772 908 1751 q 1008 1801 972 1790 q 1085 1811 1044 1811 z "},"Ỗ":{"ha":1285,"x_min":146,"x_max":1222,"o":"m 622 -26 q 426 14 514 -26 q 275 127 338 54 q 179 300 213 200 q 146 522 146 400 q 163 694 146 608 q 215 860 181 779 q 301 1008 250 940 q 419 1128 351 1076 q 569 1208 486 1179 q 750 1236 653 1236 q 944 1197 857 1236 q 1094 1084 1032 1157 q 1189 911 1156 1011 q 1222 689 1222 811 q 1204 511 1222 599 q 1151 344 1186 424 q 1064 197 1115 264 q 946 79 1013 129 q 798 1 879 29 q 622 -26 717 -26 m 632 92 q 766 114 704 92 q 879 177 828 136 q 971 273 931 218 q 1038 394 1011 328 q 1079 531 1065 460 q 1093 678 1093 603 q 1069 867 1093 785 q 998 1005 1044 949 q 886 1090 951 1061 q 739 1118 821 1118 q 606 1096 668 1118 q 492 1033 544 1074 q 400 936 440 992 q 332 815 360 881 q 290 678 304 750 q 275 533 275 607 q 300 345 275 428 q 371 206 325 263 q 483 121 417 150 q 632 92 549 92 m 582 1293 q 553 1310 568 1293 q 538 1342 538 1326 q 540 1356 538 1350 q 550 1369 543 1363 l 754 1553 q 785 1575 769 1567 q 825 1583 801 1583 q 860 1574 847 1583 q 885 1551 874 1565 l 1042 1364 q 1049 1349 1049 1356 q 1050 1338 1050 1343 q 1033 1308 1050 1322 q 1001 1293 1015 1293 q 981 1299 990 1293 q 963 1314 972 1306 l 813 1443 l 621 1310 q 602 1298 611 1303 q 582 1293 593 1293 m 622 1597 q 578 1635 578 1597 q 614 1769 582 1728 q 706 1810 646 1810 q 783 1796 747 1810 q 852 1763 819 1782 q 912 1728 885 1743 q 960 1714 939 1714 q 984 1730 974 1714 q 997 1779 994 1746 q 1050 1813 1000 1813 q 1085 1803 1075 1813 q 1094 1775 1096 1793 q 1061 1644 1092 1689 q 965 1599 1031 1599 q 885 1613 921 1599 q 817 1645 849 1626 q 760 1678 786 1664 q 711 1692 735 1692 q 685 1678 694 1692 q 674 1633 676 1665 q 659 1606 672 1615 q 622 1597 646 1597 z "},"Ọ":{"ha":1285,"x_min":146,"x_max":1222,"o":"m 622 -26 q 426 14 514 -26 q 275 127 338 54 q 179 300 213 200 q 146 522 146 400 q 163 694 146 608 q 215 860 181 779 q 301 1008 250 940 q 419 1128 351 1076 q 569 1208 486 1179 q 750 1236 653 1236 q 944 1197 857 1236 q 1094 1084 1032 1157 q 1189 911 1156 1011 q 1222 689 1222 811 q 1204 511 1222 599 q 1151 344 1186 424 q 1064 197 1115 264 q 946 79 1013 129 q 798 1 879 29 q 622 -26 717 -26 m 632 92 q 766 114 704 92 q 879 177 828 136 q 971 273 931 218 q 1038 394 1011 328 q 1079 531 1065 460 q 1093 678 1093 603 q 1069 867 1093 785 q 998 1005 1044 949 q 886 1090 951 1061 q 739 1118 821 1118 q 606 1096 668 1118 q 492 1033 544 1074 q 400 936 440 992 q 332 815 360 881 q 290 678 304 750 q 275 533 275 607 q 300 345 275 428 q 371 206 325 263 q 483 121 417 150 q 632 92 549 92 m 540 -324 q 488 -304 507 -324 q 468 -244 468 -285 q 490 -176 468 -204 q 557 -149 511 -149 q 610 -169 590 -149 q 629 -228 629 -189 q 607 -297 629 -269 q 540 -324 585 -324 z "},"Ỏ":{"ha":1285,"x_min":146,"x_max":1222,"o":"m 622 -26 q 426 14 514 -26 q 275 127 338 54 q 179 300 213 200 q 146 522 146 400 q 163 694 146 608 q 215 860 181 779 q 301 1008 250 940 q 419 1128 351 1076 q 569 1208 486 1179 q 750 1236 653 1236 q 944 1197 857 1236 q 1094 1084 1032 1157 q 1189 911 1156 1011 q 1222 689 1222 811 q 1204 511 1222 599 q 1151 344 1186 424 q 1064 197 1115 264 q 946 79 1013 129 q 798 1 879 29 q 622 -26 717 -26 m 632 92 q 766 114 704 92 q 879 177 828 136 q 971 273 931 218 q 1038 394 1011 328 q 1079 531 1065 460 q 1093 678 1093 603 q 1069 867 1093 785 q 998 1005 1044 949 q 886 1090 951 1061 q 739 1118 821 1118 q 606 1096 668 1118 q 492 1033 544 1074 q 400 936 440 992 q 332 815 360 881 q 290 678 304 750 q 275 533 275 607 q 300 345 275 428 q 371 206 325 263 q 483 121 417 150 q 632 92 549 92 m 824 1622 q 927 1592 889 1622 q 965 1510 965 1563 q 947 1444 965 1474 q 889 1385 929 1414 q 860 1359 868 1371 q 853 1333 853 1347 l 851 1318 q 838 1292 851 1301 q 807 1280 825 1282 q 774 1285 789 1278 q 754 1307 758 1292 l 746 1342 q 751 1399 739 1374 q 792 1444 764 1424 q 824 1473 814 1460 q 833 1496 833 1486 q 823 1514 833 1507 q 794 1521 813 1521 q 759 1516 779 1521 q 721 1503 739 1511 q 664 1526 686 1483 q 681 1583 649 1563 q 748 1612 711 1601 q 824 1622 785 1622 z "},"Ơ":{"ha":1285,"x_min":146,"x_max":1239,"o":"m 622 -26 q 426 14 514 -26 q 275 127 338 54 q 179 300 213 200 q 146 522 146 400 q 163 694 146 608 q 215 860 181 779 q 301 1008 250 940 q 419 1128 351 1076 q 569 1208 486 1179 q 750 1236 653 1236 q 824 1231 788 1236 q 893 1215 860 1226 q 1022 1235 975 1219 q 1092 1281 1069 1251 q 1118 1356 1114 1311 q 1117 1464 1122 1401 q 1131 1497 1115 1485 q 1169 1510 1147 1508 q 1210 1502 1192 1511 q 1232 1471 1229 1493 q 1235 1365 1239 1415 q 1210 1271 1232 1314 q 1144 1197 1189 1228 q 1025 1150 1100 1167 q 1170 960 1118 1079 q 1222 689 1222 842 q 1204 511 1222 599 q 1151 344 1186 424 q 1064 197 1115 264 q 946 79 1013 129 q 798 1 879 29 q 622 -26 717 -26 m 632 92 q 766 114 704 92 q 879 177 828 136 q 971 273 931 218 q 1038 394 1011 328 q 1079 531 1065 460 q 1093 678 1093 603 q 1069 867 1093 785 q 998 1005 1044 949 q 886 1090 951 1061 q 739 1118 821 1118 q 606 1096 668 1118 q 492 1033 544 1074 q 400 936 440 992 q 332 815 360 881 q 290 678 304 750 q 275 533 275 607 q 300 345 275 428 q 371 206 325 263 q 483 121 417 150 q 632 92 549 92 z "},"Ớ":{"ha":1285,"x_min":146,"x_max":1239,"o":"m 622 -26 q 426 14 514 -26 q 275 127 338 54 q 179 300 213 200 q 146 522 146 400 q 163 694 146 608 q 215 860 181 779 q 301 1008 250 940 q 419 1128 351 1076 q 569 1208 486 1179 q 750 1236 653 1236 q 824 1231 788 1236 q 893 1215 860 1226 q 1022 1235 975 1219 q 1092 1281 1069 1251 q 1118 1356 1114 1311 q 1117 1464 1122 1401 q 1131 1497 1115 1485 q 1169 1510 1147 1508 q 1210 1502 1192 1511 q 1232 1471 1229 1493 q 1235 1365 1239 1415 q 1210 1271 1232 1314 q 1144 1197 1189 1228 q 1025 1150 1100 1167 q 1170 960 1118 1079 q 1222 689 1222 842 q 1204 511 1222 599 q 1151 344 1186 424 q 1064 197 1115 264 q 946 79 1013 129 q 798 1 879 29 q 622 -26 717 -26 m 632 92 q 766 114 704 92 q 879 177 828 136 q 971 273 931 218 q 1038 394 1011 328 q 1079 531 1065 460 q 1093 678 1093 603 q 1069 867 1093 785 q 998 1005 1044 949 q 886 1090 951 1061 q 739 1118 821 1118 q 606 1096 668 1118 q 492 1033 544 1074 q 400 936 440 992 q 332 815 360 881 q 290 678 304 750 q 275 533 275 607 q 300 345 275 428 q 371 206 325 263 q 483 121 417 150 q 632 92 549 92 m 721 1293 q 688 1313 707 1293 q 669 1346 669 1332 q 671 1356 669 1351 q 681 1369 672 1361 l 879 1568 q 892 1579 886 1575 q 906 1583 897 1583 q 938 1571 919 1583 q 969 1542 956 1558 q 982 1511 982 1525 q 978 1494 982 1501 q 960 1476 975 1488 l 747 1307 q 733 1297 739 1301 q 721 1293 726 1293 z "},"Ợ":{"ha":1285,"x_min":146,"x_max":1239,"o":"m 622 -26 q 426 14 514 -26 q 275 127 338 54 q 179 300 213 200 q 146 522 146 400 q 163 694 146 608 q 215 860 181 779 q 301 1008 250 940 q 419 1128 351 1076 q 569 1208 486 1179 q 750 1236 653 1236 q 824 1231 788 1236 q 893 1215 860 1226 q 1022 1235 975 1219 q 1092 1281 1069 1251 q 1118 1356 1114 1311 q 1117 1464 1122 1401 q 1131 1497 1115 1485 q 1169 1510 1147 1508 q 1210 1502 1192 1511 q 1232 1471 1229 1493 q 1235 1365 1239 1415 q 1210 1271 1232 1314 q 1144 1197 1189 1228 q 1025 1150 1100 1167 q 1170 960 1118 1079 q 1222 689 1222 842 q 1204 511 1222 599 q 1151 344 1186 424 q 1064 197 1115 264 q 946 79 1013 129 q 798 1 879 29 q 622 -26 717 -26 m 632 92 q 766 114 704 92 q 879 177 828 136 q 971 273 931 218 q 1038 394 1011 328 q 1079 531 1065 460 q 1093 678 1093 603 q 1069 867 1093 785 q 998 1005 1044 949 q 886 1090 951 1061 q 739 1118 821 1118 q 606 1096 668 1118 q 492 1033 544 1074 q 400 936 440 992 q 332 815 360 881 q 290 678 304 750 q 275 533 275 607 q 300 345 275 428 q 371 206 325 263 q 483 121 417 150 q 632 92 549 92 m 540 -324 q 488 -304 507 -324 q 468 -244 468 -285 q 490 -176 468 -204 q 557 -149 511 -149 q 610 -169 590 -149 q 629 -228 629 -189 q 607 -297 629 -269 q 540 -324 585 -324 z "},"Ờ":{"ha":1285,"x_min":146,"x_max":1239,"o":"m 622 -26 q 426 14 514 -26 q 275 127 338 54 q 179 300 213 200 q 146 522 146 400 q 163 694 146 608 q 215 860 181 779 q 301 1008 250 940 q 419 1128 351 1076 q 569 1208 486 1179 q 750 1236 653 1236 q 824 1231 788 1236 q 893 1215 860 1226 q 1022 1235 975 1219 q 1092 1281 1069 1251 q 1118 1356 1114 1311 q 1117 1464 1122 1401 q 1131 1497 1115 1485 q 1169 1510 1147 1508 q 1210 1502 1192 1511 q 1232 1471 1229 1493 q 1235 1365 1239 1415 q 1210 1271 1232 1314 q 1144 1197 1189 1228 q 1025 1150 1100 1167 q 1170 960 1118 1079 q 1222 689 1222 842 q 1204 511 1222 599 q 1151 344 1186 424 q 1064 197 1115 264 q 946 79 1013 129 q 798 1 879 29 q 622 -26 717 -26 m 632 92 q 766 114 704 92 q 879 177 828 136 q 971 273 931 218 q 1038 394 1011 328 q 1079 531 1065 460 q 1093 678 1093 603 q 1069 867 1093 785 q 998 1005 1044 949 q 886 1090 951 1061 q 739 1118 821 1118 q 606 1096 668 1118 q 492 1033 544 1074 q 400 936 440 992 q 332 815 360 881 q 290 678 304 750 q 275 533 275 607 q 300 345 275 428 q 371 206 325 263 q 483 121 417 150 q 632 92 549 92 m 851 1293 q 840 1297 847 1293 q 826 1307 833 1301 l 631 1478 q 613 1496 617 1489 q 610 1513 610 1503 q 623 1543 610 1526 q 654 1572 636 1560 q 686 1583 672 1583 q 701 1579 694 1583 q 713 1568 707 1575 l 893 1369 q 904 1355 903 1360 q 906 1346 906 1350 q 886 1313 906 1332 q 851 1293 867 1293 z "},"Ở":{"ha":1285,"x_min":146,"x_max":1239,"o":"m 622 -26 q 426 14 514 -26 q 275 127 338 54 q 179 300 213 200 q 146 522 146 400 q 163 694 146 608 q 215 860 181 779 q 301 1008 250 940 q 419 1128 351 1076 q 569 1208 486 1179 q 750 1236 653 1236 q 824 1231 788 1236 q 893 1215 860 1226 q 1022 1235 975 1219 q 1092 1281 1069 1251 q 1118 1356 1114 1311 q 1117 1464 1122 1401 q 1131 1497 1115 1485 q 1169 1510 1147 1508 q 1210 1502 1192 1511 q 1232 1471 1229 1493 q 1235 1365 1239 1415 q 1210 1271 1232 1314 q 1144 1197 1189 1228 q 1025 1150 1100 1167 q 1170 960 1118 1079 q 1222 689 1222 842 q 1204 511 1222 599 q 1151 344 1186 424 q 1064 197 1115 264 q 946 79 1013 129 q 798 1 879 29 q 622 -26 717 -26 m 632 92 q 766 114 704 92 q 879 177 828 136 q 971 273 931 218 q 1038 394 1011 328 q 1079 531 1065 460 q 1093 678 1093 603 q 1069 867 1093 785 q 998 1005 1044 949 q 886 1090 951 1061 q 739 1118 821 1118 q 606 1096 668 1118 q 492 1033 544 1074 q 400 936 440 992 q 332 815 360 881 q 290 678 304 750 q 275 533 275 607 q 300 345 275 428 q 371 206 325 263 q 483 121 417 150 q 632 92 549 92 m 824 1622 q 927 1592 889 1622 q 965 1510 965 1563 q 947 1444 965 1474 q 889 1385 929 1414 q 860 1359 868 1371 q 853 1333 853 1347 l 851 1318 q 838 1292 851 1301 q 807 1280 825 1282 q 774 1285 789 1278 q 754 1307 758 1292 l 746 1342 q 751 1399 739 1374 q 792 1444 764 1424 q 824 1473 814 1460 q 833 1496 833 1486 q 823 1514 833 1507 q 794 1521 813 1521 q 759 1516 779 1521 q 721 1503 739 1511 q 664 1526 686 1483 q 681 1583 649 1563 q 748 1612 711 1601 q 824 1622 785 1622 z "},"Ỡ":{"ha":1285,"x_min":146,"x_max":1239,"o":"m 622 -26 q 426 14 514 -26 q 275 127 338 54 q 179 300 213 200 q 146 522 146 400 q 163 694 146 608 q 215 860 181 779 q 301 1008 250 940 q 419 1128 351 1076 q 569 1208 486 1179 q 750 1236 653 1236 q 824 1231 788 1236 q 893 1215 860 1226 q 1022 1235 975 1219 q 1092 1281 1069 1251 q 1118 1356 1114 1311 q 1117 1464 1122 1401 q 1131 1497 1115 1485 q 1169 1510 1147 1508 q 1210 1502 1192 1511 q 1232 1471 1229 1493 q 1235 1365 1239 1415 q 1210 1271 1232 1314 q 1144 1197 1189 1228 q 1025 1150 1100 1167 q 1170 960 1118 1079 q 1222 689 1222 842 q 1204 511 1222 599 q 1151 344 1186 424 q 1064 197 1115 264 q 946 79 1013 129 q 798 1 879 29 q 622 -26 717 -26 m 632 92 q 766 114 704 92 q 879 177 828 136 q 971 273 931 218 q 1038 394 1011 328 q 1079 531 1065 460 q 1093 678 1093 603 q 1069 867 1093 785 q 998 1005 1044 949 q 886 1090 951 1061 q 739 1118 821 1118 q 606 1096 668 1118 q 492 1033 544 1074 q 400 936 440 992 q 332 815 360 881 q 290 678 304 750 q 275 533 275 607 q 300 345 275 428 q 371 206 325 263 q 483 121 417 150 q 632 92 549 92 m 563 1332 q 518 1369 518 1332 q 554 1505 522 1464 q 646 1546 586 1546 q 724 1531 688 1546 q 792 1497 760 1517 q 852 1464 825 1478 q 900 1450 879 1450 q 924 1465 914 1450 q 939 1514 935 1481 q 990 1547 940 1547 q 1026 1538 1015 1547 q 1035 1510 1036 1529 q 1001 1378 1032 1424 q 906 1333 971 1333 q 826 1348 863 1333 q 758 1381 789 1363 q 701 1413 726 1399 q 651 1428 675 1428 q 626 1414 636 1428 q 614 1368 617 1400 q 599 1341 613 1350 q 563 1332 586 1332 z "},"Ŕ":{"ha":964,"x_min":119,"x_max":988,"o":"m 179 -19 q 134 -10 149 -19 q 122 21 119 0 l 308 1178 q 328 1206 313 1197 q 375 1215 344 1215 l 575 1215 q 809 1189 718 1215 q 944 1102 900 1163 q 988 940 988 1042 q 971 835 988 885 q 923 743 954 786 q 847 666 892 700 q 742 607 801 632 q 612 567 683 582 q 457 546 540 551 q 579 384 514 464 q 718 226 644 304 q 875 74 792 149 q 892 42 888 63 q 868 -6 897 22 q 828 -21 849 -22 q 790 -3 808 -19 q 622 162 706 74 q 464 344 539 250 q 326 531 389 438 l 244 19 q 226 -10 240 0 q 179 -19 211 -19 m 343 643 q 478 649 417 643 q 594 668 540 656 q 690 699 647 681 q 765 740 732 717 q 819 794 797 764 q 851 859 840 824 q 863 935 863 894 q 835 1037 863 1000 q 744 1089 807 1074 q 575 1104 681 1104 l 419 1104 l 343 643 m 578 1293 q 545 1313 564 1293 q 526 1346 526 1332 q 528 1356 526 1351 q 538 1369 529 1361 l 736 1568 q 749 1579 743 1575 q 763 1583 754 1583 q 794 1571 776 1583 q 826 1542 813 1558 q 839 1511 839 1525 q 835 1494 839 1501 q 817 1476 832 1488 l 604 1307 q 590 1297 596 1301 q 578 1293 583 1293 z "},"Ř":{"ha":964,"x_min":119,"x_max":988,"o":"m 179 -19 q 134 -10 149 -19 q 122 21 119 0 l 308 1178 q 328 1206 313 1197 q 375 1215 344 1215 l 575 1215 q 809 1189 718 1215 q 944 1102 900 1163 q 988 940 988 1042 q 971 835 988 885 q 923 743 954 786 q 847 666 892 700 q 742 607 801 632 q 612 567 683 582 q 457 546 540 551 q 579 384 514 464 q 718 226 644 304 q 875 74 792 149 q 892 42 888 63 q 868 -6 897 22 q 828 -21 849 -22 q 790 -3 808 -19 q 622 162 706 74 q 464 344 539 250 q 326 531 389 438 l 244 19 q 226 -10 240 0 q 179 -19 211 -19 m 343 643 q 478 649 417 643 q 594 668 540 656 q 690 699 647 681 q 765 740 732 717 q 819 794 797 764 q 851 859 840 824 q 863 935 863 894 q 835 1037 863 1000 q 744 1089 807 1074 q 575 1104 681 1104 l 419 1104 l 343 643 m 879 1583 q 910 1567 894 1583 q 925 1535 925 1550 q 923 1520 925 1526 q 914 1507 921 1514 l 708 1324 q 678 1302 693 1311 q 638 1293 663 1293 q 602 1303 615 1293 q 579 1326 589 1313 l 422 1513 q 414 1528 415 1522 q 413 1539 413 1535 q 432 1569 413 1556 q 464 1583 451 1583 q 483 1577 476 1583 q 500 1564 490 1571 l 651 1433 l 842 1564 q 860 1577 853 1571 q 879 1583 868 1583 z "},"Ŗ":{"ha":964,"x_min":119,"x_max":988,"o":"m 179 -19 q 134 -10 149 -19 q 122 21 119 0 l 308 1178 q 328 1206 313 1197 q 375 1215 344 1215 l 575 1215 q 809 1189 718 1215 q 944 1102 900 1163 q 988 940 988 1042 q 971 835 988 885 q 923 743 954 786 q 847 666 892 700 q 742 607 801 632 q 612 567 683 582 q 457 546 540 551 q 579 384 514 464 q 718 226 644 304 q 875 74 792 149 q 892 42 888 63 q 868 -6 897 22 q 828 -21 849 -22 q 790 -3 808 -19 q 622 162 706 74 q 464 344 539 250 q 326 531 389 438 l 244 19 q 226 -10 240 0 q 179 -19 211 -19 m 343 643 q 478 649 417 643 q 594 668 540 656 q 690 699 647 681 q 765 740 732 717 q 819 794 797 764 q 851 859 840 824 q 863 935 863 894 q 835 1037 863 1000 q 744 1089 807 1074 q 575 1104 681 1104 l 419 1104 l 343 643 m 360 -401 q 340 -378 343 -392 q 347 -347 338 -365 q 381 -276 368 -307 q 399 -215 393 -246 q 406 -142 404 -183 q 422 -108 407 -118 q 463 -99 436 -99 q 511 -114 494 -99 q 526 -156 528 -129 q 511 -230 525 -190 q 475 -307 497 -269 q 426 -379 453 -344 q 394 -404 410 -399 q 360 -401 379 -410 z "},"Ś":{"ha":956,"x_min":64,"x_max":922,"o":"m 447 -26 q 334 -12 389 -26 q 231 28 279 3 q 144 87 183 53 q 75 160 104 121 q 67 190 64 176 q 88 219 71 204 q 123 241 110 238 q 156 225 136 244 q 228 163 186 193 q 326 112 271 132 q 447 92 381 92 q 565 106 513 92 q 654 147 617 119 q 712 219 692 175 q 732 321 732 263 q 717 398 732 364 q 674 459 703 432 q 606 510 646 486 q 514 557 567 533 q 423 603 468 578 q 339 660 378 629 q 270 729 300 690 q 224 817 240 768 q 207 929 207 867 q 234 1055 207 999 q 312 1152 261 1111 q 433 1215 363 1193 q 589 1236 503 1236 q 716 1217 660 1236 q 819 1167 772 1199 q 908 1094 867 1135 q 919 1065 922 1081 q 900 1035 917 1050 q 867 1013 883 1018 q 836 1019 851 1008 q 769 1071 803 1049 q 692 1106 735 1093 q 589 1118 649 1118 q 484 1106 531 1118 q 404 1071 438 1094 q 353 1012 371 1047 q 336 929 336 976 q 350 842 336 879 q 392 776 364 806 q 463 722 421 747 q 563 672 506 697 q 676 614 622 646 q 771 540 729 582 q 836 445 813 499 q 860 321 860 392 q 830 176 860 240 q 745 67 800 111 q 615 -2 690 22 q 447 -26 539 -26 m 549 1293 q 516 1313 535 1293 q 497 1346 497 1332 q 499 1356 497 1351 q 508 1369 500 1361 l 707 1568 q 719 1579 714 1575 q 733 1583 725 1583 q 765 1571 747 1583 q 797 1542 783 1558 q 810 1511 810 1525 q 806 1494 810 1501 q 788 1476 803 1488 l 575 1307 q 560 1297 567 1301 q 549 1293 554 1293 z "},"Š":{"ha":956,"x_min":64,"x_max":922,"o":"m 447 -26 q 334 -12 389 -26 q 231 28 279 3 q 144 87 183 53 q 75 160 104 121 q 67 190 64 176 q 88 219 71 204 q 123 241 110 238 q 156 225 136 244 q 228 163 186 193 q 326 112 271 132 q 447 92 381 92 q 565 106 513 92 q 654 147 617 119 q 712 219 692 175 q 732 321 732 263 q 717 398 732 364 q 674 459 703 432 q 606 510 646 486 q 514 557 567 533 q 423 603 468 578 q 339 660 378 629 q 270 729 300 690 q 224 817 240 768 q 207 929 207 867 q 234 1055 207 999 q 312 1152 261 1111 q 433 1215 363 1193 q 589 1236 503 1236 q 716 1217 660 1236 q 819 1167 772 1199 q 908 1094 867 1135 q 919 1065 922 1081 q 900 1035 917 1050 q 867 1013 883 1018 q 836 1019 851 1008 q 769 1071 803 1049 q 692 1106 735 1093 q 589 1118 649 1118 q 484 1106 531 1118 q 404 1071 438 1094 q 353 1012 371 1047 q 336 929 336 976 q 350 842 336 879 q 392 776 364 806 q 463 722 421 747 q 563 672 506 697 q 676 614 622 646 q 771 540 729 582 q 836 445 813 499 q 860 321 860 392 q 830 176 860 240 q 745 67 800 111 q 615 -2 690 22 q 447 -26 539 -26 m 850 1583 q 881 1567 865 1583 q 896 1535 896 1550 q 894 1520 896 1526 q 885 1507 892 1514 l 679 1324 q 649 1302 664 1311 q 608 1293 633 1293 q 573 1303 586 1293 q 550 1326 560 1313 l 393 1513 q 385 1528 386 1522 q 383 1539 383 1535 q 403 1569 383 1556 q 435 1583 422 1583 q 454 1577 447 1583 q 471 1564 461 1571 l 622 1433 l 813 1564 q 831 1577 824 1571 q 850 1583 839 1583 z "},"Ş":{"ha":956,"x_min":64,"x_max":922,"o":"m 447 -26 q 334 -12 389 -26 q 231 28 279 3 q 144 87 183 53 q 75 160 104 121 q 67 190 64 176 q 88 219 71 204 q 123 241 110 238 q 156 225 136 244 q 228 163 186 193 q 326 112 271 132 q 447 92 381 92 q 565 106 513 92 q 654 147 617 119 q 712 219 692 175 q 732 321 732 263 q 717 398 732 364 q 674 459 703 432 q 606 510 646 486 q 514 557 567 533 q 423 603 468 578 q 339 660 378 629 q 270 729 300 690 q 224 817 240 768 q 207 929 207 867 q 234 1055 207 999 q 312 1152 261 1111 q 433 1215 363 1193 q 589 1236 503 1236 q 716 1217 660 1236 q 819 1167 772 1199 q 908 1094 867 1135 q 919 1065 922 1081 q 900 1035 917 1050 q 867 1013 883 1018 q 836 1019 851 1008 q 769 1071 803 1049 q 692 1106 735 1093 q 589 1118 649 1118 q 484 1106 531 1118 q 404 1071 438 1094 q 353 1012 371 1047 q 336 929 336 976 q 350 842 336 879 q 392 776 364 806 q 463 722 421 747 q 563 672 506 697 q 676 614 622 646 q 771 540 729 582 q 836 445 813 499 q 860 321 860 392 q 830 176 860 240 q 745 67 800 111 q 615 -2 690 22 q 447 -26 539 -26 m 386 -374 q 306 -365 349 -374 q 233 -335 264 -356 q 219 -307 219 -324 q 226 -276 219 -290 q 248 -252 236 -258 q 276 -253 260 -246 q 319 -269 293 -260 q 382 -278 346 -278 q 440 -267 421 -278 q 458 -229 458 -257 q 434 -192 458 -204 q 360 -187 410 -181 q 338 -185 344 -189 q 324 -172 331 -182 q 317 -153 317 -162 q 324 -135 318 -144 l 410 18 l 500 18 l 410 -146 l 368 -124 q 476 -110 431 -101 q 547 -148 522 -118 q 572 -222 572 -178 q 549 -304 572 -271 q 483 -356 525 -337 q 386 -374 442 -374 z "},"Ŝ":{"ha":956,"x_min":64,"x_max":922,"o":"m 447 -26 q 334 -12 389 -26 q 231 28 279 3 q 144 87 183 53 q 75 160 104 121 q 67 190 64 176 q 88 219 71 204 q 123 241 110 238 q 156 225 136 244 q 228 163 186 193 q 326 112 271 132 q 447 92 381 92 q 565 106 513 92 q 654 147 617 119 q 712 219 692 175 q 732 321 732 263 q 717 398 732 364 q 674 459 703 432 q 606 510 646 486 q 514 557 567 533 q 423 603 468 578 q 339 660 378 629 q 270 729 300 690 q 224 817 240 768 q 207 929 207 867 q 234 1055 207 999 q 312 1152 261 1111 q 433 1215 363 1193 q 589 1236 503 1236 q 716 1217 660 1236 q 819 1167 772 1199 q 908 1094 867 1135 q 919 1065 922 1081 q 900 1035 917 1050 q 867 1013 883 1018 q 836 1019 851 1008 q 769 1071 803 1049 q 692 1106 735 1093 q 589 1118 649 1118 q 484 1106 531 1118 q 404 1071 438 1094 q 353 1012 371 1047 q 336 929 336 976 q 350 842 336 879 q 392 776 364 806 q 463 722 421 747 q 563 672 506 697 q 676 614 622 646 q 771 540 729 582 q 836 445 813 499 q 860 321 860 392 q 830 176 860 240 q 745 67 800 111 q 615 -2 690 22 q 447 -26 539 -26 m 410 1293 q 381 1310 396 1293 q 365 1342 365 1326 q 368 1356 365 1350 q 378 1369 371 1363 l 582 1553 q 613 1575 597 1567 q 653 1583 629 1583 q 688 1574 675 1583 q 713 1551 701 1565 l 869 1364 q 877 1349 876 1356 q 878 1338 878 1343 q 860 1308 878 1322 q 829 1293 843 1293 q 809 1299 818 1293 q 790 1314 800 1306 l 640 1443 l 449 1310 q 430 1298 439 1303 q 410 1293 421 1293 z "},"Ș":{"ha":956,"x_min":64,"x_max":922,"o":"m 447 -26 q 334 -12 389 -26 q 231 28 279 3 q 144 87 183 53 q 75 160 104 121 q 67 190 64 176 q 88 219 71 204 q 123 241 110 238 q 156 225 136 244 q 228 163 186 193 q 326 112 271 132 q 447 92 381 92 q 565 106 513 92 q 654 147 617 119 q 712 219 692 175 q 732 321 732 263 q 717 398 732 364 q 674 459 703 432 q 606 510 646 486 q 514 557 567 533 q 423 603 468 578 q 339 660 378 629 q 270 729 300 690 q 224 817 240 768 q 207 929 207 867 q 234 1055 207 999 q 312 1152 261 1111 q 433 1215 363 1193 q 589 1236 503 1236 q 716 1217 660 1236 q 819 1167 772 1199 q 908 1094 867 1135 q 919 1065 922 1081 q 900 1035 917 1050 q 867 1013 883 1018 q 836 1019 851 1008 q 769 1071 803 1049 q 692 1106 735 1093 q 589 1118 649 1118 q 484 1106 531 1118 q 404 1071 438 1094 q 353 1012 371 1047 q 336 929 336 976 q 350 842 336 879 q 392 776 364 806 q 463 722 421 747 q 563 672 506 697 q 676 614 622 646 q 771 540 729 582 q 836 445 813 499 q 860 321 860 392 q 830 176 860 240 q 745 67 800 111 q 615 -2 690 22 q 447 -26 539 -26 m 319 -401 q 300 -378 303 -392 q 307 -347 297 -365 q 340 -276 328 -307 q 358 -215 353 -246 q 365 -142 364 -183 q 381 -108 367 -118 q 422 -99 396 -99 q 471 -114 454 -99 q 486 -156 488 -129 q 471 -230 485 -190 q 435 -307 457 -269 q 386 -379 413 -344 q 354 -404 369 -399 q 319 -401 339 -410 z "},"Ŧ":{"ha":958,"x_min":149,"x_max":1075,"o":"m 419 -21 q 365 18 360 -21 l 542 1104 l 183 1104 q 156 1117 163 1104 q 153 1160 149 1129 q 169 1203 158 1192 q 201 1215 181 1215 l 1042 1215 q 1069 1203 1063 1215 q 1069 1160 1075 1192 q 1055 1117 1065 1129 q 1024 1104 1044 1104 l 664 1104 l 486 18 q 467 -11 483 -1 q 419 -21 450 -21 m 267 557 q 237 572 242 557 q 235 606 232 588 q 244 642 236 625 q 279 658 253 658 l 785 658 q 815 642 810 658 q 818 606 819 625 q 807 572 815 588 q 775 557 799 557 l 267 557 z "},"Ť":{"ha":958,"x_min":149,"x_max":1075,"o":"m 419 -21 q 365 18 360 -21 l 542 1104 l 183 1104 q 156 1117 163 1104 q 153 1160 149 1129 q 169 1203 158 1192 q 201 1215 181 1215 l 1042 1215 q 1069 1203 1063 1215 q 1069 1160 1075 1192 q 1055 1117 1065 1129 q 1024 1104 1044 1104 l 664 1104 l 486 18 q 467 -11 483 -1 q 419 -21 450 -21 m 874 1583 q 904 1567 889 1583 q 919 1535 919 1550 q 917 1520 919 1526 q 908 1507 915 1514 l 703 1324 q 672 1302 688 1311 q 632 1293 657 1293 q 597 1303 610 1293 q 574 1326 583 1313 l 417 1513 q 408 1528 410 1522 q 407 1539 407 1535 q 426 1569 407 1556 q 458 1583 446 1583 q 478 1577 471 1583 q 494 1564 485 1571 l 646 1433 l 836 1564 q 855 1577 847 1571 q 874 1583 863 1583 z "},"Ţ":{"ha":958,"x_min":149,"x_max":1075,"o":"m 419 -21 q 365 18 360 -21 l 542 1104 l 183 1104 q 156 1117 163 1104 q 153 1160 149 1129 q 169 1203 158 1192 q 201 1215 181 1215 l 1042 1215 q 1069 1203 1063 1215 q 1069 1160 1075 1192 q 1055 1117 1065 1129 q 1024 1104 1044 1104 l 664 1104 l 486 18 q 467 -11 483 -1 q 419 -21 450 -21 m 371 -374 q 291 -365 333 -374 q 218 -335 249 -356 q 204 -307 204 -324 q 211 -276 204 -290 q 233 -252 221 -258 q 261 -253 244 -246 q 304 -269 278 -260 q 367 -278 331 -278 q 424 -267 406 -278 q 443 -229 443 -257 q 419 -192 443 -204 q 344 -187 394 -181 q 322 -185 329 -189 q 308 -172 315 -182 q 302 -153 301 -162 q 308 -135 303 -144 l 394 18 l 485 18 l 394 -146 l 353 -124 q 461 -110 415 -101 q 532 -148 507 -118 q 557 -222 557 -178 q 533 -304 557 -271 q 468 -356 510 -337 q 371 -374 426 -374 z "},"Ț":{"ha":958,"x_min":149,"x_max":1075,"o":"m 419 -21 q 365 18 360 -21 l 542 1104 l 183 1104 q 156 1117 163 1104 q 153 1160 149 1129 q 169 1203 158 1192 q 201 1215 181 1215 l 1042 1215 q 1069 1203 1063 1215 q 1069 1160 1075 1192 q 1055 1117 1065 1129 q 1024 1104 1044 1104 l 664 1104 l 486 18 q 467 -11 483 -1 q 419 -21 450 -21 m 304 -401 q 285 -378 288 -392 q 292 -347 282 -365 q 325 -276 313 -307 q 343 -215 338 -246 q 350 -142 349 -183 q 366 -108 351 -118 q 407 -99 381 -99 q 456 -114 439 -99 q 471 -156 472 -129 q 456 -230 469 -190 q 419 -307 442 -269 q 371 -379 397 -344 q 339 -404 354 -399 q 304 -401 324 -410 z "},"Ú":{"ha":1199,"x_min":161,"x_max":1171,"o":"m 557 -26 q 376 2 454 -26 q 249 84 299 31 q 180 216 199 138 q 178 394 161 294 l 303 1199 q 322 1227 307 1218 q 369 1236 338 1236 q 417 1227 401 1236 q 428 1197 432 1218 l 299 388 q 308 222 281 288 q 401 124 336 157 q 563 92 467 92 q 738 127 664 92 q 857 228 811 163 q 918 388 903 294 l 1042 1199 q 1060 1227 1044 1218 q 1107 1236 1076 1236 q 1165 1197 1171 1236 l 1039 379 q 956 160 1019 250 q 791 22 892 69 q 557 -26 690 -26 m 679 1293 q 647 1313 665 1293 q 628 1346 628 1332 q 629 1356 628 1351 q 639 1369 631 1361 l 838 1568 q 850 1579 844 1575 q 864 1583 856 1583 q 896 1571 878 1583 q 927 1542 914 1558 q 940 1511 940 1525 q 937 1494 940 1501 q 918 1476 933 1488 l 706 1307 q 691 1297 697 1301 q 679 1293 685 1293 z "},"Ŭ":{"ha":1199,"x_min":161,"x_max":1171,"o":"m 557 -26 q 376 2 454 -26 q 249 84 299 31 q 180 216 199 138 q 178 394 161 294 l 303 1199 q 322 1227 307 1218 q 369 1236 338 1236 q 417 1227 401 1236 q 428 1197 432 1218 l 299 388 q 308 222 281 288 q 401 124 336 157 q 563 92 467 92 q 738 127 664 92 q 857 228 811 163 q 918 388 903 294 l 1042 1199 q 1060 1227 1044 1218 q 1107 1236 1076 1236 q 1165 1197 1171 1236 l 1039 379 q 956 160 1019 250 q 791 22 892 69 q 557 -26 690 -26 m 749 1293 q 585 1355 644 1293 q 528 1543 526 1417 q 542 1572 529 1561 q 579 1582 556 1582 q 611 1572 600 1582 q 625 1543 622 1561 q 668 1445 633 1476 q 758 1414 703 1414 q 863 1448 821 1414 q 925 1542 904 1482 q 943 1573 933 1564 q 974 1582 953 1582 q 1013 1569 999 1582 q 1022 1539 1026 1557 q 967 1397 1004 1451 q 876 1318 931 1343 q 749 1293 821 1293 z "},"Ǔ":{"ha":1199,"x_min":161,"x_max":1171,"o":"m 557 -26 q 376 2 454 -26 q 249 84 299 31 q 180 216 199 138 q 178 394 161 294 l 303 1199 q 322 1227 307 1218 q 369 1236 338 1236 q 417 1227 401 1236 q 428 1197 432 1218 l 299 388 q 308 222 281 288 q 401 124 336 157 q 563 92 467 92 q 738 127 664 92 q 857 228 811 163 q 918 388 903 294 l 1042 1199 q 1060 1227 1044 1218 q 1107 1236 1076 1236 q 1165 1197 1171 1236 l 1039 379 q 956 160 1019 250 q 791 22 892 69 q 557 -26 690 -26 m 981 1583 q 1011 1567 996 1583 q 1026 1535 1026 1550 q 1024 1520 1026 1526 q 1015 1507 1022 1514 l 810 1324 q 779 1302 794 1311 q 739 1293 764 1293 q 703 1303 717 1293 q 681 1326 690 1313 l 524 1513 q 515 1528 517 1522 q 514 1539 514 1535 q 533 1569 514 1556 q 565 1583 553 1583 q 585 1577 578 1583 q 601 1564 592 1571 l 753 1433 l 943 1564 q 962 1577 954 1571 q 981 1583 969 1583 z "},"Û":{"ha":1199,"x_min":161,"x_max":1171,"o":"m 557 -26 q 376 2 454 -26 q 249 84 299 31 q 180 216 199 138 q 178 394 161 294 l 303 1199 q 322 1227 307 1218 q 369 1236 338 1236 q 417 1227 401 1236 q 428 1197 432 1218 l 299 388 q 308 222 281 288 q 401 124 336 157 q 563 92 467 92 q 738 127 664 92 q 857 228 811 163 q 918 388 903 294 l 1042 1199 q 1060 1227 1044 1218 q 1107 1236 1076 1236 q 1165 1197 1171 1236 l 1039 379 q 956 160 1019 250 q 791 22 892 69 q 557 -26 690 -26 m 540 1293 q 511 1310 526 1293 q 496 1342 496 1326 q 499 1356 496 1350 q 508 1369 501 1363 l 713 1553 q 744 1575 728 1567 q 783 1583 760 1583 q 819 1574 806 1583 q 843 1551 832 1565 l 1000 1364 q 1008 1349 1007 1356 q 1008 1338 1008 1343 q 991 1308 1008 1322 q 960 1293 974 1293 q 940 1299 949 1293 q 921 1314 931 1306 l 771 1443 l 579 1310 q 560 1298 569 1303 q 540 1293 551 1293 z "},"Ü":{"ha":1199,"x_min":161,"x_max":1171,"o":"m 557 -26 q 376 2 454 -26 q 249 84 299 31 q 180 216 199 138 q 178 394 161 294 l 303 1199 q 322 1227 307 1218 q 369 1236 338 1236 q 417 1227 401 1236 q 428 1197 432 1218 l 299 388 q 308 222 281 288 q 401 124 336 157 q 563 92 467 92 q 738 127 664 92 q 857 228 811 163 q 918 388 903 294 l 1042 1199 q 1060 1227 1044 1218 q 1107 1236 1076 1236 q 1165 1197 1171 1236 l 1039 379 q 956 160 1019 250 q 791 22 892 69 q 557 -26 690 -26 m 583 1338 q 529 1357 549 1338 q 510 1417 510 1376 q 532 1485 510 1457 q 600 1513 554 1513 q 652 1492 633 1513 q 671 1433 671 1472 q 651 1365 672 1392 q 583 1338 629 1338 m 919 1338 q 867 1357 886 1338 q 847 1417 847 1376 q 869 1485 847 1457 q 936 1513 892 1513 q 989 1492 969 1513 q 1008 1433 1008 1472 q 988 1365 1010 1392 q 919 1338 965 1338 z "},"Ù":{"ha":1199,"x_min":161,"x_max":1171,"o":"m 557 -26 q 376 2 454 -26 q 249 84 299 31 q 180 216 199 138 q 178 394 161 294 l 303 1199 q 322 1227 307 1218 q 369 1236 338 1236 q 417 1227 401 1236 q 428 1197 432 1218 l 299 388 q 308 222 281 288 q 401 124 336 157 q 563 92 467 92 q 738 127 664 92 q 857 228 811 163 q 918 388 903 294 l 1042 1199 q 1060 1227 1044 1218 q 1107 1236 1076 1236 q 1165 1197 1171 1236 l 1039 379 q 956 160 1019 250 q 791 22 892 69 q 557 -26 690 -26 m 810 1293 q 799 1297 806 1293 q 785 1307 792 1301 l 589 1478 q 572 1496 575 1489 q 568 1513 568 1503 q 581 1543 568 1526 q 613 1572 594 1560 q 644 1583 631 1583 q 659 1579 653 1583 q 671 1568 665 1575 l 851 1369 q 863 1355 861 1360 q 864 1346 864 1350 q 844 1313 864 1332 q 810 1293 825 1293 z "},"Ű":{"ha":1199,"x_min":161,"x_max":1171,"o":"m 557 -26 q 376 2 454 -26 q 249 84 299 31 q 180 216 199 138 q 178 394 161 294 l 303 1199 q 322 1227 307 1218 q 369 1236 338 1236 q 417 1227 401 1236 q 428 1197 432 1218 l 299 388 q 308 222 281 288 q 401 124 336 157 q 563 92 467 92 q 738 127 664 92 q 857 228 811 163 q 918 388 903 294 l 1042 1199 q 1060 1227 1044 1218 q 1107 1236 1076 1236 q 1165 1197 1171 1236 l 1039 379 q 956 160 1019 250 q 791 22 892 69 q 557 -26 690 -26 m 600 1293 q 567 1313 586 1293 q 547 1346 547 1332 q 549 1356 547 1351 q 560 1369 550 1361 l 742 1568 q 755 1579 749 1575 q 768 1583 761 1583 q 800 1572 783 1583 q 829 1543 817 1560 q 842 1513 842 1526 q 838 1496 842 1503 q 819 1478 835 1489 l 626 1307 q 612 1297 618 1301 q 600 1293 606 1293 m 860 1293 q 827 1313 846 1293 q 808 1346 808 1332 q 810 1356 808 1351 q 821 1369 811 1361 l 1004 1568 q 1018 1579 1011 1575 q 1033 1583 1025 1583 q 1065 1572 1047 1583 q 1094 1543 1082 1560 q 1106 1513 1106 1526 q 1102 1496 1106 1503 q 1085 1478 1099 1489 l 886 1307 q 872 1297 879 1301 q 860 1293 865 1293 z "},"Ū":{"ha":1199,"x_min":161,"x_max":1171,"o":"m 557 -26 q 376 2 454 -26 q 249 84 299 31 q 180 216 199 138 q 178 394 161 294 l 303 1199 q 322 1227 307 1218 q 369 1236 338 1236 q 417 1227 401 1236 q 428 1197 432 1218 l 299 388 q 308 222 281 288 q 401 124 336 157 q 563 92 467 92 q 738 127 664 92 q 857 228 811 163 q 918 388 903 294 l 1042 1199 q 1060 1227 1044 1218 q 1107 1236 1076 1236 q 1165 1197 1171 1236 l 1039 379 q 956 160 1019 250 q 791 22 892 69 q 557 -26 690 -26 m 571 1379 q 539 1395 546 1379 q 536 1436 532 1411 q 549 1481 539 1465 q 583 1497 558 1497 l 951 1497 q 984 1480 978 1497 q 986 1436 990 1463 q 974 1394 983 1410 q 939 1379 964 1379 l 571 1379 z "},"Ų":{"ha":1199,"x_min":161,"x_max":1171,"o":"m 557 -26 q 376 2 454 -26 q 249 84 299 31 q 180 216 199 138 q 178 394 161 294 l 303 1199 q 322 1227 307 1218 q 369 1236 338 1236 q 417 1227 401 1236 q 428 1197 432 1218 l 299 388 q 308 222 281 288 q 401 124 336 157 q 563 92 467 92 q 738 127 664 92 q 857 228 811 163 q 918 388 903 294 l 1042 1199 q 1060 1227 1044 1218 q 1107 1236 1076 1236 q 1165 1197 1171 1236 l 1039 379 q 956 160 1019 250 q 791 22 892 69 q 557 -26 690 -26 m 576 -339 q 503 -313 531 -339 q 475 -243 475 -287 q 490 -176 475 -210 q 535 -108 506 -143 q 608 -36 565 -74 q 707 46 651 1 l 792 43 l 792 35 q 716 -34 751 0 q 654 -99 681 -68 q 613 -155 628 -129 q 599 -201 599 -181 q 606 -225 599 -217 q 628 -233 613 -233 q 674 -215 651 -233 q 726 -168 697 -197 q 749 -158 735 -161 q 779 -168 763 -156 q 798 -194 793 -179 q 794 -224 803 -210 q 733 -285 771 -260 q 653 -325 694 -311 q 576 -339 613 -339 z "},"Ů":{"ha":1199,"x_min":161,"x_max":1171,"o":"m 557 -26 q 376 2 454 -26 q 249 84 299 31 q 180 216 199 138 q 178 394 161 294 l 303 1199 q 322 1227 307 1218 q 369 1236 338 1236 q 417 1227 401 1236 q 428 1197 432 1218 l 299 388 q 308 222 281 288 q 401 124 336 157 q 563 92 467 92 q 738 127 664 92 q 857 228 811 163 q 918 388 903 294 l 1042 1199 q 1060 1227 1044 1218 q 1107 1236 1076 1236 q 1165 1197 1171 1236 l 1039 379 q 956 160 1019 250 q 791 22 892 69 q 557 -26 690 -26 m 750 1282 q 655 1302 696 1282 q 592 1358 614 1322 q 569 1442 569 1394 q 597 1533 569 1492 q 670 1597 624 1574 q 775 1619 717 1619 q 872 1600 831 1619 q 936 1544 914 1581 q 958 1461 958 1508 q 931 1369 958 1410 q 857 1305 904 1328 q 750 1282 810 1282 m 754 1365 q 828 1392 799 1365 q 858 1460 858 1419 q 835 1515 858 1494 q 772 1536 813 1536 q 699 1509 729 1536 q 669 1443 669 1482 q 692 1387 669 1408 q 754 1365 715 1365 z "},"Ũ":{"ha":1199,"x_min":161,"x_max":1171,"o":"m 557 -26 q 376 2 454 -26 q 249 84 299 31 q 180 216 199 138 q 178 394 161 294 l 303 1199 q 322 1227 307 1218 q 369 1236 338 1236 q 417 1227 401 1236 q 428 1197 432 1218 l 299 388 q 308 222 281 288 q 401 124 336 157 q 563 92 467 92 q 738 127 664 92 q 857 228 811 163 q 918 388 903 294 l 1042 1199 q 1060 1227 1044 1218 q 1107 1236 1076 1236 q 1165 1197 1171 1236 l 1039 379 q 956 160 1019 250 q 791 22 892 69 q 557 -26 690 -26 m 547 1332 q 503 1369 503 1332 q 539 1505 507 1464 q 631 1546 571 1546 q 708 1531 672 1546 q 777 1497 744 1517 q 837 1464 810 1478 q 885 1450 864 1450 q 909 1465 899 1450 q 924 1514 919 1481 q 975 1547 925 1547 q 1010 1538 1000 1547 q 1019 1510 1021 1529 q 986 1378 1017 1424 q 890 1333 956 1333 q 810 1348 847 1333 q 742 1381 774 1363 q 685 1413 711 1399 q 636 1428 660 1428 q 611 1414 621 1428 q 599 1368 601 1400 q 584 1341 597 1350 q 547 1332 571 1332 z "},"Ǘ":{"ha":1199,"x_min":161,"x_max":1171,"o":"m 557 -26 q 376 2 454 -26 q 249 84 299 31 q 180 216 199 138 q 178 394 161 294 l 303 1199 q 322 1227 307 1218 q 369 1236 338 1236 q 417 1227 401 1236 q 428 1197 432 1218 l 299 388 q 308 222 281 288 q 401 124 336 157 q 563 92 467 92 q 738 127 664 92 q 857 228 811 163 q 918 388 903 294 l 1042 1199 q 1060 1227 1044 1218 q 1107 1236 1076 1236 q 1165 1197 1171 1236 l 1039 379 q 956 160 1019 250 q 791 22 892 69 q 557 -26 690 -26 m 583 1338 q 529 1357 549 1338 q 510 1417 510 1376 q 532 1485 510 1457 q 600 1513 554 1513 q 652 1492 633 1513 q 671 1433 671 1472 q 651 1365 672 1392 q 583 1338 629 1338 m 919 1338 q 867 1357 886 1338 q 847 1417 847 1376 q 869 1485 847 1457 q 936 1513 892 1513 q 989 1492 969 1513 q 1008 1433 1008 1472 q 988 1365 1010 1392 q 919 1338 965 1338 m 714 1550 q 681 1569 700 1550 q 663 1603 663 1589 q 664 1613 663 1608 q 674 1626 665 1618 l 872 1825 q 885 1836 879 1832 q 899 1840 890 1840 q 931 1828 913 1840 q 962 1799 949 1815 q 975 1768 975 1782 q 972 1751 975 1758 q 953 1733 968 1744 l 740 1564 q 726 1554 732 1558 q 714 1550 719 1550 z "},"Ǚ":{"ha":1199,"x_min":161,"x_max":1171,"o":"m 557 -26 q 376 2 454 -26 q 249 84 299 31 q 180 216 199 138 q 178 394 161 294 l 303 1199 q 322 1227 307 1218 q 369 1236 338 1236 q 417 1227 401 1236 q 428 1197 432 1218 l 299 388 q 308 222 281 288 q 401 124 336 157 q 563 92 467 92 q 738 127 664 92 q 857 228 811 163 q 918 388 903 294 l 1042 1199 q 1060 1227 1044 1218 q 1107 1236 1076 1236 q 1165 1197 1171 1236 l 1039 379 q 956 160 1019 250 q 791 22 892 69 q 557 -26 690 -26 m 583 1338 q 529 1357 549 1338 q 510 1417 510 1376 q 532 1485 510 1457 q 600 1513 554 1513 q 652 1492 633 1513 q 671 1433 671 1472 q 651 1365 672 1392 q 583 1338 629 1338 m 919 1338 q 867 1357 886 1338 q 847 1417 847 1376 q 869 1485 847 1457 q 936 1513 892 1513 q 989 1492 969 1513 q 1008 1433 1008 1472 q 988 1365 1010 1392 q 919 1338 965 1338 m 1015 1840 q 1046 1824 1031 1840 q 1061 1792 1061 1807 q 1059 1777 1061 1783 q 1050 1764 1057 1771 l 844 1581 q 814 1559 829 1568 q 774 1550 799 1550 q 738 1560 751 1550 q 715 1583 725 1569 l 558 1769 q 550 1785 551 1779 q 549 1796 549 1792 q 568 1826 549 1813 q 600 1840 588 1840 q 619 1834 613 1840 q 636 1821 626 1828 l 788 1690 l 978 1821 q 997 1834 989 1828 q 1015 1840 1004 1840 z "},"Ǜ":{"ha":1199,"x_min":161,"x_max":1171,"o":"m 557 -26 q 376 2 454 -26 q 249 84 299 31 q 180 216 199 138 q 178 394 161 294 l 303 1199 q 322 1227 307 1218 q 369 1236 338 1236 q 417 1227 401 1236 q 428 1197 432 1218 l 299 388 q 308 222 281 288 q 401 124 336 157 q 563 92 467 92 q 738 127 664 92 q 857 228 811 163 q 918 388 903 294 l 1042 1199 q 1060 1227 1044 1218 q 1107 1236 1076 1236 q 1165 1197 1171 1236 l 1039 379 q 956 160 1019 250 q 791 22 892 69 q 557 -26 690 -26 m 583 1338 q 529 1357 549 1338 q 510 1417 510 1376 q 532 1485 510 1457 q 600 1513 554 1513 q 652 1492 633 1513 q 671 1433 671 1472 q 651 1365 672 1392 q 583 1338 629 1338 m 919 1338 q 867 1357 886 1338 q 847 1417 847 1376 q 869 1485 847 1457 q 936 1513 892 1513 q 989 1492 969 1513 q 1008 1433 1008 1472 q 988 1365 1010 1392 q 919 1338 965 1338 m 844 1550 q 833 1554 840 1550 q 819 1564 826 1558 l 624 1735 q 606 1753 610 1746 q 603 1769 603 1760 q 616 1800 603 1783 q 647 1828 629 1817 q 679 1840 665 1840 q 694 1836 688 1840 q 706 1825 700 1832 l 886 1626 q 897 1612 896 1617 q 899 1603 899 1607 q 879 1569 899 1589 q 844 1550 860 1550 z "},"Ǖ":{"ha":1199,"x_min":161,"x_max":1171,"o":"m 557 -26 q 376 2 454 -26 q 249 84 299 31 q 180 216 199 138 q 178 394 161 294 l 303 1199 q 322 1227 307 1218 q 369 1236 338 1236 q 417 1227 401 1236 q 428 1197 432 1218 l 299 388 q 308 222 281 288 q 401 124 336 157 q 563 92 467 92 q 738 127 664 92 q 857 228 811 163 q 918 388 903 294 l 1042 1199 q 1060 1227 1044 1218 q 1107 1236 1076 1236 q 1165 1197 1171 1236 l 1039 379 q 956 160 1019 250 q 791 22 892 69 q 557 -26 690 -26 m 583 1338 q 529 1357 549 1338 q 510 1417 510 1376 q 532 1485 510 1457 q 600 1513 554 1513 q 652 1492 633 1513 q 671 1433 671 1472 q 651 1365 672 1392 q 583 1338 629 1338 m 919 1338 q 867 1357 886 1338 q 847 1417 847 1376 q 869 1485 847 1457 q 936 1513 892 1513 q 989 1492 969 1513 q 1008 1433 1008 1472 q 988 1365 1010 1392 q 919 1338 965 1338 m 606 1636 q 574 1652 581 1636 q 571 1693 567 1668 q 583 1738 574 1722 q 618 1754 593 1754 l 986 1754 q 1019 1737 1013 1754 q 1021 1693 1025 1719 q 1008 1651 1018 1667 q 974 1636 999 1636 l 606 1636 z "},"Ụ":{"ha":1199,"x_min":161,"x_max":1171,"o":"m 557 -26 q 376 2 454 -26 q 249 84 299 31 q 180 216 199 138 q 178 394 161 294 l 303 1199 q 322 1227 307 1218 q 369 1236 338 1236 q 417 1227 401 1236 q 428 1197 432 1218 l 299 388 q 308 222 281 288 q 401 124 336 157 q 563 92 467 92 q 738 127 664 92 q 857 228 811 163 q 918 388 903 294 l 1042 1199 q 1060 1227 1044 1218 q 1107 1236 1076 1236 q 1165 1197 1171 1236 l 1039 379 q 956 160 1019 250 q 791 22 892 69 q 557 -26 690 -26 m 496 -324 q 443 -304 463 -324 q 424 -244 424 -285 q 445 -176 424 -204 q 513 -149 467 -149 q 565 -169 546 -149 q 585 -228 585 -189 q 563 -297 585 -269 q 496 -324 540 -324 z "},"Ủ":{"ha":1199,"x_min":161,"x_max":1171,"o":"m 557 -26 q 376 2 454 -26 q 249 84 299 31 q 180 216 199 138 q 178 394 161 294 l 303 1199 q 322 1227 307 1218 q 369 1236 338 1236 q 417 1227 401 1236 q 428 1197 432 1218 l 299 388 q 308 222 281 288 q 401 124 336 157 q 563 92 467 92 q 738 127 664 92 q 857 228 811 163 q 918 388 903 294 l 1042 1199 q 1060 1227 1044 1218 q 1107 1236 1076 1236 q 1165 1197 1171 1236 l 1039 379 q 956 160 1019 250 q 791 22 892 69 q 557 -26 690 -26 m 781 1622 q 884 1592 846 1622 q 922 1510 922 1563 q 904 1444 922 1474 q 846 1385 886 1414 q 817 1359 825 1371 q 810 1333 810 1347 l 808 1318 q 795 1292 808 1301 q 764 1280 782 1282 q 731 1285 746 1278 q 711 1307 715 1292 l 703 1342 q 708 1399 696 1374 q 749 1444 721 1424 q 781 1473 771 1460 q 790 1496 790 1486 q 780 1514 790 1507 q 751 1521 769 1521 q 716 1516 736 1521 q 678 1503 696 1511 q 621 1526 643 1483 q 638 1583 606 1563 q 705 1612 668 1601 q 781 1622 742 1622 z "},"Ư":{"ha":1199,"x_min":161,"x_max":1429,"o":"m 1421 1469 q 1421 1347 1429 1404 q 1380 1245 1413 1289 q 1282 1176 1347 1201 q 1113 1150 1217 1151 l 1126 1233 q 1256 1264 1215 1239 q 1305 1338 1296 1289 q 1307 1461 1314 1386 q 1321 1494 1306 1483 q 1358 1508 1336 1506 q 1399 1500 1381 1510 q 1421 1469 1418 1490 m 557 -26 q 376 2 454 -26 q 249 84 299 31 q 180 216 199 138 q 178 394 161 294 l 303 1199 q 322 1227 307 1218 q 369 1236 338 1236 q 417 1227 401 1236 q 428 1197 432 1218 l 299 388 q 308 222 281 288 q 401 124 336 157 q 563 92 467 92 q 738 127 664 92 q 857 228 811 163 q 918 388 903 294 l 1042 1199 q 1060 1227 1044 1218 q 1107 1236 1076 1236 q 1165 1197 1171 1236 l 1039 379 q 956 160 1019 250 q 791 22 892 69 q 557 -26 690 -26 z "},"Ứ":{"ha":1199,"x_min":161,"x_max":1429,"o":"m 1421 1469 q 1421 1347 1429 1404 q 1380 1245 1413 1289 q 1282 1176 1347 1201 q 1113 1150 1217 1151 l 1126 1233 q 1256 1264 1215 1239 q 1305 1338 1296 1289 q 1307 1461 1314 1386 q 1321 1494 1306 1483 q 1358 1508 1336 1506 q 1399 1500 1381 1510 q 1421 1469 1418 1490 m 557 -26 q 376 2 454 -26 q 249 84 299 31 q 180 216 199 138 q 178 394 161 294 l 303 1199 q 322 1227 307 1218 q 369 1236 338 1236 q 417 1227 401 1236 q 428 1197 432 1218 l 299 388 q 308 222 281 288 q 401 124 336 157 q 563 92 467 92 q 738 127 664 92 q 857 228 811 163 q 918 388 903 294 l 1042 1199 q 1060 1227 1044 1218 q 1107 1236 1076 1236 q 1165 1197 1171 1236 l 1039 379 q 956 160 1019 250 q 791 22 892 69 q 557 -26 690 -26 m 679 1293 q 647 1313 665 1293 q 628 1346 628 1332 q 629 1356 628 1351 q 639 1369 631 1361 l 838 1568 q 850 1579 844 1575 q 864 1583 856 1583 q 896 1571 878 1583 q 927 1542 914 1558 q 940 1511 940 1525 q 937 1494 940 1501 q 918 1476 933 1488 l 706 1307 q 691 1297 697 1301 q 679 1293 685 1293 z "},"Ự":{"ha":1199,"x_min":161,"x_max":1429,"o":"m 1421 1469 q 1421 1347 1429 1404 q 1380 1245 1413 1289 q 1282 1176 1347 1201 q 1113 1150 1217 1151 l 1126 1233 q 1256 1264 1215 1239 q 1305 1338 1296 1289 q 1307 1461 1314 1386 q 1321 1494 1306 1483 q 1358 1508 1336 1506 q 1399 1500 1381 1510 q 1421 1469 1418 1490 m 557 -26 q 376 2 454 -26 q 249 84 299 31 q 180 216 199 138 q 178 394 161 294 l 303 1199 q 322 1227 307 1218 q 369 1236 338 1236 q 417 1227 401 1236 q 428 1197 432 1218 l 299 388 q 308 222 281 288 q 401 124 336 157 q 563 92 467 92 q 738 127 664 92 q 857 228 811 163 q 918 388 903 294 l 1042 1199 q 1060 1227 1044 1218 q 1107 1236 1076 1236 q 1165 1197 1171 1236 l 1039 379 q 956 160 1019 250 q 791 22 892 69 q 557 -26 690 -26 m 496 -324 q 443 -304 463 -324 q 424 -244 424 -285 q 445 -176 424 -204 q 513 -149 467 -149 q 565 -169 546 -149 q 585 -228 585 -189 q 563 -297 585 -269 q 496 -324 540 -324 z "},"Ừ":{"ha":1199,"x_min":161,"x_max":1429,"o":"m 1421 1469 q 1421 1347 1429 1404 q 1380 1245 1413 1289 q 1282 1176 1347 1201 q 1113 1150 1217 1151 l 1126 1233 q 1256 1264 1215 1239 q 1305 1338 1296 1289 q 1307 1461 1314 1386 q 1321 1494 1306 1483 q 1358 1508 1336 1506 q 1399 1500 1381 1510 q 1421 1469 1418 1490 m 557 -26 q 376 2 454 -26 q 249 84 299 31 q 180 216 199 138 q 178 394 161 294 l 303 1199 q 322 1227 307 1218 q 369 1236 338 1236 q 417 1227 401 1236 q 428 1197 432 1218 l 299 388 q 308 222 281 288 q 401 124 336 157 q 563 92 467 92 q 738 127 664 92 q 857 228 811 163 q 918 388 903 294 l 1042 1199 q 1060 1227 1044 1218 q 1107 1236 1076 1236 q 1165 1197 1171 1236 l 1039 379 q 956 160 1019 250 q 791 22 892 69 q 557 -26 690 -26 m 810 1293 q 799 1297 806 1293 q 785 1307 792 1301 l 589 1478 q 572 1496 575 1489 q 568 1513 568 1503 q 581 1543 568 1526 q 613 1572 594 1560 q 644 1583 631 1583 q 659 1579 653 1583 q 671 1568 665 1575 l 851 1369 q 863 1355 861 1360 q 864 1346 864 1350 q 844 1313 864 1332 q 810 1293 825 1293 z "},"Ử":{"ha":1199,"x_min":161,"x_max":1429,"o":"m 1421 1469 q 1421 1347 1429 1404 q 1380 1245 1413 1289 q 1282 1176 1347 1201 q 1113 1150 1217 1151 l 1126 1233 q 1256 1264 1215 1239 q 1305 1338 1296 1289 q 1307 1461 1314 1386 q 1321 1494 1306 1483 q 1358 1508 1336 1506 q 1399 1500 1381 1510 q 1421 1469 1418 1490 m 557 -26 q 376 2 454 -26 q 249 84 299 31 q 180 216 199 138 q 178 394 161 294 l 303 1199 q 322 1227 307 1218 q 369 1236 338 1236 q 417 1227 401 1236 q 428 1197 432 1218 l 299 388 q 308 222 281 288 q 401 124 336 157 q 563 92 467 92 q 738 127 664 92 q 857 228 811 163 q 918 388 903 294 l 1042 1199 q 1060 1227 1044 1218 q 1107 1236 1076 1236 q 1165 1197 1171 1236 l 1039 379 q 956 160 1019 250 q 791 22 892 69 q 557 -26 690 -26 m 781 1622 q 884 1592 846 1622 q 922 1510 922 1563 q 904 1444 922 1474 q 846 1385 886 1414 q 817 1359 825 1371 q 810 1333 810 1347 l 808 1318 q 795 1292 808 1301 q 764 1280 782 1282 q 731 1285 746 1278 q 711 1307 715 1292 l 703 1342 q 708 1399 696 1374 q 749 1444 721 1424 q 781 1473 771 1460 q 790 1496 790 1486 q 780 1514 790 1507 q 751 1521 769 1521 q 716 1516 736 1521 q 678 1503 696 1511 q 621 1526 643 1483 q 638 1583 606 1563 q 705 1612 668 1601 q 781 1622 742 1622 z "},"Ữ":{"ha":1199,"x_min":161,"x_max":1429,"o":"m 1421 1469 q 1421 1347 1429 1404 q 1380 1245 1413 1289 q 1282 1176 1347 1201 q 1113 1150 1217 1151 l 1126 1233 q 1256 1264 1215 1239 q 1305 1338 1296 1289 q 1307 1461 1314 1386 q 1321 1494 1306 1483 q 1358 1508 1336 1506 q 1399 1500 1381 1510 q 1421 1469 1418 1490 m 557 -26 q 376 2 454 -26 q 249 84 299 31 q 180 216 199 138 q 178 394 161 294 l 303 1199 q 322 1227 307 1218 q 369 1236 338 1236 q 417 1227 401 1236 q 428 1197 432 1218 l 299 388 q 308 222 281 288 q 401 124 336 157 q 563 92 467 92 q 738 127 664 92 q 857 228 811 163 q 918 388 903 294 l 1042 1199 q 1060 1227 1044 1218 q 1107 1236 1076 1236 q 1165 1197 1171 1236 l 1039 379 q 956 160 1019 250 q 791 22 892 69 q 557 -26 690 -26 m 547 1332 q 503 1369 503 1332 q 539 1505 507 1464 q 631 1546 571 1546 q 708 1531 672 1546 q 777 1497 744 1517 q 837 1464 810 1478 q 885 1450 864 1450 q 909 1465 899 1450 q 924 1514 919 1481 q 975 1547 925 1547 q 1010 1538 1000 1547 q 1019 1510 1021 1529 q 986 1378 1017 1424 q 890 1333 956 1333 q 810 1348 847 1333 q 742 1381 774 1363 q 685 1413 711 1399 q 636 1428 660 1428 q 611 1414 621 1428 q 599 1368 601 1400 q 584 1341 597 1350 q 547 1332 571 1332 z "},"Ẃ":{"ha":1667,"x_min":153,"x_max":1792,"o":"m 408 -19 q 363 -6 379 -19 q 340 44 346 7 l 156 1174 q 165 1214 153 1199 q 211 1233 178 1229 q 256 1231 242 1239 q 272 1199 269 1224 l 435 182 l 892 1183 q 923 1226 907 1217 q 972 1236 939 1236 q 1017 1225 1004 1236 q 1035 1186 1031 1214 l 1213 181 l 1658 1196 q 1691 1232 1674 1225 q 1739 1233 1708 1239 q 1782 1211 1772 1229 q 1779 1169 1792 1193 l 1274 36 q 1240 -7 1258 6 q 1186 -19 1221 -19 q 1141 -6 1157 -19 q 1119 44 1125 7 l 942 1021 l 494 36 q 461 -7 481 6 q 408 -19 442 -19 m 919 1293 q 887 1313 906 1293 q 868 1346 868 1332 q 869 1356 868 1351 q 879 1369 871 1361 l 1078 1568 q 1090 1579 1085 1575 q 1104 1583 1096 1583 q 1136 1571 1118 1583 q 1167 1542 1154 1558 q 1181 1511 1181 1525 q 1177 1494 1181 1501 q 1158 1476 1174 1488 l 946 1307 q 931 1297 938 1301 q 919 1293 925 1293 z "},"Ŵ":{"ha":1667,"x_min":153,"x_max":1792,"o":"m 408 -19 q 363 -6 379 -19 q 340 44 346 7 l 156 1174 q 165 1214 153 1199 q 211 1233 178 1229 q 256 1231 242 1239 q 272 1199 269 1224 l 435 182 l 892 1183 q 923 1226 907 1217 q 972 1236 939 1236 q 1017 1225 1004 1236 q 1035 1186 1031 1214 l 1213 181 l 1658 1196 q 1691 1232 1674 1225 q 1739 1233 1708 1239 q 1782 1211 1772 1229 q 1779 1169 1792 1193 l 1274 36 q 1240 -7 1258 6 q 1186 -19 1221 -19 q 1141 -6 1157 -19 q 1119 44 1125 7 l 942 1021 l 494 36 q 461 -7 481 6 q 408 -19 442 -19 m 781 1293 q 751 1310 767 1293 q 736 1342 736 1326 q 739 1356 736 1350 q 749 1369 742 1363 l 953 1553 q 984 1575 968 1567 q 1024 1583 1000 1583 q 1059 1574 1046 1583 q 1083 1551 1072 1565 l 1240 1364 q 1248 1349 1247 1356 q 1249 1338 1249 1343 q 1231 1308 1249 1322 q 1200 1293 1214 1293 q 1180 1299 1189 1293 q 1161 1314 1171 1306 l 1011 1443 l 819 1310 q 801 1298 810 1303 q 781 1293 792 1293 z "},"Ẅ":{"ha":1667,"x_min":153,"x_max":1792,"o":"m 408 -19 q 363 -6 379 -19 q 340 44 346 7 l 156 1174 q 165 1214 153 1199 q 211 1233 178 1229 q 256 1231 242 1239 q 272 1199 269 1224 l 435 182 l 892 1183 q 923 1226 907 1217 q 972 1236 939 1236 q 1017 1225 1004 1236 q 1035 1186 1031 1214 l 1213 181 l 1658 1196 q 1691 1232 1674 1225 q 1739 1233 1708 1239 q 1782 1211 1772 1229 q 1779 1169 1792 1193 l 1274 36 q 1240 -7 1258 6 q 1186 -19 1221 -19 q 1141 -6 1157 -19 q 1119 44 1125 7 l 942 1021 l 494 36 q 461 -7 481 6 q 408 -19 442 -19 m 824 1338 q 769 1357 789 1338 q 750 1417 750 1376 q 772 1485 750 1457 q 840 1513 794 1513 q 892 1492 874 1513 q 911 1433 911 1472 q 891 1365 913 1392 q 824 1338 869 1338 m 1160 1338 q 1107 1357 1126 1338 q 1088 1417 1088 1376 q 1110 1485 1088 1457 q 1176 1513 1132 1513 q 1229 1492 1210 1513 q 1249 1433 1249 1472 q 1228 1365 1250 1392 q 1160 1338 1206 1338 z "},"Ẁ":{"ha":1667,"x_min":153,"x_max":1792,"o":"m 408 -19 q 363 -6 379 -19 q 340 44 346 7 l 156 1174 q 165 1214 153 1199 q 211 1233 178 1229 q 256 1231 242 1239 q 272 1199 269 1224 l 435 182 l 892 1183 q 923 1226 907 1217 q 972 1236 939 1236 q 1017 1225 1004 1236 q 1035 1186 1031 1214 l 1213 181 l 1658 1196 q 1691 1232 1674 1225 q 1739 1233 1708 1239 q 1782 1211 1772 1229 q 1779 1169 1792 1193 l 1274 36 q 1240 -7 1258 6 q 1186 -19 1221 -19 q 1141 -6 1157 -19 q 1119 44 1125 7 l 942 1021 l 494 36 q 461 -7 481 6 q 408 -19 442 -19 m 1050 1293 q 1039 1297 1046 1293 q 1025 1307 1032 1301 l 829 1478 q 812 1496 815 1489 q 808 1513 808 1503 q 822 1543 808 1526 q 853 1572 835 1560 q 885 1583 871 1583 q 899 1579 893 1583 q 911 1568 906 1575 l 1092 1369 q 1103 1355 1101 1360 q 1104 1346 1104 1350 q 1085 1313 1104 1332 q 1050 1293 1065 1293 z "},"Ý":{"ha":851,"x_min":139,"x_max":990,"o":"m 358 -19 q 304 19 297 -19 l 388 524 l 146 1168 q 150 1207 139 1190 q 193 1231 161 1224 q 237 1231 222 1238 q 260 1201 251 1225 l 464 656 l 854 1201 q 890 1231 872 1225 q 939 1231 908 1238 q 980 1205 969 1224 q 974 1163 990 1186 l 510 522 l 426 19 q 358 -19 421 -19 m 501 1293 q 469 1313 488 1293 q 450 1346 450 1332 q 451 1356 450 1351 q 461 1369 453 1361 l 660 1568 q 672 1579 667 1575 q 686 1583 678 1583 q 718 1571 700 1583 q 749 1542 736 1558 q 763 1511 763 1525 q 759 1494 763 1501 q 740 1476 756 1488 l 528 1307 q 513 1297 519 1301 q 501 1293 507 1293 z "},"Ŷ":{"ha":851,"x_min":139,"x_max":990,"o":"m 358 -19 q 304 19 297 -19 l 388 524 l 146 1168 q 150 1207 139 1190 q 193 1231 161 1224 q 237 1231 222 1238 q 260 1201 251 1225 l 464 656 l 854 1201 q 890 1231 872 1225 q 939 1231 908 1238 q 980 1205 969 1224 q 974 1163 990 1186 l 510 522 l 426 19 q 358 -19 421 -19 m 363 1293 q 333 1310 349 1293 q 318 1342 318 1326 q 321 1356 318 1350 q 331 1369 324 1363 l 535 1553 q 566 1575 550 1567 q 606 1583 582 1583 q 641 1574 628 1583 q 665 1551 654 1565 l 822 1364 q 830 1349 829 1356 q 831 1338 831 1343 q 813 1308 831 1322 q 782 1293 796 1293 q 762 1299 771 1293 q 743 1314 753 1306 l 593 1443 l 401 1310 q 383 1298 392 1303 q 363 1293 374 1293 z "},"Ÿ":{"ha":851,"x_min":139,"x_max":990,"o":"m 358 -19 q 304 19 297 -19 l 388 524 l 146 1168 q 150 1207 139 1190 q 193 1231 161 1224 q 237 1231 222 1238 q 260 1201 251 1225 l 464 656 l 854 1201 q 890 1231 872 1225 q 939 1231 908 1238 q 980 1205 969 1224 q 974 1163 990 1186 l 510 522 l 426 19 q 358 -19 421 -19 m 406 1338 q 351 1357 371 1338 q 332 1417 332 1376 q 354 1485 332 1457 q 422 1513 376 1513 q 474 1492 456 1513 q 493 1433 493 1472 q 473 1365 494 1392 q 406 1338 451 1338 m 742 1338 q 689 1357 708 1338 q 669 1417 669 1376 q 692 1485 669 1457 q 758 1513 714 1513 q 811 1492 792 1513 q 831 1433 831 1472 q 810 1365 832 1392 q 742 1338 788 1338 z "},"Ỳ":{"ha":851,"x_min":139,"x_max":990,"o":"m 358 -19 q 304 19 297 -19 l 388 524 l 146 1168 q 150 1207 139 1190 q 193 1231 161 1224 q 237 1231 222 1238 q 260 1201 251 1225 l 464 656 l 854 1201 q 890 1231 872 1225 q 939 1231 908 1238 q 980 1205 969 1224 q 974 1163 990 1186 l 510 522 l 426 19 q 358 -19 421 -19 m 632 1293 q 621 1297 628 1293 q 607 1307 614 1301 l 411 1478 q 394 1496 397 1489 q 390 1513 390 1503 q 403 1543 390 1526 q 435 1572 417 1560 q 467 1583 453 1583 q 481 1579 475 1583 q 493 1568 488 1575 l 674 1369 q 685 1355 683 1360 q 686 1346 686 1350 q 667 1313 686 1332 q 632 1293 647 1293 z "},"Ỵ":{"ha":851,"x_min":139,"x_max":990,"o":"m 358 -19 q 304 19 297 -19 l 388 524 l 146 1168 q 150 1207 139 1190 q 193 1231 161 1224 q 237 1231 222 1238 q 260 1201 251 1225 l 464 656 l 854 1201 q 890 1231 872 1225 q 939 1231 908 1238 q 980 1205 969 1224 q 974 1163 990 1186 l 510 522 l 426 19 q 358 -19 421 -19 m 326 -324 q 274 -304 293 -324 q 254 -244 254 -285 q 276 -176 254 -204 q 343 -149 297 -149 q 396 -169 376 -149 q 415 -228 415 -189 q 393 -297 415 -269 q 326 -324 371 -324 z "},"Ỷ":{"ha":851,"x_min":139,"x_max":990,"o":"m 358 -19 q 304 19 297 -19 l 388 524 l 146 1168 q 150 1207 139 1190 q 193 1231 161 1224 q 237 1231 222 1238 q 260 1201 251 1225 l 464 656 l 854 1201 q 890 1231 872 1225 q 939 1231 908 1238 q 980 1205 969 1224 q 974 1163 990 1186 l 510 522 l 426 19 q 358 -19 421 -19 m 603 1622 q 706 1592 668 1622 q 744 1510 744 1563 q 726 1444 744 1474 q 668 1385 708 1414 q 640 1359 647 1371 q 632 1333 632 1347 l 631 1318 q 617 1292 631 1301 q 586 1280 604 1282 q 553 1285 568 1278 q 533 1307 538 1292 l 525 1342 q 531 1399 518 1374 q 571 1444 543 1424 q 603 1473 593 1460 q 613 1496 613 1486 q 602 1514 613 1507 q 574 1521 592 1521 q 538 1516 558 1521 q 500 1503 518 1511 q 443 1526 465 1483 q 460 1583 428 1563 q 527 1612 490 1601 q 603 1622 564 1622 z "},"Ỹ":{"ha":851,"x_min":139,"x_max":990,"o":"m 358 -19 q 304 19 297 -19 l 388 524 l 146 1168 q 150 1207 139 1190 q 193 1231 161 1224 q 237 1231 222 1238 q 260 1201 251 1225 l 464 656 l 854 1201 q 890 1231 872 1225 q 939 1231 908 1238 q 980 1205 969 1224 q 974 1163 990 1186 l 510 522 l 426 19 q 358 -19 421 -19 m 369 1332 q 325 1369 325 1332 q 361 1505 329 1464 q 453 1546 393 1546 q 531 1531 494 1546 q 599 1497 567 1517 q 659 1464 632 1478 q 707 1450 686 1450 q 731 1465 721 1450 q 746 1514 742 1481 q 797 1547 747 1547 q 833 1538 822 1547 q 842 1510 843 1529 q 808 1378 839 1424 q 713 1333 778 1333 q 633 1348 669 1333 q 565 1381 596 1363 q 508 1413 533 1399 q 458 1428 482 1428 q 433 1414 443 1428 q 421 1368 424 1400 q 406 1341 419 1350 q 369 1332 393 1332 z "},"Ź":{"ha":851,"x_min":-35,"x_max":963,"o":"m 6 0 q -22 13 -11 0 q -34 46 -33 26 q -24 81 -35 65 l 767 1104 l 221 1104 q 196 1117 203 1104 q 192 1160 189 1131 q 208 1203 196 1190 q 238 1215 219 1215 l 915 1215 q 952 1188 942 1215 q 944 1136 963 1160 l 154 111 l 761 111 q 786 99 779 111 q 790 56 793 86 q 775 14 786 28 q 746 0 764 0 l 6 0 m 493 1293 q 460 1313 479 1293 q 442 1346 442 1332 q 443 1356 442 1351 q 453 1369 444 1361 l 651 1568 q 664 1579 658 1575 q 678 1583 669 1583 q 710 1571 692 1583 q 741 1542 728 1558 q 754 1511 754 1525 q 751 1494 754 1501 q 732 1476 747 1488 l 519 1307 q 505 1297 511 1301 q 493 1293 499 1293 z "},"Ž":{"ha":851,"x_min":-35,"x_max":963,"o":"m 6 0 q -22 13 -11 0 q -34 46 -33 26 q -24 81 -35 65 l 767 1104 l 221 1104 q 196 1117 203 1104 q 192 1160 189 1131 q 208 1203 196 1190 q 238 1215 219 1215 l 915 1215 q 952 1188 942 1215 q 944 1136 963 1160 l 154 111 l 761 111 q 786 99 779 111 q 790 56 793 86 q 775 14 786 28 q 746 0 764 0 l 6 0 m 794 1583 q 825 1567 810 1583 q 840 1535 840 1550 q 838 1520 840 1526 q 829 1507 836 1514 l 624 1324 q 593 1302 608 1311 q 553 1293 578 1293 q 517 1303 531 1293 q 494 1326 504 1313 l 338 1513 q 329 1528 331 1522 q 328 1539 328 1535 q 347 1569 328 1556 q 379 1583 367 1583 q 399 1577 392 1583 q 415 1564 406 1571 l 567 1433 l 757 1564 q 776 1577 768 1571 q 794 1583 783 1583 z "},"Ż":{"ha":851,"x_min":-35,"x_max":963,"o":"m 6 0 q -22 13 -11 0 q -34 46 -33 26 q -24 81 -35 65 l 767 1104 l 221 1104 q 196 1117 203 1104 q 192 1160 189 1131 q 208 1203 196 1190 q 238 1215 219 1215 l 915 1215 q 952 1188 942 1215 q 944 1136 963 1160 l 154 111 l 761 111 q 786 99 779 111 q 790 56 793 86 q 775 14 786 28 q 746 0 764 0 l 6 0 m 567 1338 q 513 1357 532 1338 q 493 1417 493 1376 q 515 1485 493 1457 q 583 1513 538 1513 q 635 1492 615 1513 q 654 1433 654 1472 q 633 1365 656 1392 q 567 1338 611 1338 z "},"á":{"ha":867,"x_min":68,"x_max":838,"o":"m 260 -24 q 158 9 201 -24 q 92 101 115 42 q 68 246 68 161 q 85 382 68 314 q 133 511 101 450 q 213 619 165 572 q 321 694 260 667 q 457 721 382 721 q 542 711 500 721 q 626 681 585 701 l 626 685 q 645 708 631 701 q 686 715 660 715 q 736 704 722 715 q 744 671 750 693 l 658 146 q 655 108 654 121 q 662 90 656 94 q 676 85 668 85 q 701 93 689 85 q 726 117 713 101 q 754 158 739 133 q 774 174 763 171 q 803 168 786 178 q 831 144 824 157 q 831 115 838 131 q 794 54 818 86 q 735 0 769 22 q 656 -22 700 -22 q 588 -6 613 -22 q 553 39 564 11 q 542 100 542 67 q 547 168 542 133 q 549 195 549 181 q 550 225 549 210 q 460 88 508 143 q 362 5 413 33 q 260 -24 311 -24 m 193 257 q 203 169 193 208 q 235 109 213 131 q 290 88 257 88 q 394 140 340 88 q 502 290 449 193 q 601 525 556 388 l 610 576 q 527 605 565 597 q 457 613 489 613 q 365 592 407 613 q 292 537 324 572 q 238 456 260 501 q 204 360 215 411 q 193 257 193 308 m 450 851 q 417 867 436 851 q 397 896 397 882 q 400 909 397 903 q 408 925 403 915 l 568 1144 q 587 1164 578 1158 q 607 1169 596 1169 q 639 1159 621 1169 q 670 1134 657 1149 q 683 1104 683 1119 q 679 1088 683 1094 q 667 1072 675 1081 l 483 871 q 450 851 464 851 z "},"ă":{"ha":867,"x_min":68,"x_max":838,"o":"m 260 -24 q 158 9 201 -24 q 92 101 115 42 q 68 246 68 161 q 85 382 68 314 q 133 511 101 450 q 213 619 165 572 q 321 694 260 667 q 457 721 382 721 q 542 711 500 721 q 626 681 585 701 l 626 685 q 645 708 631 701 q 686 715 660 715 q 736 704 722 715 q 744 671 750 693 l 658 146 q 655 108 654 121 q 662 90 656 94 q 676 85 668 85 q 701 93 689 85 q 726 117 713 101 q 754 158 739 133 q 774 174 763 171 q 803 168 786 178 q 831 144 824 157 q 831 115 838 131 q 794 54 818 86 q 735 0 769 22 q 656 -22 700 -22 q 588 -6 613 -22 q 553 39 564 11 q 542 100 542 67 q 547 168 542 133 q 549 195 549 181 q 550 225 549 210 q 460 88 508 143 q 362 5 413 33 q 260 -24 311 -24 m 193 257 q 203 169 193 208 q 235 109 213 131 q 290 88 257 88 q 394 140 340 88 q 502 290 449 193 q 601 525 556 388 l 610 576 q 527 605 565 597 q 457 613 489 613 q 365 592 407 613 q 292 537 324 572 q 238 456 260 501 q 204 360 215 411 q 193 257 193 308 m 501 858 q 336 930 393 858 q 289 1132 279 1001 q 301 1160 289 1150 q 338 1171 314 1171 q 374 1160 363 1171 q 388 1132 386 1149 q 422 1022 390 1063 q 511 981 454 981 q 616 1024 575 981 q 676 1129 657 1068 q 695 1160 685 1151 q 729 1169 706 1169 q 769 1158 756 1169 q 776 1126 782 1146 q 722 978 758 1038 q 629 888 685 918 q 501 858 574 858 z "},"ǎ":{"ha":867,"x_min":68,"x_max":838,"o":"m 260 -24 q 158 9 201 -24 q 92 101 115 42 q 68 246 68 161 q 85 382 68 314 q 133 511 101 450 q 213 619 165 572 q 321 694 260 667 q 457 721 382 721 q 542 711 500 721 q 626 681 585 701 l 626 685 q 645 708 631 701 q 686 715 660 715 q 736 704 722 715 q 744 671 750 693 l 658 146 q 655 108 654 121 q 662 90 656 94 q 676 85 668 85 q 701 93 689 85 q 726 117 713 101 q 754 158 739 133 q 774 174 763 171 q 803 168 786 178 q 831 144 824 157 q 831 115 838 131 q 794 54 818 86 q 735 0 769 22 q 656 -22 700 -22 q 588 -6 613 -22 q 553 39 564 11 q 542 100 542 67 q 547 168 542 133 q 549 195 549 181 q 550 225 549 210 q 460 88 508 143 q 362 5 413 33 q 260 -24 311 -24 m 193 257 q 203 169 193 208 q 235 109 213 131 q 290 88 257 88 q 394 140 340 88 q 502 290 449 193 q 601 525 556 388 l 610 576 q 527 605 565 597 q 457 613 489 613 q 365 592 407 613 q 292 537 324 572 q 238 456 260 501 q 204 360 215 411 q 193 257 193 308 m 729 1176 q 759 1160 743 1176 q 775 1129 775 1144 q 772 1115 775 1121 q 763 1100 768 1108 l 564 886 q 534 865 550 874 q 493 857 518 857 q 457 867 471 857 q 435 889 443 876 l 289 1106 q 281 1122 283 1115 q 279 1132 279 1128 q 299 1163 279 1149 q 331 1176 318 1176 q 351 1170 343 1176 q 367 1156 358 1164 l 508 997 l 692 1157 q 709 1170 700 1164 q 729 1176 718 1176 z "},"â":{"ha":867,"x_min":68,"x_max":838,"o":"m 260 -24 q 158 9 201 -24 q 92 101 115 42 q 68 246 68 161 q 85 382 68 314 q 133 511 101 450 q 213 619 165 572 q 321 694 260 667 q 457 721 382 721 q 542 711 500 721 q 626 681 585 701 l 626 685 q 645 708 631 701 q 686 715 660 715 q 736 704 722 715 q 744 671 750 693 l 658 146 q 655 108 654 121 q 662 90 656 94 q 676 85 668 85 q 701 93 689 85 q 726 117 713 101 q 754 158 739 133 q 774 174 763 171 q 803 168 786 178 q 831 144 824 157 q 831 115 838 131 q 794 54 818 86 q 735 0 769 22 q 656 -22 700 -22 q 588 -6 613 -22 q 553 39 564 11 q 542 100 542 67 q 547 168 542 133 q 549 195 549 181 q 550 225 549 210 q 460 88 508 143 q 362 5 413 33 q 260 -24 311 -24 m 193 257 q 203 169 193 208 q 235 109 213 131 q 290 88 257 88 q 394 140 340 88 q 502 290 449 193 q 601 525 556 388 l 610 576 q 527 605 565 597 q 457 613 489 613 q 365 592 407 613 q 292 537 324 572 q 238 456 260 501 q 204 360 215 411 q 193 257 193 308 m 301 847 q 271 863 286 847 q 256 894 256 879 q 259 909 256 903 q 268 924 263 915 l 465 1138 q 496 1159 479 1151 q 536 1167 513 1167 q 573 1158 558 1167 q 596 1135 588 1149 l 742 918 q 749 903 747 908 q 750 892 750 897 q 731 862 750 876 q 699 847 713 847 q 679 853 688 847 q 664 868 671 860 l 522 1026 l 339 867 q 320 853 329 860 q 301 847 311 847 z "},"ä":{"ha":867,"x_min":68,"x_max":838,"o":"m 260 -24 q 158 9 201 -24 q 92 101 115 42 q 68 246 68 161 q 85 382 68 314 q 133 511 101 450 q 213 619 165 572 q 321 694 260 667 q 457 721 382 721 q 542 711 500 721 q 626 681 585 701 l 626 685 q 645 708 631 701 q 686 715 660 715 q 736 704 722 715 q 744 671 750 693 l 658 146 q 655 108 654 121 q 662 90 656 94 q 676 85 668 85 q 701 93 689 85 q 726 117 713 101 q 754 158 739 133 q 774 174 763 171 q 803 168 786 178 q 831 144 824 157 q 831 115 838 131 q 794 54 818 86 q 735 0 769 22 q 656 -22 700 -22 q 588 -6 613 -22 q 553 39 564 11 q 542 100 542 67 q 547 168 542 133 q 549 195 549 181 q 550 225 549 210 q 460 88 508 143 q 362 5 413 33 q 260 -24 311 -24 m 193 257 q 203 169 193 208 q 235 109 213 131 q 290 88 257 88 q 394 140 340 88 q 502 290 449 193 q 601 525 556 388 l 610 576 q 527 605 565 597 q 457 613 489 613 q 365 592 407 613 q 292 537 324 572 q 238 456 260 501 q 204 360 215 411 q 193 257 193 308 m 347 929 q 294 949 314 929 q 275 1008 275 969 q 297 1076 275 1049 q 364 1104 319 1104 q 417 1085 399 1104 q 436 1025 436 1065 q 415 957 438 985 q 347 929 393 929 m 671 929 q 618 949 638 929 q 599 1008 599 969 q 620 1076 599 1049 q 688 1104 642 1104 q 740 1085 721 1104 q 760 1025 760 1065 q 738 957 760 985 q 671 929 717 929 z "},"ǽ":{"ha":1242,"x_min":68,"x_max":1190,"o":"m 68 240 q 85 374 68 306 q 137 504 103 442 q 224 615 171 567 q 346 692 276 664 q 501 721 415 721 q 631 708 571 721 q 756 671 692 696 q 865 708 807 694 q 986 721 922 721 q 1135 676 1081 721 q 1190 550 1190 632 q 1165 456 1190 499 q 1093 379 1139 414 q 988 317 1047 344 q 859 269 928 290 q 719 235 790 249 q 722 222 721 228 q 726 210 724 215 q 751 143 733 171 q 799 100 769 115 q 868 85 828 85 q 953 103 917 85 q 1019 152 989 122 q 1076 217 1049 182 q 1113 233 1093 236 q 1149 214 1132 229 q 1170 183 1167 199 q 1158 149 1174 168 q 1063 47 1113 85 q 960 -9 1013 8 q 853 -26 908 -26 q 728 2 781 -26 q 644 81 675 31 q 601 194 613 131 q 594 215 597 204 q 590 238 592 226 q 476 81 531 138 q 372 0 422 24 q 274 -24 322 -24 q 122 49 175 -24 q 68 240 68 121 m 193 244 q 203 160 193 196 q 235 106 214 125 q 290 88 257 88 q 369 117 328 88 q 453 203 410 146 q 546 343 497 260 q 646 536 594 426 q 657 558 651 547 q 668 578 663 568 q 587 602 629 593 q 494 611 544 611 q 365 578 421 611 q 270 492 308 546 q 213 373 232 438 q 193 244 193 308 m 718 332 q 842 364 781 346 q 953 407 903 382 q 1035 465 1004 432 q 1065 538 1065 497 q 1038 594 1065 578 q 969 611 1011 611 q 878 602 922 611 q 793 571 835 593 q 744 456 763 514 q 718 332 725 397 m 693 851 q 660 867 679 851 q 640 896 640 882 q 643 909 640 903 q 651 925 646 915 l 811 1144 q 830 1164 821 1158 q 850 1169 839 1169 q 882 1159 864 1169 q 913 1134 900 1149 q 926 1104 926 1119 q 922 1088 926 1094 q 910 1072 918 1081 l 726 871 q 693 851 707 851 z "},"à":{"ha":867,"x_min":68,"x_max":838,"o":"m 260 -24 q 158 9 201 -24 q 92 101 115 42 q 68 246 68 161 q 85 382 68 314 q 133 511 101 450 q 213 619 165 572 q 321 694 260 667 q 457 721 382 721 q 542 711 500 721 q 626 681 585 701 l 626 685 q 645 708 631 701 q 686 715 660 715 q 736 704 722 715 q 744 671 750 693 l 658 146 q 655 108 654 121 q 662 90 656 94 q 676 85 668 85 q 701 93 689 85 q 726 117 713 101 q 754 158 739 133 q 774 174 763 171 q 803 168 786 178 q 831 144 824 157 q 831 115 838 131 q 794 54 818 86 q 735 0 769 22 q 656 -22 700 -22 q 588 -6 613 -22 q 553 39 564 11 q 542 100 542 67 q 547 168 542 133 q 549 195 549 181 q 550 225 549 210 q 460 88 508 143 q 362 5 413 33 q 260 -24 311 -24 m 193 257 q 203 169 193 208 q 235 109 213 131 q 290 88 257 88 q 394 140 340 88 q 502 290 449 193 q 601 525 556 388 l 610 576 q 527 605 565 597 q 457 613 489 613 q 365 592 407 613 q 292 537 324 572 q 238 456 260 501 q 204 360 215 411 q 193 257 193 308 m 533 857 q 518 863 526 857 q 500 882 510 868 l 358 1085 q 348 1101 351 1094 q 344 1117 344 1107 q 358 1144 344 1131 q 390 1167 371 1158 q 425 1176 408 1176 q 465 1144 450 1176 l 579 924 q 585 911 585 917 q 586 901 586 906 q 568 870 586 883 q 533 857 550 857 z "},"ā":{"ha":867,"x_min":68,"x_max":838,"o":"m 260 -24 q 158 9 201 -24 q 92 101 115 42 q 68 246 68 161 q 85 382 68 314 q 133 511 101 450 q 213 619 165 572 q 321 694 260 667 q 457 721 382 721 q 542 711 500 721 q 626 681 585 701 l 626 685 q 645 708 631 701 q 686 715 660 715 q 736 704 722 715 q 744 671 750 693 l 658 146 q 655 108 654 121 q 662 90 656 94 q 676 85 668 85 q 701 93 689 85 q 726 117 713 101 q 754 158 739 133 q 774 174 763 171 q 803 168 786 178 q 831 144 824 157 q 831 115 838 131 q 794 54 818 86 q 735 0 769 22 q 656 -22 700 -22 q 588 -6 613 -22 q 553 39 564 11 q 542 100 542 67 q 547 168 542 133 q 549 195 549 181 q 550 225 549 210 q 460 88 508 143 q 362 5 413 33 q 260 -24 311 -24 m 193 257 q 203 169 193 208 q 235 109 213 131 q 290 88 257 88 q 394 140 340 88 q 502 290 449 193 q 601 525 556 388 l 610 576 q 527 605 565 597 q 457 613 489 613 q 365 592 407 613 q 292 537 324 572 q 238 456 260 501 q 204 360 215 411 q 193 257 193 308 m 328 953 q 297 969 303 953 q 293 1011 290 986 q 306 1055 296 1039 q 340 1071 315 1071 l 706 1071 q 738 1054 732 1071 q 740 1011 743 1038 q 727 969 736 985 q 693 953 718 953 l 328 953 z "}}}
